G04 #@! TF.GenerationSoftware,KiCad,Pcbnew,7.0.11-7.0.11~ubuntu22.04.1*
G04 #@! TF.CreationDate,2024-12-11T14:00:36+07:00*
G04 #@! TF.ProjectId,seat_golden,73656174-5f67-46f6-9c64-656e2e6b6963,rev?*
G04 #@! TF.SameCoordinates,Original*
G04 #@! TF.FileFunction,Legend,Bot*
G04 #@! TF.FilePolarity,Positive*
%FSLAX46Y46*%
G04 Gerber Fmt 4.6, Leading zero omitted, Abs format (unit mm)*
G04 Created by KiCad (PCBNEW 7.0.11-7.0.11~ubuntu22.04.1) date 2024-12-11 14:00:36*
%MOMM*%
%LPD*%
G01*
G04 APERTURE LIST*
%ADD10C,0.150000*%
%ADD11C,0.120000*%
%ADD12C,3.000000*%
%ADD13C,2.999999*%
%ADD14C,1.520000*%
%ADD15R,1.520000X1.520000*%
%ADD16R,1.500000X1.500000*%
G04 APERTURE END LIST*
D10*
X13864214Y-18614214D02*
X13864214Y-11514214D01*
X17864214Y-18614214D02*
X13864214Y-18614214D01*
X42610839Y-29022200D02*
X42515601Y-29069819D01*
X42515601Y-29069819D02*
X42325125Y-29069819D01*
X42325125Y-29069819D02*
X42229887Y-29022200D01*
X42229887Y-29022200D02*
X42182268Y-28926961D01*
X42182268Y-28926961D02*
X42182268Y-28879342D01*
X42182268Y-28879342D02*
X42229887Y-28784104D01*
X42229887Y-28784104D02*
X42325125Y-28736485D01*
X42325125Y-28736485D02*
X42467982Y-28736485D01*
X42467982Y-28736485D02*
X42563220Y-28688866D01*
X42563220Y-28688866D02*
X42610839Y-28593628D01*
X42610839Y-28593628D02*
X42610839Y-28546009D01*
X42610839Y-28546009D02*
X42563220Y-28450771D01*
X42563220Y-28450771D02*
X42467982Y-28403152D01*
X42467982Y-28403152D02*
X42325125Y-28403152D01*
X42325125Y-28403152D02*
X42229887Y-28450771D01*
X41372744Y-29022200D02*
X41467982Y-29069819D01*
X41467982Y-29069819D02*
X41658458Y-29069819D01*
X41658458Y-29069819D02*
X41753696Y-29022200D01*
X41753696Y-29022200D02*
X41801315Y-28926961D01*
X41801315Y-28926961D02*
X41801315Y-28546009D01*
X41801315Y-28546009D02*
X41753696Y-28450771D01*
X41753696Y-28450771D02*
X41658458Y-28403152D01*
X41658458Y-28403152D02*
X41467982Y-28403152D01*
X41467982Y-28403152D02*
X41372744Y-28450771D01*
X41372744Y-28450771D02*
X41325125Y-28546009D01*
X41325125Y-28546009D02*
X41325125Y-28641247D01*
X41325125Y-28641247D02*
X41801315Y-28736485D01*
X40467982Y-29069819D02*
X40467982Y-28546009D01*
X40467982Y-28546009D02*
X40515601Y-28450771D01*
X40515601Y-28450771D02*
X40610839Y-28403152D01*
X40610839Y-28403152D02*
X40801315Y-28403152D01*
X40801315Y-28403152D02*
X40896553Y-28450771D01*
X40467982Y-29022200D02*
X40563220Y-29069819D01*
X40563220Y-29069819D02*
X40801315Y-29069819D01*
X40801315Y-29069819D02*
X40896553Y-29022200D01*
X40896553Y-29022200D02*
X40944172Y-28926961D01*
X40944172Y-28926961D02*
X40944172Y-28831723D01*
X40944172Y-28831723D02*
X40896553Y-28736485D01*
X40896553Y-28736485D02*
X40801315Y-28688866D01*
X40801315Y-28688866D02*
X40563220Y-28688866D01*
X40563220Y-28688866D02*
X40467982Y-28641247D01*
X40134648Y-28403152D02*
X39753696Y-28403152D01*
X39991791Y-28069819D02*
X39991791Y-28926961D01*
X39991791Y-28926961D02*
X39944172Y-29022200D01*
X39944172Y-29022200D02*
X39848934Y-29069819D01*
X39848934Y-29069819D02*
X39753696Y-29069819D01*
X39658458Y-29165057D02*
X38896553Y-29165057D01*
X38229886Y-28403152D02*
X38229886Y-29212676D01*
X38229886Y-29212676D02*
X38277505Y-29307914D01*
X38277505Y-29307914D02*
X38325124Y-29355533D01*
X38325124Y-29355533D02*
X38420362Y-29403152D01*
X38420362Y-29403152D02*
X38563219Y-29403152D01*
X38563219Y-29403152D02*
X38658457Y-29355533D01*
X38229886Y-29022200D02*
X38325124Y-29069819D01*
X38325124Y-29069819D02*
X38515600Y-29069819D01*
X38515600Y-29069819D02*
X38610838Y-29022200D01*
X38610838Y-29022200D02*
X38658457Y-28974580D01*
X38658457Y-28974580D02*
X38706076Y-28879342D01*
X38706076Y-28879342D02*
X38706076Y-28593628D01*
X38706076Y-28593628D02*
X38658457Y-28498390D01*
X38658457Y-28498390D02*
X38610838Y-28450771D01*
X38610838Y-28450771D02*
X38515600Y-28403152D01*
X38515600Y-28403152D02*
X38325124Y-28403152D01*
X38325124Y-28403152D02*
X38229886Y-28450771D01*
X37325124Y-29069819D02*
X37325124Y-28069819D01*
X37325124Y-29022200D02*
X37420362Y-29069819D01*
X37420362Y-29069819D02*
X37610838Y-29069819D01*
X37610838Y-29069819D02*
X37706076Y-29022200D01*
X37706076Y-29022200D02*
X37753695Y-28974580D01*
X37753695Y-28974580D02*
X37801314Y-28879342D01*
X37801314Y-28879342D02*
X37801314Y-28593628D01*
X37801314Y-28593628D02*
X37753695Y-28498390D01*
X37753695Y-28498390D02*
X37706076Y-28450771D01*
X37706076Y-28450771D02*
X37610838Y-28403152D01*
X37610838Y-28403152D02*
X37420362Y-28403152D01*
X37420362Y-28403152D02*
X37325124Y-28450771D01*
X36848933Y-28974580D02*
X36801314Y-29022200D01*
X36801314Y-29022200D02*
X36848933Y-29069819D01*
X36848933Y-29069819D02*
X36896552Y-29022200D01*
X36896552Y-29022200D02*
X36848933Y-28974580D01*
X36848933Y-28974580D02*
X36848933Y-29069819D01*
X36420362Y-28165057D02*
X36372743Y-28117438D01*
X36372743Y-28117438D02*
X36277505Y-28069819D01*
X36277505Y-28069819D02*
X36039410Y-28069819D01*
X36039410Y-28069819D02*
X35944172Y-28117438D01*
X35944172Y-28117438D02*
X35896553Y-28165057D01*
X35896553Y-28165057D02*
X35848934Y-28260295D01*
X35848934Y-28260295D02*
X35848934Y-28355533D01*
X35848934Y-28355533D02*
X35896553Y-28498390D01*
X35896553Y-28498390D02*
X36467981Y-29069819D01*
X36467981Y-29069819D02*
X35848934Y-29069819D01*
X35229886Y-28069819D02*
X35134648Y-28069819D01*
X35134648Y-28069819D02*
X35039410Y-28117438D01*
X35039410Y-28117438D02*
X34991791Y-28165057D01*
X34991791Y-28165057D02*
X34944172Y-28260295D01*
X34944172Y-28260295D02*
X34896553Y-28450771D01*
X34896553Y-28450771D02*
X34896553Y-28688866D01*
X34896553Y-28688866D02*
X34944172Y-28879342D01*
X34944172Y-28879342D02*
X34991791Y-28974580D01*
X34991791Y-28974580D02*
X35039410Y-29022200D01*
X35039410Y-29022200D02*
X35134648Y-29069819D01*
X35134648Y-29069819D02*
X35229886Y-29069819D01*
X35229886Y-29069819D02*
X35325124Y-29022200D01*
X35325124Y-29022200D02*
X35372743Y-28974580D01*
X35372743Y-28974580D02*
X35420362Y-28879342D01*
X35420362Y-28879342D02*
X35467981Y-28688866D01*
X35467981Y-28688866D02*
X35467981Y-28450771D01*
X35467981Y-28450771D02*
X35420362Y-28260295D01*
X35420362Y-28260295D02*
X35372743Y-28165057D01*
X35372743Y-28165057D02*
X35325124Y-28117438D01*
X35325124Y-28117438D02*
X35229886Y-28069819D01*
X34515600Y-28165057D02*
X34467981Y-28117438D01*
X34467981Y-28117438D02*
X34372743Y-28069819D01*
X34372743Y-28069819D02*
X34134648Y-28069819D01*
X34134648Y-28069819D02*
X34039410Y-28117438D01*
X34039410Y-28117438D02*
X33991791Y-28165057D01*
X33991791Y-28165057D02*
X33944172Y-28260295D01*
X33944172Y-28260295D02*
X33944172Y-28355533D01*
X33944172Y-28355533D02*
X33991791Y-28498390D01*
X33991791Y-28498390D02*
X34563219Y-29069819D01*
X34563219Y-29069819D02*
X33944172Y-29069819D01*
X33039410Y-28069819D02*
X33515600Y-28069819D01*
X33515600Y-28069819D02*
X33563219Y-28546009D01*
X33563219Y-28546009D02*
X33515600Y-28498390D01*
X33515600Y-28498390D02*
X33420362Y-28450771D01*
X33420362Y-28450771D02*
X33182267Y-28450771D01*
X33182267Y-28450771D02*
X33087029Y-28498390D01*
X33087029Y-28498390D02*
X33039410Y-28546009D01*
X33039410Y-28546009D02*
X32991791Y-28641247D01*
X32991791Y-28641247D02*
X32991791Y-28879342D01*
X32991791Y-28879342D02*
X33039410Y-28974580D01*
X33039410Y-28974580D02*
X33087029Y-29022200D01*
X33087029Y-29022200D02*
X33182267Y-29069819D01*
X33182267Y-29069819D02*
X33420362Y-29069819D01*
X33420362Y-29069819D02*
X33515600Y-29022200D01*
X33515600Y-29022200D02*
X33563219Y-28974580D01*
X32563219Y-28974580D02*
X32515600Y-29022200D01*
X32515600Y-29022200D02*
X32563219Y-29069819D01*
X32563219Y-29069819D02*
X32610838Y-29022200D01*
X32610838Y-29022200D02*
X32563219Y-28974580D01*
X32563219Y-28974580D02*
X32563219Y-29069819D01*
X31896553Y-28069819D02*
X31801315Y-28069819D01*
X31801315Y-28069819D02*
X31706077Y-28117438D01*
X31706077Y-28117438D02*
X31658458Y-28165057D01*
X31658458Y-28165057D02*
X31610839Y-28260295D01*
X31610839Y-28260295D02*
X31563220Y-28450771D01*
X31563220Y-28450771D02*
X31563220Y-28688866D01*
X31563220Y-28688866D02*
X31610839Y-28879342D01*
X31610839Y-28879342D02*
X31658458Y-28974580D01*
X31658458Y-28974580D02*
X31706077Y-29022200D01*
X31706077Y-29022200D02*
X31801315Y-29069819D01*
X31801315Y-29069819D02*
X31896553Y-29069819D01*
X31896553Y-29069819D02*
X31991791Y-29022200D01*
X31991791Y-29022200D02*
X32039410Y-28974580D01*
X32039410Y-28974580D02*
X32087029Y-28879342D01*
X32087029Y-28879342D02*
X32134648Y-28688866D01*
X32134648Y-28688866D02*
X32134648Y-28450771D01*
X32134648Y-28450771D02*
X32087029Y-28260295D01*
X32087029Y-28260295D02*
X32039410Y-28165057D01*
X32039410Y-28165057D02*
X31991791Y-28117438D01*
X31991791Y-28117438D02*
X31896553Y-28069819D01*
X30610839Y-29069819D02*
X31182267Y-29069819D01*
X30896553Y-29069819D02*
X30896553Y-28069819D01*
X30896553Y-28069819D02*
X30991791Y-28212676D01*
X30991791Y-28212676D02*
X31087029Y-28307914D01*
X31087029Y-28307914D02*
X31182267Y-28355533D01*
X30182267Y-28974580D02*
X30134648Y-29022200D01*
X30134648Y-29022200D02*
X30182267Y-29069819D01*
X30182267Y-29069819D02*
X30229886Y-29022200D01*
X30229886Y-29022200D02*
X30182267Y-28974580D01*
X30182267Y-28974580D02*
X30182267Y-29069819D01*
X29515601Y-28069819D02*
X29420363Y-28069819D01*
X29420363Y-28069819D02*
X29325125Y-28117438D01*
X29325125Y-28117438D02*
X29277506Y-28165057D01*
X29277506Y-28165057D02*
X29229887Y-28260295D01*
X29229887Y-28260295D02*
X29182268Y-28450771D01*
X29182268Y-28450771D02*
X29182268Y-28688866D01*
X29182268Y-28688866D02*
X29229887Y-28879342D01*
X29229887Y-28879342D02*
X29277506Y-28974580D01*
X29277506Y-28974580D02*
X29325125Y-29022200D01*
X29325125Y-29022200D02*
X29420363Y-29069819D01*
X29420363Y-29069819D02*
X29515601Y-29069819D01*
X29515601Y-29069819D02*
X29610839Y-29022200D01*
X29610839Y-29022200D02*
X29658458Y-28974580D01*
X29658458Y-28974580D02*
X29706077Y-28879342D01*
X29706077Y-28879342D02*
X29753696Y-28688866D01*
X29753696Y-28688866D02*
X29753696Y-28450771D01*
X29753696Y-28450771D02*
X29706077Y-28260295D01*
X29706077Y-28260295D02*
X29658458Y-28165057D01*
X29658458Y-28165057D02*
X29610839Y-28117438D01*
X29610839Y-28117438D02*
X29515601Y-28069819D01*
X28753696Y-28974580D02*
X28706077Y-29022200D01*
X28706077Y-29022200D02*
X28753696Y-29069819D01*
X28753696Y-29069819D02*
X28801315Y-29022200D01*
X28801315Y-29022200D02*
X28753696Y-28974580D01*
X28753696Y-28974580D02*
X28753696Y-29069819D01*
X28087030Y-28069819D02*
X27991792Y-28069819D01*
X27991792Y-28069819D02*
X27896554Y-28117438D01*
X27896554Y-28117438D02*
X27848935Y-28165057D01*
X27848935Y-28165057D02*
X27801316Y-28260295D01*
X27801316Y-28260295D02*
X27753697Y-28450771D01*
X27753697Y-28450771D02*
X27753697Y-28688866D01*
X27753697Y-28688866D02*
X27801316Y-28879342D01*
X27801316Y-28879342D02*
X27848935Y-28974580D01*
X27848935Y-28974580D02*
X27896554Y-29022200D01*
X27896554Y-29022200D02*
X27991792Y-29069819D01*
X27991792Y-29069819D02*
X28087030Y-29069819D01*
X28087030Y-29069819D02*
X28182268Y-29022200D01*
X28182268Y-29022200D02*
X28229887Y-28974580D01*
X28229887Y-28974580D02*
X28277506Y-28879342D01*
X28277506Y-28879342D02*
X28325125Y-28688866D01*
X28325125Y-28688866D02*
X28325125Y-28450771D01*
X28325125Y-28450771D02*
X28277506Y-28260295D01*
X28277506Y-28260295D02*
X28229887Y-28165057D01*
X28229887Y-28165057D02*
X28182268Y-28117438D01*
X28182268Y-28117438D02*
X28087030Y-28069819D01*
X27325125Y-28974580D02*
X27277506Y-29022200D01*
X27277506Y-29022200D02*
X27325125Y-29069819D01*
X27325125Y-29069819D02*
X27372744Y-29022200D01*
X27372744Y-29022200D02*
X27325125Y-28974580D01*
X27325125Y-28974580D02*
X27325125Y-29069819D01*
X26325126Y-29069819D02*
X26896554Y-29069819D01*
X26610840Y-29069819D02*
X26610840Y-28069819D01*
X26610840Y-28069819D02*
X26706078Y-28212676D01*
X26706078Y-28212676D02*
X26801316Y-28307914D01*
X26801316Y-28307914D02*
X26896554Y-28355533D01*
G36*
X37101279Y-15871088D02*
G01*
X37101279Y-16247834D01*
X37028361Y-16247834D01*
X36955442Y-16247834D01*
X36955442Y-15871088D01*
X36955442Y-15494341D01*
X37028361Y-15494341D01*
X37101279Y-15494341D01*
X37101279Y-15871088D01*
G37*
G36*
X30562906Y-14518041D02*
G01*
X30562906Y-15178360D01*
X30396814Y-15178360D01*
X30230721Y-15178360D01*
X30230721Y-14518041D01*
X30230721Y-13857722D01*
X30396814Y-13857722D01*
X30562906Y-13857722D01*
X30562906Y-14518041D01*
G37*
G36*
X36226255Y-15559158D02*
G01*
X36226255Y-15623974D01*
X36112826Y-15623974D01*
X35999397Y-15623974D01*
X35999397Y-15935904D01*
X35999397Y-16247834D01*
X35922524Y-16247834D01*
X35845651Y-16247834D01*
X35843529Y-15937930D01*
X35841407Y-15628025D01*
X35730003Y-15625771D01*
X35618600Y-15623517D01*
X35618600Y-15558929D01*
X35618600Y-15494341D01*
X35922428Y-15494341D01*
X36226255Y-15494341D01*
X36226255Y-15559158D01*
G37*
G36*
X30391868Y-13233871D02*
G01*
X30425147Y-13238535D01*
X30463300Y-13250037D01*
X30499310Y-13265815D01*
X30526157Y-13283307D01*
X30556628Y-13319719D01*
X30577866Y-13366161D01*
X30588136Y-13417730D01*
X30586635Y-13470329D01*
X30572561Y-13519862D01*
X30564176Y-13535575D01*
X30536670Y-13570126D01*
X30501557Y-13599960D01*
X30464571Y-13619771D01*
X30454468Y-13622923D01*
X30412984Y-13629279D01*
X30367119Y-13628647D01*
X30324835Y-13620961D01*
X30316194Y-13617885D01*
X30283021Y-13598503D01*
X30250761Y-13569913D01*
X30224223Y-13536922D01*
X30208216Y-13504342D01*
X30204706Y-13491038D01*
X30198665Y-13435987D01*
X30205161Y-13382039D01*
X30223388Y-13333045D01*
X30252537Y-13292859D01*
X30269344Y-13278493D01*
X30307885Y-13255696D01*
X30350676Y-13239821D01*
X30390699Y-13233863D01*
X30391868Y-13233871D01*
G37*
G36*
X35402361Y-13250255D02*
G01*
X35452084Y-13251231D01*
X35487487Y-13253101D01*
X35509675Y-13255931D01*
X35519755Y-13259789D01*
X35520846Y-13262630D01*
X35522286Y-13273082D01*
X35523572Y-13291642D01*
X35524710Y-13318986D01*
X35525708Y-13355789D01*
X35526571Y-13402724D01*
X35527308Y-13460467D01*
X35527924Y-13529691D01*
X35528427Y-13611072D01*
X35528823Y-13705285D01*
X35529120Y-13813003D01*
X35529323Y-13934901D01*
X35529440Y-14071654D01*
X35529477Y-14223936D01*
X35529477Y-15178360D01*
X35359334Y-15178360D01*
X35189190Y-15178360D01*
X35189190Y-14223936D01*
X35189208Y-14116742D01*
X35189300Y-13975291D01*
X35189476Y-13848902D01*
X35189743Y-13736901D01*
X35190107Y-13638612D01*
X35190577Y-13553362D01*
X35191157Y-13480475D01*
X35191856Y-13419278D01*
X35192680Y-13369095D01*
X35193636Y-13329252D01*
X35194730Y-13299075D01*
X35195970Y-13277888D01*
X35197362Y-13265018D01*
X35198913Y-13259789D01*
X35204587Y-13257025D01*
X35222866Y-13253881D01*
X35254012Y-13251717D01*
X35299133Y-13250468D01*
X35359334Y-13250067D01*
X35402361Y-13250255D01*
G37*
G36*
X29250846Y-13826928D02*
G01*
X29294848Y-13832923D01*
X29344679Y-13842383D01*
X29395074Y-13854282D01*
X29440769Y-13867598D01*
X29451194Y-13871186D01*
X29519217Y-13901540D01*
X29585505Y-13942023D01*
X29643118Y-13988489D01*
X29656815Y-14000652D01*
X29673022Y-14011038D01*
X29681479Y-14009190D01*
X29682608Y-14006217D01*
X29685202Y-13989054D01*
X29687032Y-13961733D01*
X29687758Y-13928615D01*
X29687882Y-13857722D01*
X29849924Y-13857722D01*
X30011965Y-13857722D01*
X30011965Y-14518041D01*
X30011965Y-15178360D01*
X29845873Y-15178360D01*
X29679780Y-15178360D01*
X29679733Y-14827946D01*
X29679678Y-14787780D01*
X29679312Y-14713570D01*
X29678637Y-14643814D01*
X29677691Y-14580468D01*
X29676512Y-14525493D01*
X29675139Y-14480846D01*
X29673610Y-14448486D01*
X29671963Y-14430371D01*
X29654731Y-14366597D01*
X29622946Y-14305958D01*
X29578047Y-14253584D01*
X29520753Y-14210015D01*
X29451783Y-14175791D01*
X29371856Y-14151450D01*
X29281692Y-14137534D01*
X29219840Y-14131986D01*
X29215087Y-14102207D01*
X29213357Y-14090241D01*
X29210951Y-14069316D01*
X29208370Y-14041323D01*
X29205427Y-14003983D01*
X29201932Y-13955020D01*
X29197697Y-13892156D01*
X29193277Y-13825314D01*
X29223361Y-13825314D01*
X29250846Y-13826928D01*
G37*
G36*
X34072671Y-14284940D02*
G01*
X34075155Y-14712491D01*
X34096542Y-14758066D01*
X34102101Y-14769392D01*
X34137846Y-14823976D01*
X34183405Y-14866620D01*
X34239925Y-14898198D01*
X34308556Y-14919587D01*
X34326482Y-14922651D01*
X34382399Y-14923344D01*
X34442107Y-14912852D01*
X34500514Y-14891910D01*
X34523948Y-14879011D01*
X34567447Y-14844184D01*
X34604626Y-14800424D01*
X34630998Y-14752523D01*
X34650375Y-14704389D01*
X34652815Y-14281056D01*
X34655256Y-13857722D01*
X34821377Y-13857722D01*
X34987499Y-13857722D01*
X34984484Y-14317515D01*
X34984106Y-14374254D01*
X34983379Y-14470511D01*
X34982538Y-14552739D01*
X34981460Y-14622362D01*
X34980019Y-14680806D01*
X34978091Y-14729494D01*
X34975551Y-14769852D01*
X34972275Y-14803304D01*
X34968138Y-14831276D01*
X34963016Y-14855193D01*
X34956785Y-14876478D01*
X34949319Y-14896558D01*
X34940494Y-14916857D01*
X34930186Y-14938800D01*
X34907055Y-14981808D01*
X34856692Y-15050047D01*
X34794689Y-15107139D01*
X34786056Y-15113594D01*
X34740497Y-15143515D01*
X34693053Y-15166736D01*
X34638954Y-15185284D01*
X34573432Y-15201185D01*
X34531427Y-15207543D01*
X34454169Y-15208600D01*
X34374466Y-15197869D01*
X34295770Y-15176396D01*
X34221533Y-15145225D01*
X34155208Y-15105400D01*
X34100247Y-15057968D01*
X34094077Y-15051819D01*
X34079091Y-15040026D01*
X34069864Y-15037340D01*
X34068686Y-15039086D01*
X34065782Y-15053402D01*
X34063760Y-15078435D01*
X34063002Y-15110142D01*
X34063002Y-15178703D01*
X33902986Y-15176506D01*
X33742970Y-15174309D01*
X33742970Y-14518041D01*
X33742970Y-13861773D01*
X33906579Y-13859582D01*
X34070187Y-13857390D01*
X34072671Y-14284940D01*
G37*
G36*
X36843440Y-16000372D02*
G01*
X36833683Y-16063122D01*
X36813664Y-16118185D01*
X36789768Y-16159335D01*
X36754881Y-16200600D01*
X36712616Y-16230775D01*
X36659716Y-16252705D01*
X36637376Y-16257859D01*
X36595370Y-16262246D01*
X36548639Y-16262750D01*
X36503754Y-16259390D01*
X36467288Y-16252184D01*
X36418612Y-16231744D01*
X36369571Y-16196047D01*
X36330836Y-16149254D01*
X36303262Y-16092752D01*
X36287701Y-16027925D01*
X36285476Y-15968676D01*
X36431243Y-15968676D01*
X36435748Y-16018982D01*
X36448505Y-16064249D01*
X36468594Y-16101074D01*
X36495098Y-16126056D01*
X36526392Y-16138477D01*
X36567946Y-16142477D01*
X36572143Y-16142463D01*
X36600617Y-16140567D01*
X36620894Y-16133979D01*
X36639992Y-16120562D01*
X36647521Y-16113806D01*
X36674765Y-16077949D01*
X36690691Y-16032712D01*
X36695953Y-15976415D01*
X36694479Y-15934815D01*
X36687141Y-15890690D01*
X36672788Y-15856439D01*
X36650466Y-15828970D01*
X36624770Y-15809792D01*
X36586602Y-15795792D01*
X36547753Y-15795463D01*
X36510796Y-15807814D01*
X36478306Y-15831856D01*
X36452857Y-15866598D01*
X36437023Y-15911050D01*
X36435908Y-15916730D01*
X36431243Y-15968676D01*
X36285476Y-15968676D01*
X36285006Y-15956159D01*
X36285060Y-15955158D01*
X36295383Y-15880861D01*
X36317275Y-15817466D01*
X36350440Y-15765327D01*
X36394584Y-15724801D01*
X36449410Y-15696242D01*
X36514624Y-15680005D01*
X36555819Y-15676941D01*
X36610178Y-15679741D01*
X36661467Y-15689233D01*
X36703530Y-15704614D01*
X36703663Y-15704682D01*
X36735718Y-15726786D01*
X36768647Y-15758847D01*
X36797741Y-15795640D01*
X36818291Y-15831941D01*
X36831848Y-15871481D01*
X36842855Y-15934852D01*
X36843226Y-15976415D01*
X36843440Y-16000372D01*
G37*
G36*
X32118570Y-15178360D02*
G01*
X31961560Y-15178360D01*
X31804549Y-15178360D01*
X31799485Y-15153041D01*
X31796987Y-15132894D01*
X31795131Y-15102583D01*
X31794421Y-15069320D01*
X31794415Y-15066661D01*
X31793543Y-15037601D01*
X31791480Y-15015562D01*
X31788638Y-15005134D01*
X31787299Y-15004799D01*
X31776836Y-15010688D01*
X31759417Y-15025490D01*
X31738000Y-15046773D01*
X31710635Y-15074084D01*
X31648728Y-15123996D01*
X31583718Y-15160127D01*
X31566096Y-15167617D01*
X31546635Y-15174830D01*
X31523500Y-15182035D01*
X31492660Y-15190476D01*
X31450083Y-15201399D01*
X31440315Y-15203222D01*
X31411780Y-15205867D01*
X31375392Y-15207077D01*
X31336654Y-15206602D01*
X31282494Y-15203267D01*
X31200364Y-15191419D01*
X31126121Y-15170608D01*
X31055494Y-15139501D01*
X30984214Y-15096770D01*
X30976360Y-15091376D01*
X30912475Y-15037922D01*
X30853991Y-14972321D01*
X30803275Y-14897990D01*
X30762695Y-14818343D01*
X30734621Y-14736797D01*
X30731431Y-14724234D01*
X30720369Y-14674241D01*
X30713405Y-14627407D01*
X30709783Y-14577314D01*
X30708876Y-14525201D01*
X31057133Y-14525201D01*
X31059469Y-14585460D01*
X31070162Y-14653904D01*
X31090598Y-14713750D01*
X31121956Y-14768214D01*
X31165416Y-14820512D01*
X31181036Y-14836024D01*
X31212752Y-14861672D01*
X31248613Y-14882049D01*
X31292627Y-14899228D01*
X31348807Y-14915281D01*
X31367277Y-14919561D01*
X31407337Y-14925039D01*
X31447525Y-14924072D01*
X31492596Y-14916330D01*
X31547308Y-14901482D01*
X31567035Y-14894298D01*
X31611831Y-14871038D01*
X31654955Y-14840622D01*
X31689534Y-14807585D01*
X31697150Y-14798301D01*
X31735063Y-14739318D01*
X31764180Y-14671507D01*
X31783283Y-14599250D01*
X31791152Y-14526928D01*
X31786568Y-14458921D01*
X31781357Y-14431263D01*
X31763917Y-14363174D01*
X31741077Y-14306370D01*
X31711273Y-14257473D01*
X31672946Y-14213102D01*
X31669401Y-14209599D01*
X31612663Y-14164929D01*
X31549326Y-14133504D01*
X31481719Y-14115288D01*
X31412166Y-14110243D01*
X31342993Y-14118335D01*
X31276527Y-14139526D01*
X31215095Y-14173781D01*
X31161021Y-14221063D01*
X31155855Y-14226737D01*
X31117365Y-14275798D01*
X31089354Y-14326936D01*
X31070716Y-14383391D01*
X31060344Y-14448399D01*
X31057133Y-14525201D01*
X30708876Y-14525201D01*
X30708743Y-14517539D01*
X30709192Y-14472237D01*
X30711227Y-14431348D01*
X30715647Y-14394510D01*
X30723247Y-14355323D01*
X30734820Y-14307387D01*
X30764558Y-14218267D01*
X30808426Y-14131790D01*
X30863987Y-14053457D01*
X30929815Y-13984749D01*
X31004481Y-13927147D01*
X31086556Y-13882134D01*
X31174613Y-13851191D01*
X31179131Y-13850030D01*
X31251555Y-13834078D01*
X31315802Y-13826219D01*
X31377413Y-13826454D01*
X31441931Y-13834783D01*
X31514900Y-13851206D01*
X31535852Y-13857330D01*
X31605483Y-13887191D01*
X31673407Y-13930329D01*
X31736202Y-13984679D01*
X31739727Y-13988190D01*
X31760994Y-14008311D01*
X31777797Y-14022497D01*
X31786761Y-14027866D01*
X31787827Y-14024876D01*
X31789502Y-14007600D01*
X31791072Y-13975931D01*
X31792509Y-13930992D01*
X31793785Y-13873905D01*
X31794872Y-13805794D01*
X31795743Y-13727782D01*
X31796368Y-13640992D01*
X31798472Y-13254118D01*
X31956463Y-13254118D01*
X32114453Y-13254118D01*
X32116512Y-14216239D01*
X32117177Y-14526928D01*
X32118570Y-15178360D01*
G37*
G36*
X29204177Y-14526505D02*
G01*
X29204044Y-14556870D01*
X29202723Y-14603612D01*
X29199594Y-14641861D01*
X29194168Y-14676610D01*
X29185958Y-14712853D01*
X29159383Y-14796202D01*
X29118222Y-14884325D01*
X29066560Y-14964431D01*
X29005813Y-15034657D01*
X28937395Y-15093141D01*
X28862721Y-15138023D01*
X28829707Y-15153654D01*
X28792003Y-15169758D01*
X28757218Y-15181623D01*
X28719019Y-15191329D01*
X28671072Y-15200956D01*
X28650821Y-15204259D01*
X28568114Y-15209192D01*
X28481643Y-15202261D01*
X28396427Y-15184111D01*
X28317488Y-15155389D01*
X28292002Y-15141838D01*
X28260177Y-15121223D01*
X28227666Y-15097177D01*
X28197355Y-15072103D01*
X28172131Y-15048403D01*
X28154880Y-15028480D01*
X28148488Y-15014736D01*
X28147184Y-15011788D01*
X28136490Y-15008217D01*
X28130307Y-15009747D01*
X28123670Y-15018252D01*
X28119082Y-15036214D01*
X28116048Y-15065879D01*
X28114069Y-15109493D01*
X28112029Y-15174309D01*
X27952013Y-15176506D01*
X27791997Y-15178703D01*
X27791997Y-14545479D01*
X28125358Y-14545479D01*
X28136581Y-14623164D01*
X28149276Y-14668366D01*
X28181160Y-14740993D01*
X28224465Y-14802235D01*
X28278947Y-14851842D01*
X28344362Y-14889562D01*
X28420465Y-14915144D01*
X28445684Y-14920545D01*
X28485428Y-14925126D01*
X28524993Y-14923250D01*
X28571895Y-14914904D01*
X28603006Y-14906698D01*
X28673446Y-14876635D01*
X28736055Y-14833040D01*
X28788746Y-14777238D01*
X28798677Y-14761935D01*
X28811761Y-14737602D01*
X28824205Y-14711214D01*
X28833507Y-14688125D01*
X28837165Y-14673689D01*
X28838405Y-14667372D01*
X28847292Y-14652941D01*
X28848834Y-14650798D01*
X28852749Y-14636952D01*
X28855414Y-14611148D01*
X28856936Y-14571980D01*
X28857420Y-14518041D01*
X28857371Y-14498997D01*
X28856565Y-14449962D01*
X28854687Y-14415246D01*
X28851631Y-14393441D01*
X28847292Y-14383142D01*
X28842434Y-14377014D01*
X28837165Y-14362722D01*
X28832173Y-14341076D01*
X28818529Y-14311362D01*
X28798644Y-14277848D01*
X28774930Y-14244595D01*
X28749799Y-14215662D01*
X28740138Y-14206195D01*
X28680861Y-14160644D01*
X28615430Y-14129478D01*
X28545371Y-14112920D01*
X28472206Y-14111194D01*
X28397461Y-14124522D01*
X28322659Y-14153128D01*
X28297374Y-14167144D01*
X28244476Y-14208974D01*
X28200132Y-14262168D01*
X28165195Y-14324571D01*
X28140518Y-14394027D01*
X28126954Y-14468381D01*
X28125358Y-14545479D01*
X27791997Y-14545479D01*
X27791997Y-14227201D01*
X27792011Y-14156294D01*
X27792098Y-14035688D01*
X27792260Y-13920077D01*
X27792494Y-13810480D01*
X27792792Y-13707916D01*
X27793151Y-13613405D01*
X27793566Y-13527965D01*
X27794029Y-13452615D01*
X27794538Y-13388374D01*
X27795086Y-13336261D01*
X27795668Y-13297296D01*
X27796280Y-13272497D01*
X27796915Y-13262883D01*
X27798553Y-13260136D01*
X27804524Y-13256391D01*
X27816297Y-13253686D01*
X27835952Y-13251862D01*
X27865568Y-13250758D01*
X27907227Y-13250213D01*
X27963007Y-13250067D01*
X28124182Y-13250067D01*
X28124182Y-13634437D01*
X28124325Y-13728942D01*
X28124819Y-13818106D01*
X28125665Y-13891191D01*
X28126866Y-13948261D01*
X28128423Y-13989379D01*
X28130337Y-14014610D01*
X28132609Y-14024016D01*
X28142973Y-14022142D01*
X28156066Y-14010315D01*
X28178646Y-13983925D01*
X28242325Y-13926448D01*
X28315038Y-13882175D01*
X28395602Y-13851888D01*
X28456983Y-13837524D01*
X28545793Y-13826775D01*
X28632443Y-13829504D01*
X28720333Y-13845911D01*
X28812858Y-13876191D01*
X28836084Y-13885808D01*
X28890699Y-13914249D01*
X28943122Y-13951067D01*
X28998002Y-13999354D01*
X29005632Y-14006687D01*
X29045400Y-14047351D01*
X29076354Y-14084746D01*
X29102367Y-14123989D01*
X29127312Y-14170198D01*
X29149387Y-14217762D01*
X29174699Y-14287391D01*
X29191640Y-14359146D01*
X29201152Y-14437396D01*
X29203890Y-14518041D01*
X29204177Y-14526505D01*
G37*
G36*
X37123595Y-14268903D02*
G01*
X37125013Y-14894788D01*
X37125655Y-15178360D01*
X36654615Y-15178360D01*
X36601410Y-15178330D01*
X36490158Y-15178029D01*
X36394274Y-15177410D01*
X36313895Y-15176475D01*
X36249163Y-15175225D01*
X36200214Y-15173664D01*
X36167189Y-15171794D01*
X36150226Y-15169617D01*
X36146942Y-15168756D01*
X36115091Y-15160442D01*
X36084469Y-15152489D01*
X36062258Y-15146172D01*
X35982836Y-15114055D01*
X35909262Y-15069548D01*
X35844589Y-15014747D01*
X35791873Y-14951748D01*
X35784839Y-14941331D01*
X35765339Y-14910359D01*
X35749625Y-14882453D01*
X35740580Y-14862625D01*
X35739862Y-14860501D01*
X35731431Y-14836586D01*
X35724285Y-14817818D01*
X35716909Y-14795538D01*
X35707881Y-14752676D01*
X35701931Y-14703294D01*
X35700204Y-14660451D01*
X36057945Y-14660451D01*
X36068939Y-14721140D01*
X36094022Y-14774616D01*
X36132533Y-14819955D01*
X36183811Y-14856234D01*
X36247195Y-14882531D01*
X36249022Y-14883068D01*
X36264859Y-14886584D01*
X36286096Y-14889355D01*
X36314531Y-14891458D01*
X36351966Y-14892968D01*
X36400202Y-14893961D01*
X36461038Y-14894513D01*
X36536275Y-14894700D01*
X36785529Y-14894788D01*
X36783388Y-14641598D01*
X36781247Y-14388408D01*
X36554901Y-14386252D01*
X36514252Y-14385922D01*
X36443332Y-14385797D01*
X36385488Y-14386564D01*
X36338635Y-14388425D01*
X36300689Y-14391585D01*
X36269566Y-14396246D01*
X36243182Y-14402614D01*
X36219452Y-14410890D01*
X36196292Y-14421279D01*
X36189808Y-14424536D01*
X36136602Y-14459935D01*
X36096961Y-14504185D01*
X36070927Y-14557221D01*
X36058545Y-14618980D01*
X36057945Y-14660451D01*
X35700204Y-14660451D01*
X35699909Y-14653133D01*
X35699964Y-14647558D01*
X35708704Y-14560553D01*
X35731931Y-14480504D01*
X35769182Y-14408135D01*
X35819994Y-14344172D01*
X35883907Y-14289340D01*
X35960457Y-14244364D01*
X35964690Y-14242310D01*
X35990113Y-14229215D01*
X36008156Y-14218622D01*
X36015146Y-14212662D01*
X36014983Y-14211990D01*
X36007245Y-14203292D01*
X35990206Y-14188248D01*
X35967012Y-14169670D01*
X35913879Y-14121048D01*
X35865271Y-14058044D01*
X35828692Y-13987979D01*
X35805523Y-13913553D01*
X35799406Y-13858003D01*
X36154876Y-13858003D01*
X36158113Y-13908827D01*
X36173292Y-13958219D01*
X36200473Y-14003971D01*
X36239713Y-14043874D01*
X36291072Y-14075722D01*
X36303264Y-14081339D01*
X36316002Y-14086386D01*
X36329731Y-14090243D01*
X36346623Y-14093102D01*
X36368851Y-14095158D01*
X36398590Y-14096604D01*
X36438013Y-14097635D01*
X36489292Y-14098443D01*
X36554601Y-14099223D01*
X36555964Y-14099238D01*
X36613902Y-14099677D01*
X36666445Y-14099670D01*
X36711430Y-14099251D01*
X36746698Y-14098453D01*
X36770086Y-14097308D01*
X36779433Y-14095847D01*
X36779524Y-14095731D01*
X36781057Y-14085535D01*
X36782436Y-14061405D01*
X36783605Y-14025491D01*
X36784509Y-13979941D01*
X36785092Y-13926902D01*
X36785298Y-13868525D01*
X36785298Y-13647068D01*
X36566846Y-13647068D01*
X36546563Y-13647073D01*
X36484802Y-13647206D01*
X36436394Y-13647629D01*
X36399117Y-13648489D01*
X36370751Y-13649931D01*
X36349076Y-13652101D01*
X36331870Y-13655144D01*
X36316912Y-13659207D01*
X36301982Y-13664433D01*
X36260181Y-13684550D01*
X36216234Y-13719021D01*
X36183995Y-13760892D01*
X36163523Y-13807955D01*
X36154876Y-13858003D01*
X35799406Y-13858003D01*
X35797144Y-13837467D01*
X35797143Y-13834590D01*
X35800325Y-13790312D01*
X35808444Y-13739283D01*
X35820054Y-13689027D01*
X35833710Y-13647068D01*
X35841665Y-13628458D01*
X35882845Y-13556576D01*
X35936587Y-13494858D01*
X36002931Y-13443271D01*
X36081919Y-13401782D01*
X36173592Y-13370356D01*
X36180085Y-13368899D01*
X36196058Y-13366638D01*
X36218848Y-13364741D01*
X36249629Y-13363180D01*
X36289574Y-13361931D01*
X36339856Y-13360967D01*
X36401648Y-13360262D01*
X36476123Y-13359791D01*
X36564456Y-13359527D01*
X36667818Y-13359445D01*
X37121535Y-13359445D01*
X37122186Y-13647068D01*
X37123595Y-14268903D01*
G37*
G36*
X33583090Y-14447149D02*
G01*
X33584980Y-14527954D01*
X33584631Y-14575235D01*
X33583115Y-14619111D01*
X33580034Y-14654739D01*
X33574996Y-14686395D01*
X33567612Y-14718356D01*
X33564409Y-14730402D01*
X33534499Y-14819244D01*
X33495390Y-14897523D01*
X33444914Y-14968936D01*
X33380907Y-15037182D01*
X33375016Y-15042699D01*
X33303401Y-15098813D01*
X33222034Y-15143609D01*
X33129887Y-15177559D01*
X33025936Y-15201138D01*
X33014368Y-15202919D01*
X32963187Y-15207872D01*
X32908392Y-15209432D01*
X32856461Y-15207564D01*
X32813875Y-15202235D01*
X32793012Y-15198106D01*
X32747071Y-15188857D01*
X32712080Y-15181225D01*
X32684443Y-15174097D01*
X32660569Y-15166357D01*
X32636863Y-15156891D01*
X32609733Y-15144584D01*
X32575583Y-15128321D01*
X32571566Y-15126365D01*
X32532329Y-15104782D01*
X32491760Y-15078943D01*
X32458034Y-15054017D01*
X32433848Y-15032870D01*
X32405918Y-15006036D01*
X32379722Y-14978707D01*
X32357843Y-14953710D01*
X32342865Y-14933873D01*
X32337373Y-14922021D01*
X32342010Y-14917835D01*
X32359037Y-14907273D01*
X32386350Y-14891967D01*
X32421593Y-14873227D01*
X32462413Y-14852366D01*
X32587341Y-14789690D01*
X32622316Y-14823344D01*
X32631397Y-14831899D01*
X32695158Y-14881870D01*
X32762238Y-14916582D01*
X32834561Y-14936828D01*
X32914054Y-14943400D01*
X32988621Y-14937672D01*
X33052907Y-14920027D01*
X33107376Y-14889903D01*
X33152797Y-14846736D01*
X33189935Y-14789963D01*
X33219558Y-14719022D01*
X33220811Y-14715211D01*
X33229175Y-14685844D01*
X33233877Y-14661944D01*
X33233929Y-14648373D01*
X33232137Y-14646030D01*
X33227245Y-14643673D01*
X33218192Y-14641692D01*
X33203772Y-14640055D01*
X33182781Y-14638731D01*
X33154016Y-14637687D01*
X33116272Y-14636892D01*
X33068345Y-14636313D01*
X33009030Y-14635919D01*
X32937124Y-14635677D01*
X32851422Y-14635555D01*
X32750720Y-14635521D01*
X32670502Y-14635472D01*
X32588737Y-14635316D01*
X32513293Y-14635061D01*
X32445583Y-14634719D01*
X32387017Y-14634300D01*
X32339009Y-14633814D01*
X32302969Y-14633272D01*
X32280310Y-14632682D01*
X32272444Y-14632057D01*
X32272391Y-14631296D01*
X32270932Y-14619242D01*
X32267879Y-14596191D01*
X32263778Y-14566287D01*
X32260851Y-14540663D01*
X32259403Y-14488433D01*
X32264182Y-14429991D01*
X32266542Y-14412714D01*
X32616782Y-14412714D01*
X32921189Y-14414836D01*
X32928788Y-14414887D01*
X32997023Y-14415190D01*
X33059930Y-14415196D01*
X33115695Y-14414925D01*
X33162506Y-14414396D01*
X33198551Y-14413629D01*
X33222017Y-14412644D01*
X33231093Y-14411460D01*
X33234962Y-14404903D01*
X33235848Y-14389386D01*
X33230949Y-14364281D01*
X33219917Y-14326955D01*
X33209611Y-14296624D01*
X33187025Y-14243085D01*
X33161444Y-14200915D01*
X33130663Y-14166839D01*
X33092476Y-14137579D01*
X33076811Y-14127688D01*
X33043388Y-14110292D01*
X33009840Y-14099584D01*
X32970873Y-14094177D01*
X32921193Y-14092682D01*
X32902701Y-14092778D01*
X32869836Y-14094092D01*
X32844748Y-14097848D01*
X32821603Y-14105177D01*
X32794570Y-14117207D01*
X32743955Y-14147264D01*
X32696273Y-14192030D01*
X32660129Y-14247924D01*
X32641287Y-14287803D01*
X32629035Y-14319509D01*
X32622121Y-14347331D01*
X32618942Y-14376255D01*
X32616782Y-14412714D01*
X32266542Y-14412714D01*
X32269697Y-14389620D01*
X32287656Y-14297742D01*
X32312357Y-14217555D01*
X32344914Y-14146439D01*
X32386440Y-14081775D01*
X32438048Y-14020944D01*
X32450765Y-14007897D01*
X32508039Y-13956942D01*
X32568805Y-13916713D01*
X32639062Y-13883094D01*
X32657863Y-13875349D01*
X32679573Y-13866389D01*
X32707159Y-13857462D01*
X32747347Y-13848018D01*
X32794302Y-13839283D01*
X32843201Y-13832055D01*
X32889224Y-13827132D01*
X32927550Y-13825314D01*
X32954944Y-13826130D01*
X33023649Y-13833547D01*
X33096752Y-13847753D01*
X33167723Y-13867598D01*
X33211312Y-13884483D01*
X33286612Y-13925313D01*
X33357884Y-13978134D01*
X33422148Y-14040273D01*
X33476426Y-14109055D01*
X33517737Y-14181805D01*
X33523611Y-14194842D01*
X33547965Y-14256013D01*
X33565431Y-14315544D01*
X33576857Y-14377801D01*
X33577898Y-14389386D01*
X33583090Y-14447149D01*
G37*
G36*
X44049127Y-14644657D02*
G01*
X44002346Y-14727264D01*
X43993517Y-14741855D01*
X43978232Y-14767656D01*
X43967675Y-14786232D01*
X43963735Y-14794300D01*
X43963167Y-14795852D01*
X43955871Y-14808362D01*
X43941372Y-14831095D01*
X43921203Y-14861788D01*
X43896898Y-14898179D01*
X43869990Y-14938006D01*
X43842013Y-14979006D01*
X43814500Y-15018917D01*
X43788986Y-15055477D01*
X43767002Y-15086423D01*
X43750084Y-15109493D01*
X43740447Y-15122170D01*
X43716736Y-15152872D01*
X43690319Y-15186580D01*
X43663303Y-15220659D01*
X43637794Y-15252475D01*
X43615898Y-15279392D01*
X43599723Y-15298777D01*
X43591375Y-15307993D01*
X43589182Y-15310228D01*
X43578566Y-15322404D01*
X43563629Y-15340402D01*
X43538403Y-15370491D01*
X43490279Y-15424891D01*
X43433412Y-15486413D01*
X43369930Y-15552921D01*
X43301962Y-15622277D01*
X43231637Y-15692345D01*
X43161082Y-15760989D01*
X43092427Y-15826071D01*
X43027799Y-15885454D01*
X42969328Y-15937003D01*
X42868584Y-16021941D01*
X42753413Y-16114825D01*
X42647638Y-16195152D01*
X42551403Y-16262815D01*
X42464852Y-16317704D01*
X42444375Y-16329582D01*
X42405358Y-16351135D01*
X42363507Y-16373189D01*
X42321656Y-16394353D01*
X42282642Y-16413236D01*
X42249299Y-16428446D01*
X42224462Y-16438592D01*
X42210969Y-16442284D01*
X42205093Y-16443076D01*
X42193432Y-16450386D01*
X42186776Y-16455245D01*
X42170269Y-16458488D01*
X42158157Y-16459786D01*
X42144415Y-16465286D01*
X42137596Y-16468815D01*
X42118087Y-16475261D01*
X42092157Y-16481743D01*
X42075829Y-16485283D01*
X42042617Y-16492486D01*
X42015187Y-16498438D01*
X42008291Y-16499671D01*
X41979080Y-16502600D01*
X41938780Y-16504637D01*
X41891165Y-16505784D01*
X41840005Y-16506045D01*
X41789075Y-16505419D01*
X41742147Y-16503911D01*
X41702994Y-16501521D01*
X41675387Y-16498252D01*
X41630471Y-16489521D01*
X41567570Y-16474922D01*
X41500410Y-16456404D01*
X41423735Y-16432596D01*
X41413182Y-16429179D01*
X41379864Y-16418263D01*
X41355249Y-16409741D01*
X41333976Y-16401586D01*
X41310684Y-16391773D01*
X41280012Y-16378275D01*
X41265577Y-16372014D01*
X41246568Y-16364283D01*
X41237313Y-16361263D01*
X41237032Y-16361209D01*
X41227104Y-16357048D01*
X41205180Y-16347010D01*
X41173555Y-16332172D01*
X41134522Y-16313608D01*
X41090377Y-16292395D01*
X41084431Y-16289525D01*
X41041005Y-16268623D01*
X41003153Y-16250500D01*
X40973127Y-16236230D01*
X40953179Y-16226882D01*
X40945562Y-16223528D01*
X40944935Y-16223346D01*
X40933995Y-16218185D01*
X40911398Y-16206754D01*
X40879301Y-16190191D01*
X40839856Y-16169635D01*
X40795218Y-16146222D01*
X40747543Y-16121091D01*
X40698983Y-16095379D01*
X40651694Y-16070224D01*
X40607829Y-16046763D01*
X40569544Y-16026134D01*
X40538993Y-16009474D01*
X40518329Y-15997922D01*
X40514660Y-15995815D01*
X40486294Y-15979546D01*
X40459589Y-15964261D01*
X40458262Y-15963503D01*
X40430372Y-15947566D01*
X40402874Y-15931853D01*
X40399553Y-15929956D01*
X40371751Y-15914138D01*
X40344134Y-15898496D01*
X40339409Y-15895794D01*
X40313802Y-15880297D01*
X40292246Y-15866088D01*
X40291244Y-15865381D01*
X40275101Y-15855082D01*
X40265469Y-15850832D01*
X40265223Y-15850807D01*
X40255548Y-15845974D01*
X40236689Y-15834399D01*
X40212476Y-15818424D01*
X40210553Y-15817121D01*
X40186646Y-15801400D01*
X40168418Y-15790252D01*
X40159681Y-15786016D01*
X40152058Y-15781977D01*
X40132806Y-15769924D01*
X40103839Y-15751098D01*
X40067003Y-15726748D01*
X40024143Y-15698124D01*
X39977104Y-15666475D01*
X39927731Y-15633052D01*
X39877871Y-15599102D01*
X39829368Y-15565876D01*
X39784068Y-15534623D01*
X39743817Y-15506593D01*
X39710459Y-15483035D01*
X39685841Y-15465198D01*
X39680511Y-15461247D01*
X39642672Y-15433265D01*
X39597795Y-15400164D01*
X39551048Y-15365749D01*
X39507595Y-15333830D01*
X39488282Y-15319655D01*
X39454790Y-15295034D01*
X39426971Y-15274533D01*
X39407291Y-15259970D01*
X39398217Y-15253164D01*
X39395752Y-15251290D01*
X39381381Y-15240909D01*
X39361758Y-15227144D01*
X39354891Y-15222328D01*
X39338031Y-15209938D01*
X39329350Y-15202667D01*
X39327562Y-15200943D01*
X39315419Y-15191409D01*
X39296941Y-15178134D01*
X39286381Y-15170609D01*
X39257189Y-15148896D01*
X39219758Y-15120274D01*
X39176955Y-15086991D01*
X39131644Y-15051298D01*
X39086691Y-15015445D01*
X39044961Y-14981681D01*
X39009318Y-14952258D01*
X38929780Y-14883714D01*
X38814531Y-14776426D01*
X38711983Y-14670500D01*
X38622594Y-14566522D01*
X38546823Y-14465078D01*
X38485129Y-14366754D01*
X38437971Y-14272134D01*
X38405806Y-14181805D01*
X38400784Y-14162544D01*
X38385500Y-14068820D01*
X38384371Y-13974139D01*
X38391820Y-13920657D01*
X39096560Y-13920657D01*
X39109365Y-13925263D01*
X39136925Y-13926590D01*
X39148191Y-13926889D01*
X39175265Y-13930832D01*
X39204796Y-13940639D01*
X39242252Y-13957938D01*
X39254213Y-13964040D01*
X39280221Y-13978356D01*
X39298280Y-13989834D01*
X39305043Y-13996423D01*
X39305898Y-13999220D01*
X39315669Y-14003560D01*
X39327642Y-14007954D01*
X39343687Y-14019764D01*
X39357615Y-14030950D01*
X39367984Y-14035968D01*
X39374320Y-14040262D01*
X39390122Y-14054468D01*
X39413065Y-14076546D01*
X39441073Y-14104357D01*
X39472075Y-14135766D01*
X39503996Y-14168634D01*
X39534763Y-14200825D01*
X39562303Y-14230201D01*
X39584541Y-14254625D01*
X39599405Y-14271961D01*
X39604820Y-14280070D01*
X39607551Y-14286032D01*
X39619321Y-14300938D01*
X39637228Y-14319541D01*
X39650143Y-14332743D01*
X39664182Y-14349696D01*
X39669637Y-14360216D01*
X39670188Y-14362748D01*
X39678604Y-14375978D01*
X39693943Y-14392459D01*
X39698964Y-14397391D01*
X39712724Y-14414102D01*
X39718249Y-14426329D01*
X39721882Y-14435972D01*
X39734453Y-14449174D01*
X39744601Y-14459289D01*
X39750657Y-14473480D01*
X39754252Y-14483978D01*
X39766861Y-14497786D01*
X39777085Y-14507477D01*
X39783066Y-14519759D01*
X39783643Y-14522538D01*
X39792078Y-14536358D01*
X39807372Y-14553282D01*
X39812708Y-14558608D01*
X39826252Y-14574766D01*
X39831678Y-14585761D01*
X39832101Y-14588704D01*
X39839780Y-14595011D01*
X39843507Y-14596382D01*
X39847882Y-14607164D01*
X39848796Y-14612755D01*
X39855984Y-14619317D01*
X39857966Y-14619566D01*
X39864086Y-14627493D01*
X39864876Y-14630382D01*
X39873441Y-14643716D01*
X39888393Y-14661103D01*
X39894613Y-14667845D01*
X39907549Y-14683842D01*
X39912699Y-14693511D01*
X39913511Y-14696146D01*
X39922087Y-14708832D01*
X39937005Y-14725920D01*
X39943224Y-14732661D01*
X39956161Y-14748665D01*
X39961311Y-14758346D01*
X39962858Y-14761567D01*
X39973701Y-14775368D01*
X39993377Y-14797657D01*
X40020076Y-14826588D01*
X40051988Y-14860314D01*
X40087302Y-14896987D01*
X40124209Y-14934763D01*
X40160898Y-14971793D01*
X40195559Y-15006232D01*
X40226383Y-15036232D01*
X40251557Y-15059947D01*
X40269274Y-15075531D01*
X40277721Y-15081135D01*
X40283904Y-15083851D01*
X40299079Y-15095620D01*
X40317802Y-15113544D01*
X40331060Y-15126267D01*
X40349320Y-15140440D01*
X40361729Y-15145952D01*
X40367900Y-15146849D01*
X40374517Y-15153131D01*
X40374754Y-15154205D01*
X40383469Y-15162777D01*
X40400849Y-15172852D01*
X40401325Y-15173080D01*
X40424472Y-15186193D01*
X40443430Y-15200106D01*
X40450032Y-15205462D01*
X40471203Y-15219863D01*
X40496093Y-15234471D01*
X40509238Y-15241732D01*
X40527615Y-15252581D01*
X40536558Y-15258886D01*
X40540946Y-15262125D01*
X40556720Y-15271294D01*
X40579094Y-15283045D01*
X40593919Y-15291045D01*
X40610948Y-15302105D01*
X40617579Y-15309267D01*
X40620610Y-15313231D01*
X40633783Y-15316096D01*
X40643188Y-15317230D01*
X40650016Y-15322172D01*
X40654869Y-15327122D01*
X40671011Y-15336868D01*
X40694549Y-15348504D01*
X40714674Y-15358323D01*
X40732289Y-15368538D01*
X40739081Y-15374836D01*
X40739083Y-15374904D01*
X40746332Y-15379150D01*
X40763417Y-15380912D01*
X40763719Y-15380913D01*
X40780682Y-15383325D01*
X40787723Y-15389014D01*
X40790761Y-15393723D01*
X40803927Y-15397116D01*
X40813345Y-15398636D01*
X40820131Y-15405218D01*
X40820133Y-15405319D01*
X40827371Y-15410974D01*
X40844437Y-15413320D01*
X40844740Y-15413321D01*
X40861703Y-15415734D01*
X40868743Y-15421422D01*
X40871782Y-15426132D01*
X40884948Y-15429525D01*
X40894366Y-15431044D01*
X40901152Y-15437627D01*
X40901154Y-15437727D01*
X40908392Y-15443382D01*
X40925458Y-15445729D01*
X40925760Y-15445729D01*
X40942724Y-15448142D01*
X40949764Y-15453831D01*
X40949766Y-15453932D01*
X40957004Y-15459586D01*
X40974070Y-15461933D01*
X40974373Y-15461933D01*
X40991336Y-15464346D01*
X40998377Y-15470035D01*
X40998379Y-15470136D01*
X41005617Y-15475790D01*
X41022683Y-15478137D01*
X41022985Y-15478138D01*
X41039949Y-15480550D01*
X41046989Y-15486239D01*
X41047815Y-15488055D01*
X41059103Y-15492544D01*
X41079397Y-15494341D01*
X41086662Y-15494548D01*
X41104618Y-15497370D01*
X41111806Y-15502443D01*
X41113367Y-15504799D01*
X41126210Y-15508916D01*
X41147787Y-15510545D01*
X41157738Y-15510850D01*
X41178281Y-15513725D01*
X41188775Y-15518647D01*
X41191341Y-15520775D01*
X41206540Y-15525050D01*
X41229286Y-15526749D01*
X41238786Y-15527035D01*
X41259288Y-15529901D01*
X41269796Y-15534852D01*
X41270325Y-15535446D01*
X41282241Y-15539251D01*
X41305305Y-15541936D01*
X41335091Y-15542954D01*
X41337602Y-15542960D01*
X41367470Y-15544116D01*
X41387843Y-15546965D01*
X41395378Y-15551056D01*
X41395378Y-15551060D01*
X41403368Y-15553885D01*
X41426775Y-15556141D01*
X41464821Y-15557795D01*
X41516731Y-15558811D01*
X41581726Y-15559158D01*
X41581823Y-15559158D01*
X41646801Y-15558810D01*
X41698692Y-15557793D01*
X41736719Y-15556138D01*
X41760105Y-15553882D01*
X41768074Y-15551056D01*
X41768074Y-15551048D01*
X41775592Y-15546893D01*
X41795695Y-15544024D01*
X41824788Y-15542954D01*
X41824843Y-15542954D01*
X41853924Y-15541880D01*
X41874009Y-15539008D01*
X41881503Y-15534852D01*
X41886666Y-15531193D01*
X41904221Y-15527979D01*
X41930115Y-15526749D01*
X41952069Y-15525889D01*
X41971348Y-15522963D01*
X41978728Y-15518647D01*
X41979554Y-15516831D01*
X41990842Y-15512342D01*
X42011136Y-15510545D01*
X42018400Y-15510339D01*
X42036356Y-15507517D01*
X42043544Y-15502443D01*
X42043741Y-15501481D01*
X42052871Y-15496408D01*
X42071423Y-15494341D01*
X42073902Y-15494310D01*
X42093536Y-15491718D01*
X42104310Y-15486239D01*
X42111650Y-15481195D01*
X42128616Y-15478137D01*
X42141726Y-15476364D01*
X42152922Y-15470035D01*
X42153472Y-15469320D01*
X42165628Y-15464080D01*
X42185809Y-15461933D01*
X42189119Y-15461876D01*
X42206574Y-15459222D01*
X42213688Y-15453831D01*
X42216510Y-15449214D01*
X42229414Y-15445729D01*
X42238719Y-15444433D01*
X42250147Y-15437627D01*
X42257776Y-15432512D01*
X42274931Y-15429525D01*
X42287790Y-15427566D01*
X42294708Y-15421422D01*
X42297531Y-15416805D01*
X42310434Y-15413320D01*
X42319740Y-15412025D01*
X42331168Y-15405218D01*
X42338797Y-15400104D01*
X42355952Y-15397116D01*
X42368810Y-15395158D01*
X42375729Y-15389014D01*
X42378768Y-15384305D01*
X42391933Y-15380912D01*
X42401352Y-15379393D01*
X42408137Y-15372810D01*
X42411176Y-15368101D01*
X42424342Y-15364708D01*
X42433760Y-15363189D01*
X42440546Y-15356606D01*
X42443584Y-15351897D01*
X42456750Y-15348504D01*
X42466168Y-15346985D01*
X42472954Y-15340402D01*
X42475993Y-15335693D01*
X42489158Y-15332300D01*
X42498576Y-15330780D01*
X42505362Y-15324198D01*
X42508401Y-15319488D01*
X42521566Y-15316096D01*
X42530985Y-15314576D01*
X42537771Y-15307993D01*
X42540809Y-15303284D01*
X42553975Y-15299891D01*
X42563393Y-15298372D01*
X42570179Y-15291789D01*
X42572433Y-15287453D01*
X42584594Y-15283687D01*
X42596130Y-15280138D01*
X42610689Y-15267483D01*
X42619730Y-15257148D01*
X42629248Y-15251279D01*
X42634415Y-15249497D01*
X42650320Y-15240683D01*
X42671455Y-15226973D01*
X42685203Y-15217854D01*
X42703521Y-15206929D01*
X42713508Y-15202667D01*
X42714653Y-15202471D01*
X42726026Y-15195744D01*
X42742077Y-15182411D01*
X42744684Y-15180071D01*
X42762495Y-15167345D01*
X42776428Y-15162156D01*
X42782330Y-15161354D01*
X42788935Y-15155423D01*
X42788936Y-15155357D01*
X42795511Y-15147232D01*
X42811076Y-15137193D01*
X42813364Y-15135957D01*
X42835151Y-15121415D01*
X42856839Y-15103416D01*
X42861701Y-15098971D01*
X42877745Y-15086249D01*
X42887887Y-15081135D01*
X42888051Y-15081127D01*
X42897383Y-15075312D01*
X42914127Y-15060801D01*
X42934772Y-15040625D01*
X42935463Y-15039917D01*
X42956298Y-15019839D01*
X42973429Y-15005554D01*
X42983205Y-15000115D01*
X42990461Y-14995966D01*
X43007035Y-14982263D01*
X43029867Y-14961257D01*
X43056303Y-14935298D01*
X43079396Y-14912512D01*
X43102761Y-14890728D01*
X43120176Y-14875935D01*
X43129006Y-14870482D01*
X43136657Y-14866620D01*
X43153600Y-14852592D01*
X43177221Y-14830194D01*
X43205713Y-14801416D01*
X43237271Y-14768248D01*
X43270088Y-14732681D01*
X43302359Y-14696705D01*
X43332276Y-14662311D01*
X43358035Y-14631487D01*
X43377828Y-14606225D01*
X43389851Y-14588516D01*
X43392296Y-14580348D01*
X43389338Y-14578932D01*
X43382653Y-14584883D01*
X43379093Y-14589857D01*
X43365296Y-14595011D01*
X43354150Y-14598577D01*
X43339876Y-14611215D01*
X43329761Y-14621363D01*
X43315570Y-14627419D01*
X43305071Y-14631014D01*
X43291263Y-14643623D01*
X43281362Y-14653809D01*
X43268144Y-14659828D01*
X43258388Y-14662823D01*
X43243601Y-14674062D01*
X43229093Y-14686530D01*
X43208217Y-14699737D01*
X43207920Y-14699890D01*
X43192384Y-14709875D01*
X43185936Y-14717911D01*
X43185646Y-14719661D01*
X43177496Y-14724644D01*
X43166906Y-14729105D01*
X43151662Y-14740848D01*
X43136901Y-14751915D01*
X43123643Y-14757052D01*
X43119460Y-14757710D01*
X43113018Y-14765155D01*
X43110764Y-14769491D01*
X43098602Y-14773257D01*
X43087067Y-14776806D01*
X43072507Y-14789461D01*
X43062741Y-14799671D01*
X43050125Y-14805665D01*
X43038102Y-14810057D01*
X43022028Y-14821869D01*
X43007268Y-14832936D01*
X42994010Y-14838073D01*
X42989827Y-14838731D01*
X42983385Y-14846175D01*
X42981890Y-14850006D01*
X42970893Y-14854277D01*
X42957752Y-14858615D01*
X42941008Y-14870482D01*
X42926247Y-14881548D01*
X42912989Y-14886686D01*
X42908807Y-14887344D01*
X42902364Y-14894788D01*
X42900870Y-14898619D01*
X42889872Y-14902890D01*
X42876731Y-14907228D01*
X42859987Y-14919094D01*
X42845227Y-14930161D01*
X42831969Y-14935298D01*
X42827786Y-14935956D01*
X42821343Y-14943400D01*
X42818305Y-14948109D01*
X42805139Y-14951502D01*
X42795721Y-14953022D01*
X42788935Y-14959604D01*
X42785896Y-14964313D01*
X42772731Y-14967706D01*
X42763312Y-14969226D01*
X42756527Y-14975808D01*
X42753488Y-14980518D01*
X42740322Y-14983911D01*
X42730904Y-14985430D01*
X42724118Y-14992013D01*
X42721080Y-14996722D01*
X42707914Y-15000115D01*
X42698496Y-15001634D01*
X42691710Y-15008217D01*
X42688671Y-15012926D01*
X42675506Y-15016319D01*
X42666088Y-15017838D01*
X42659302Y-15024421D01*
X42656263Y-15029130D01*
X42643098Y-15032523D01*
X42633679Y-15034042D01*
X42626893Y-15040625D01*
X42625483Y-15044386D01*
X42614630Y-15048727D01*
X42606491Y-15049751D01*
X42588299Y-15056148D01*
X42581225Y-15059773D01*
X42540645Y-15077927D01*
X42492017Y-15096425D01*
X42439155Y-15114123D01*
X42385872Y-15129878D01*
X42335984Y-15142547D01*
X42293304Y-15150987D01*
X42261646Y-15154054D01*
X42254960Y-15154236D01*
X42237070Y-15157040D01*
X42229892Y-15162156D01*
X42229892Y-15162164D01*
X42222374Y-15166318D01*
X42202270Y-15169188D01*
X42173177Y-15170258D01*
X42173122Y-15170258D01*
X42144041Y-15171332D01*
X42123957Y-15174204D01*
X42116463Y-15178360D01*
X42116187Y-15179019D01*
X42105460Y-15182147D01*
X42080117Y-15184487D01*
X42041481Y-15185954D01*
X41990881Y-15186462D01*
X41980668Y-15186445D01*
X41932183Y-15185753D01*
X41895909Y-15184117D01*
X41873172Y-15181625D01*
X41865298Y-15178360D01*
X41865298Y-15178352D01*
X41857780Y-15174198D01*
X41837677Y-15171329D01*
X41808584Y-15170258D01*
X41808529Y-15170258D01*
X41779448Y-15169184D01*
X41759363Y-15166312D01*
X41751869Y-15162156D01*
X41750650Y-15160019D01*
X41738467Y-15155706D01*
X41717436Y-15153936D01*
X41711720Y-15153826D01*
X41682009Y-15150314D01*
X41648057Y-15141129D01*
X41606721Y-15125260D01*
X41554860Y-15101697D01*
X41524160Y-15085350D01*
X41484181Y-15057015D01*
X41443533Y-15018795D01*
X41432229Y-15006824D01*
X41408580Y-14980219D01*
X41389865Y-14957080D01*
X41379373Y-14941375D01*
X41379285Y-14941198D01*
X41369552Y-14925581D01*
X41361601Y-14919094D01*
X41357692Y-14916064D01*
X41354868Y-14902890D01*
X41353349Y-14893472D01*
X41346766Y-14886686D01*
X41342057Y-14883647D01*
X41338664Y-14870482D01*
X41337144Y-14861063D01*
X41330562Y-14854277D01*
X41325853Y-14851239D01*
X41322460Y-14838073D01*
X41320940Y-14828655D01*
X41314358Y-14821869D01*
X41311439Y-14819135D01*
X41307713Y-14804468D01*
X41306255Y-14781359D01*
X41305709Y-14766766D01*
X41302775Y-14748135D01*
X41298153Y-14740848D01*
X41294229Y-14734546D01*
X41291196Y-14715705D01*
X41290051Y-14688185D01*
X41291021Y-14662674D01*
X41293920Y-14642962D01*
X41298153Y-14635521D01*
X41301072Y-14632788D01*
X41304798Y-14618120D01*
X41306255Y-14595011D01*
X41306802Y-14580419D01*
X41309736Y-14561787D01*
X41314358Y-14554501D01*
X41319067Y-14551462D01*
X41322460Y-14538296D01*
X41323979Y-14528878D01*
X41330562Y-14522092D01*
X41336146Y-14515851D01*
X41338664Y-14499575D01*
X41341787Y-14483380D01*
X41354868Y-14465378D01*
X41364959Y-14454947D01*
X41371072Y-14439283D01*
X41372182Y-14431578D01*
X41378191Y-14424867D01*
X41378299Y-14424865D01*
X41386113Y-14417966D01*
X41394881Y-14401761D01*
X41404995Y-14384561D01*
X41422872Y-14360828D01*
X41444476Y-14336024D01*
X41446400Y-14333967D01*
X41465669Y-14312354D01*
X41479318Y-14295255D01*
X41484501Y-14286211D01*
X41484680Y-14284685D01*
X41492314Y-14279030D01*
X41496952Y-14276684D01*
X41511694Y-14265172D01*
X41533178Y-14246236D01*
X41558554Y-14222316D01*
X41575514Y-14206127D01*
X41598410Y-14185233D01*
X41615415Y-14170914D01*
X41623734Y-14165601D01*
X41626320Y-14164785D01*
X41638887Y-14156206D01*
X41655920Y-14141295D01*
X41662650Y-14135093D01*
X41678753Y-14122145D01*
X41688593Y-14116989D01*
X41698413Y-14112491D01*
X41713226Y-14100785D01*
X41727986Y-14089718D01*
X41741244Y-14084580D01*
X41745409Y-14084008D01*
X41751869Y-14077461D01*
X41751908Y-14077044D01*
X41759469Y-14069154D01*
X41776176Y-14060274D01*
X41777633Y-14059661D01*
X41793819Y-14051232D01*
X41800482Y-14044681D01*
X41804052Y-14040664D01*
X41818721Y-14031114D01*
X41840866Y-14019333D01*
X41857450Y-14010768D01*
X41874655Y-14000585D01*
X41881377Y-13994663D01*
X41882661Y-13992768D01*
X41894237Y-13985061D01*
X41913911Y-13975202D01*
X41922725Y-13970968D01*
X41939614Y-13960914D01*
X41946319Y-13953717D01*
X41947172Y-13951026D01*
X41956945Y-13946845D01*
X41968918Y-13942451D01*
X41984963Y-13930641D01*
X41999481Y-13919538D01*
X42011872Y-13914437D01*
X42020652Y-13911257D01*
X42034492Y-13899874D01*
X42037218Y-13897029D01*
X42054552Y-13881849D01*
X42075952Y-13865824D01*
X42081352Y-13862035D01*
X42102008Y-13846258D01*
X42116463Y-13833348D01*
X42128164Y-13822415D01*
X42147040Y-13807758D01*
X42155824Y-13801189D01*
X42180561Y-13779945D01*
X42212528Y-13750138D01*
X42249372Y-13714163D01*
X42288737Y-13674416D01*
X42328271Y-13633292D01*
X42365619Y-13593186D01*
X42398427Y-13556493D01*
X42424342Y-13525608D01*
X42426053Y-13523473D01*
X42445045Y-13500770D01*
X42462826Y-13480836D01*
X42463382Y-13480240D01*
X42475884Y-13463694D01*
X42481056Y-13450725D01*
X42484700Y-13441336D01*
X42497260Y-13428312D01*
X42507351Y-13417882D01*
X42513464Y-13402218D01*
X42514731Y-13394502D01*
X42521566Y-13387802D01*
X42526276Y-13384764D01*
X42529669Y-13371598D01*
X42531188Y-13362180D01*
X42537771Y-13355394D01*
X42537785Y-13355394D01*
X42541213Y-13363263D01*
X42543983Y-13385601D01*
X42545951Y-13420686D01*
X42546976Y-13466797D01*
X42547169Y-13482505D01*
X42547941Y-13518061D01*
X42549011Y-13544371D01*
X42550266Y-13559113D01*
X42551591Y-13559971D01*
X42555434Y-13548607D01*
X42562640Y-13541741D01*
X42562732Y-13541740D01*
X42567995Y-13534504D01*
X42570179Y-13517435D01*
X42570180Y-13517133D01*
X42572592Y-13500169D01*
X42578281Y-13493129D01*
X42582990Y-13490090D01*
X42586383Y-13476925D01*
X42587902Y-13467507D01*
X42594485Y-13460721D01*
X42599753Y-13455940D01*
X42602587Y-13440944D01*
X42604418Y-13427327D01*
X42610689Y-13416159D01*
X42616294Y-13406035D01*
X42618791Y-13387324D01*
X42620625Y-13370533D01*
X42625067Y-13363496D01*
X42629801Y-13357831D01*
X42635606Y-13338333D01*
X42641384Y-13307395D01*
X42646794Y-13267576D01*
X42651495Y-13221435D01*
X42655146Y-13171535D01*
X42657407Y-13120434D01*
X42657853Y-13091983D01*
X42656936Y-13039189D01*
X42654044Y-12987707D01*
X42649494Y-12940021D01*
X42643604Y-12898611D01*
X42636692Y-12865960D01*
X42629077Y-12844549D01*
X42621076Y-12836861D01*
X42615965Y-12838549D01*
X42610689Y-12849815D01*
X42609253Y-12860736D01*
X42598914Y-12889360D01*
X42580201Y-12925218D01*
X42555015Y-12965383D01*
X42525257Y-13006929D01*
X42492828Y-13046927D01*
X42459628Y-13082450D01*
X42445347Y-13096291D01*
X42423200Y-13117043D01*
X42406963Y-13131323D01*
X42399409Y-13136638D01*
X42398174Y-13136952D01*
X42387265Y-13143830D01*
X42370913Y-13156883D01*
X42367132Y-13160029D01*
X42349581Y-13172203D01*
X42337244Y-13177138D01*
X42333542Y-13177608D01*
X42327117Y-13183852D01*
X42323255Y-13188006D01*
X42307745Y-13197982D01*
X42283701Y-13211357D01*
X42254730Y-13226331D01*
X42224440Y-13241108D01*
X42196439Y-13253889D01*
X42174335Y-13262876D01*
X42161734Y-13266271D01*
X42155481Y-13267300D01*
X42148871Y-13274373D01*
X42148869Y-13274474D01*
X42141631Y-13280128D01*
X42124565Y-13282475D01*
X42124262Y-13282476D01*
X42107299Y-13284888D01*
X42100259Y-13290577D01*
X42100257Y-13290678D01*
X42093019Y-13296332D01*
X42075952Y-13298679D01*
X42075650Y-13298680D01*
X42058687Y-13301093D01*
X42051646Y-13306781D01*
X42051644Y-13306882D01*
X42044406Y-13312537D01*
X42027340Y-13314883D01*
X42027038Y-13314884D01*
X42010074Y-13317297D01*
X42003034Y-13322985D01*
X42003032Y-13323086D01*
X41995794Y-13328741D01*
X41978728Y-13331088D01*
X41978425Y-13331088D01*
X41961462Y-13333501D01*
X41954421Y-13339190D01*
X41954224Y-13340152D01*
X41945095Y-13345224D01*
X41926542Y-13347292D01*
X41924063Y-13347323D01*
X41904429Y-13349915D01*
X41893656Y-13355394D01*
X41886315Y-13360438D01*
X41869350Y-13363496D01*
X41856240Y-13365269D01*
X41845043Y-13371598D01*
X41844595Y-13372201D01*
X41832646Y-13377517D01*
X41812635Y-13379700D01*
X41810582Y-13379722D01*
X41791020Y-13382284D01*
X41780227Y-13387802D01*
X41777514Y-13390000D01*
X41762137Y-13394226D01*
X41739238Y-13395904D01*
X41728775Y-13396256D01*
X41710493Y-13399148D01*
X41703257Y-13404006D01*
X41698093Y-13407665D01*
X41680538Y-13410878D01*
X41654645Y-13412108D01*
X41632691Y-13412969D01*
X41613412Y-13415895D01*
X41606032Y-13420210D01*
X41600869Y-13423869D01*
X41583313Y-13427082D01*
X41557420Y-13428312D01*
X41535466Y-13429173D01*
X41516187Y-13432099D01*
X41508807Y-13436415D01*
X41503644Y-13440073D01*
X41486089Y-13443287D01*
X41460195Y-13444517D01*
X41438241Y-13445377D01*
X41418962Y-13448303D01*
X41411582Y-13452619D01*
X41410756Y-13454435D01*
X41399468Y-13458924D01*
X41379174Y-13460721D01*
X41371909Y-13460927D01*
X41353954Y-13463749D01*
X41346766Y-13468823D01*
X41346521Y-13469886D01*
X41337152Y-13474890D01*
X41318409Y-13476925D01*
X41314687Y-13476995D01*
X41297174Y-13479672D01*
X41290051Y-13485027D01*
X41290049Y-13485128D01*
X41282811Y-13490782D01*
X41265745Y-13493129D01*
X41265443Y-13493130D01*
X41248479Y-13495542D01*
X41241439Y-13501231D01*
X41241437Y-13501332D01*
X41234199Y-13506986D01*
X41217133Y-13509333D01*
X41216830Y-13509334D01*
X41199867Y-13511747D01*
X41192826Y-13517435D01*
X41190004Y-13522052D01*
X41177100Y-13525537D01*
X41167795Y-13526833D01*
X41156367Y-13533639D01*
X41148738Y-13538754D01*
X41131583Y-13541741D01*
X41118724Y-13543700D01*
X41111806Y-13549844D01*
X41108767Y-13554553D01*
X41095602Y-13557946D01*
X41086183Y-13559465D01*
X41079397Y-13566048D01*
X41076359Y-13570757D01*
X41063193Y-13574150D01*
X41053775Y-13575669D01*
X41046989Y-13582252D01*
X41046987Y-13582353D01*
X41039749Y-13588007D01*
X41022683Y-13590354D01*
X41022396Y-13590354D01*
X41005422Y-13592386D01*
X40998377Y-13597182D01*
X40995381Y-13601335D01*
X40981413Y-13611432D01*
X40959892Y-13623514D01*
X40945074Y-13631378D01*
X40926919Y-13642287D01*
X40918706Y-13649094D01*
X40914668Y-13652425D01*
X40900477Y-13655171D01*
X40891703Y-13656597D01*
X40884948Y-13663273D01*
X40882694Y-13667609D01*
X40870532Y-13671375D01*
X40858997Y-13674924D01*
X40844437Y-13687579D01*
X40834322Y-13697727D01*
X40820131Y-13703783D01*
X40809633Y-13707377D01*
X40795825Y-13719987D01*
X40786190Y-13730220D01*
X40774155Y-13736191D01*
X40772668Y-13736391D01*
X40758735Y-13744107D01*
X40736553Y-13761502D01*
X40708213Y-13786483D01*
X40675804Y-13816955D01*
X40641416Y-13850827D01*
X40607137Y-13886004D01*
X40575057Y-13920394D01*
X40547267Y-13951903D01*
X40525854Y-13978439D01*
X40512909Y-13997907D01*
X40512897Y-13997929D01*
X40502805Y-14013351D01*
X40494679Y-14019764D01*
X40491082Y-14022008D01*
X40487946Y-14034179D01*
X40484397Y-14045715D01*
X40471742Y-14060274D01*
X40461594Y-14070389D01*
X40455538Y-14084580D01*
X40451943Y-14095079D01*
X40439334Y-14108887D01*
X40429186Y-14119002D01*
X40423129Y-14133193D01*
X40419535Y-14143691D01*
X40406925Y-14157499D01*
X40396709Y-14167227D01*
X40390721Y-14179674D01*
X40388515Y-14185135D01*
X40376832Y-14200767D01*
X40357756Y-14222169D01*
X40334306Y-14246361D01*
X40309502Y-14270363D01*
X40286364Y-14291197D01*
X40267913Y-14305881D01*
X40257168Y-14311438D01*
X40251455Y-14312374D01*
X40244884Y-14319541D01*
X40242601Y-14321648D01*
X40227080Y-14324839D01*
X40198752Y-14326907D01*
X40159812Y-14327643D01*
X40137688Y-14327425D01*
X40104181Y-14325947D01*
X40082466Y-14323249D01*
X40074740Y-14319541D01*
X40074738Y-14319440D01*
X40067500Y-14313785D01*
X40050434Y-14311438D01*
X40050132Y-14311438D01*
X40033168Y-14309025D01*
X40026128Y-14303336D01*
X40023089Y-14298627D01*
X40009924Y-14295234D01*
X40000505Y-14293715D01*
X39993720Y-14287132D01*
X39991466Y-14282796D01*
X39979304Y-14279030D01*
X39967769Y-14275481D01*
X39953209Y-14262826D01*
X39943358Y-14252631D01*
X39930365Y-14246622D01*
X39927568Y-14246097D01*
X39913404Y-14237701D01*
X39896495Y-14222316D01*
X39891450Y-14217138D01*
X39875559Y-14203485D01*
X39864737Y-14198009D01*
X39864121Y-14197936D01*
X39853319Y-14191258D01*
X39835353Y-14176016D01*
X39813441Y-14155427D01*
X39790798Y-14132707D01*
X39770642Y-14111073D01*
X39756190Y-14093742D01*
X39750657Y-14083930D01*
X39750099Y-14081480D01*
X39741676Y-14068527D01*
X39726351Y-14052172D01*
X39721187Y-14047137D01*
X39707525Y-14031173D01*
X39702045Y-14020225D01*
X39697608Y-14009127D01*
X39685841Y-13993591D01*
X39674774Y-13978831D01*
X39669637Y-13965573D01*
X39668979Y-13961390D01*
X39661535Y-13954947D01*
X39656825Y-13951909D01*
X39653432Y-13938743D01*
X39651913Y-13929325D01*
X39645330Y-13922539D01*
X39640621Y-13919500D01*
X39637228Y-13906335D01*
X39635709Y-13896917D01*
X39629126Y-13890131D01*
X39624417Y-13887092D01*
X39621024Y-13873926D01*
X39619792Y-13864521D01*
X39614434Y-13857722D01*
X39613120Y-13857289D01*
X39605441Y-13847605D01*
X39596649Y-13829190D01*
X39595616Y-13826647D01*
X39583694Y-13803946D01*
X39570831Y-13787424D01*
X39561625Y-13777425D01*
X39556208Y-13766765D01*
X39563237Y-13752107D01*
X39581216Y-13740728D01*
X39604820Y-13736191D01*
X39607249Y-13736135D01*
X39628978Y-13731262D01*
X39646337Y-13720898D01*
X39653432Y-13708413D01*
X39652611Y-13707378D01*
X39641327Y-13704811D01*
X39621024Y-13703783D01*
X39613760Y-13703990D01*
X39595804Y-13706811D01*
X39588616Y-13711885D01*
X39583452Y-13715544D01*
X39565897Y-13718757D01*
X39540003Y-13719987D01*
X39518050Y-13720848D01*
X39498771Y-13723774D01*
X39491391Y-13728089D01*
X39489830Y-13730445D01*
X39476987Y-13734562D01*
X39455410Y-13736191D01*
X39445458Y-13736496D01*
X39424916Y-13739371D01*
X39414421Y-13744293D01*
X39405073Y-13749766D01*
X39386831Y-13752395D01*
X39359738Y-13756997D01*
X39325364Y-13773165D01*
X39295453Y-13797906D01*
X39272774Y-13822066D01*
X39254856Y-13838860D01*
X39241851Y-13847302D01*
X39230978Y-13849620D01*
X39226633Y-13849967D01*
X39204885Y-13855475D01*
X39176252Y-13865879D01*
X39146302Y-13878827D01*
X39120601Y-13891968D01*
X39104718Y-13902951D01*
X39097229Y-13911831D01*
X39096560Y-13920657D01*
X38391820Y-13920657D01*
X38397246Y-13881703D01*
X38423974Y-13794713D01*
X38447578Y-13744906D01*
X38494686Y-13670727D01*
X38556594Y-13594438D01*
X38632651Y-13516637D01*
X38722209Y-13437927D01*
X38824616Y-13358906D01*
X38939223Y-13280175D01*
X39065381Y-13202334D01*
X39113619Y-13174414D01*
X39163422Y-13146466D01*
X39215225Y-13118407D01*
X39272200Y-13088551D01*
X39337516Y-13055211D01*
X39414344Y-13016701D01*
X39444927Y-13001564D01*
X39487147Y-12980851D01*
X39535812Y-12957118D01*
X39589011Y-12931283D01*
X39644835Y-12904265D01*
X39701371Y-12876984D01*
X39756710Y-12850358D01*
X39808941Y-12825307D01*
X39856154Y-12802750D01*
X39896438Y-12783606D01*
X39927882Y-12768793D01*
X39948576Y-12759232D01*
X39956610Y-12755840D01*
X39963475Y-12753103D01*
X39982265Y-12744747D01*
X40009909Y-12732121D01*
X40043379Y-12716592D01*
X40084751Y-12697300D01*
X40131041Y-12675848D01*
X40165115Y-12660268D01*
X40188382Y-12649924D01*
X40202252Y-12644184D01*
X40208133Y-12642411D01*
X40208406Y-12642379D01*
X40218392Y-12638671D01*
X40238645Y-12630007D01*
X40265139Y-12618105D01*
X40267880Y-12616852D01*
X40293943Y-12605190D01*
X40313374Y-12596933D01*
X40322145Y-12593799D01*
X40326322Y-12592592D01*
X40342025Y-12586426D01*
X40364478Y-12576787D01*
X40377831Y-12570910D01*
X40402269Y-12560339D01*
X40419078Y-12553307D01*
X40420726Y-12552645D01*
X40440256Y-12544538D01*
X40463640Y-12534550D01*
X40464467Y-12534193D01*
X40486355Y-12525143D01*
X40522219Y-12510784D01*
X40570957Y-12491553D01*
X40631468Y-12467883D01*
X40702651Y-12440209D01*
X40718787Y-12433817D01*
X40741136Y-12424739D01*
X40748335Y-12421776D01*
X40779496Y-12409171D01*
X40803861Y-12399866D01*
X40828233Y-12391247D01*
X40830176Y-12390578D01*
X40854011Y-12382089D01*
X40872795Y-12374979D01*
X40899840Y-12364367D01*
X40953700Y-12344402D01*
X41006479Y-12326108D01*
X41027470Y-12318987D01*
X41062245Y-12306917D01*
X41102861Y-12292620D01*
X41144214Y-12277885D01*
X41176834Y-12266392D01*
X41238607Y-12245352D01*
X41310334Y-12221585D01*
X41388590Y-12196180D01*
X41469952Y-12170225D01*
X41550993Y-12144811D01*
X41628289Y-12121026D01*
X41698415Y-12099960D01*
X41757946Y-12082701D01*
X41782541Y-12075702D01*
X41810610Y-12067621D01*
X41811906Y-12067245D01*
X41839033Y-12059450D01*
X41867324Y-12051417D01*
X41867910Y-12051252D01*
X41898090Y-12042725D01*
X41928090Y-12034217D01*
X41929220Y-12033896D01*
X41958588Y-12025919D01*
X41986830Y-12018739D01*
X42005074Y-12014289D01*
X42035500Y-12006781D01*
X42067850Y-11998728D01*
X42094368Y-11992104D01*
X42125693Y-11984297D01*
X42148871Y-11978541D01*
X42169362Y-11974028D01*
X42200551Y-11967955D01*
X42233943Y-11962042D01*
X42263762Y-11957036D01*
X42302418Y-11950509D01*
X42334545Y-11945044D01*
X42346077Y-11943449D01*
X42379899Y-11940728D01*
X42423465Y-11938888D01*
X42473069Y-11937920D01*
X42525009Y-11937817D01*
X42575580Y-11938568D01*
X42621079Y-11940165D01*
X42657802Y-11942600D01*
X42682046Y-11945864D01*
X42691899Y-11948017D01*
X42726950Y-11955607D01*
X42760578Y-11962813D01*
X42767365Y-11964325D01*
X42803092Y-11973603D01*
X42844241Y-11985785D01*
X42883740Y-11998694D01*
X42914517Y-12010155D01*
X42928122Y-12015833D01*
X42976377Y-12036380D01*
X43015211Y-12053889D01*
X43049216Y-12070593D01*
X43082988Y-12088722D01*
X43121120Y-12110507D01*
X43199421Y-12158960D01*
X43322855Y-12246412D01*
X43446634Y-12347008D01*
X43569056Y-12459072D01*
X43688423Y-12580926D01*
X43803034Y-12710894D01*
X43911189Y-12847299D01*
X44011189Y-12988464D01*
X44028341Y-13014501D01*
X44045238Y-13040920D01*
X44056723Y-13059813D01*
X44060960Y-13068234D01*
X44061038Y-13068844D01*
X44066286Y-13079504D01*
X44077247Y-13096243D01*
X44092800Y-13120612D01*
X44115918Y-13163014D01*
X44141306Y-13214987D01*
X44167495Y-13273231D01*
X44193013Y-13334450D01*
X44216389Y-13395345D01*
X44236155Y-13452619D01*
X44251496Y-13503171D01*
X44270221Y-13578984D01*
X44282509Y-13653483D01*
X44289209Y-13732349D01*
X44291169Y-13821263D01*
X44291083Y-13839112D01*
X44288978Y-13912449D01*
X44283457Y-13978203D01*
X44273710Y-14041963D01*
X44258927Y-14109317D01*
X44238297Y-14185856D01*
X44218060Y-14250951D01*
X44182782Y-14349171D01*
X44141459Y-14450761D01*
X44096203Y-14550873D01*
X44081408Y-14580348D01*
X44049127Y-14644657D01*
G37*
D11*
X17750000Y-29650000D02*
X17750000Y-27750000D01*
X17750000Y-27750000D02*
X15850000Y-27750000D01*
X15850000Y-29650000D02*
X17750000Y-29650000D01*
X15850000Y-27750000D02*
X15850000Y-29650000D01*
%LPC*%
D12*
X5000000Y-25000000D03*
D13*
X57134214Y-20364562D03*
X57134214Y-9664583D03*
D14*
X49814216Y-7524567D03*
X49814216Y-10524566D03*
X49814216Y-13524565D03*
X49814216Y-16524564D03*
X49814216Y-19524563D03*
X49814216Y-22524562D03*
X52814215Y-22524562D03*
X52814215Y-19524563D03*
X52814215Y-16524564D03*
X52814215Y-13524565D03*
X52814215Y-10524566D03*
D15*
X52814215Y-7524567D03*
D12*
X5000000Y-5000000D03*
D13*
X2680001Y-15000000D03*
D15*
X7000000Y-16500000D03*
D14*
X7000000Y-13500001D03*
X9999999Y-16500000D03*
X9999999Y-13500001D03*
D16*
X16800000Y-28700000D03*
%LPD*%
M02*
