G04 #@! TF.GenerationSoftware,KiCad,Pcbnew,7.0.11-7.0.11~ubuntu22.04.1*
G04 #@! TF.CreationDate,2024-12-11T14:00:36+07:00*
G04 #@! TF.ProjectId,seat_golden,73656174-5f67-46f6-9c64-656e2e6b6963,rev?*
G04 #@! TF.SameCoordinates,Original*
G04 #@! TF.FileFunction,Paste,Top*
G04 #@! TF.FilePolarity,Positive*
%FSLAX46Y46*%
G04 Gerber Fmt 4.6, Leading zero omitted, Abs format (unit mm)*
G04 Created by KiCad (PCBNEW 7.0.11-7.0.11~ubuntu22.04.1) date 2024-12-11 14:00:36*
%MOMM*%
%LPD*%
G01*
G04 APERTURE LIST*
G04 Aperture macros list*
%AMRoundRect*
0 Rectangle with rounded corners*
0 $1 Rounding radius*
0 $2 $3 $4 $5 $6 $7 $8 $9 X,Y pos of 4 corners*
0 Add a 4 corners polygon primitive as box body*
4,1,4,$2,$3,$4,$5,$6,$7,$8,$9,$2,$3,0*
0 Add four circle primitives for the rounded corners*
1,1,$1+$1,$2,$3*
1,1,$1+$1,$4,$5*
1,1,$1+$1,$6,$7*
1,1,$1+$1,$8,$9*
0 Add four rect primitives between the rounded corners*
20,1,$1+$1,$2,$3,$4,$5,0*
20,1,$1+$1,$4,$5,$6,$7,0*
20,1,$1+$1,$6,$7,$8,$9,0*
20,1,$1+$1,$8,$9,$2,$3,0*%
G04 Aperture macros list end*
%ADD10RoundRect,0.250000X0.450000X-0.262500X0.450000X0.262500X-0.450000X0.262500X-0.450000X-0.262500X0*%
%ADD11RoundRect,0.250000X0.262500X0.450000X-0.262500X0.450000X-0.262500X-0.450000X0.262500X-0.450000X0*%
%ADD12RoundRect,0.250000X-0.475000X0.250000X-0.475000X-0.250000X0.475000X-0.250000X0.475000X0.250000X0*%
%ADD13RoundRect,0.250000X0.550000X-1.050000X0.550000X1.050000X-0.550000X1.050000X-0.550000X-1.050000X0*%
%ADD14RoundRect,0.250000X-0.450000X0.262500X-0.450000X-0.262500X0.450000X-0.262500X0.450000X0.262500X0*%
%ADD15RoundRect,0.243750X0.243750X0.456250X-0.243750X0.456250X-0.243750X-0.456250X0.243750X-0.456250X0*%
%ADD16RoundRect,0.135000X-0.135000X-0.185000X0.135000X-0.185000X0.135000X0.185000X-0.135000X0.185000X0*%
%ADD17RoundRect,0.250000X-0.550000X1.050000X-0.550000X-1.050000X0.550000X-1.050000X0.550000X1.050000X0*%
%ADD18RoundRect,0.250000X-1.050000X-0.550000X1.050000X-0.550000X1.050000X0.550000X-1.050000X0.550000X0*%
%ADD19RoundRect,0.250000X0.350000X-0.850000X0.350000X0.850000X-0.350000X0.850000X-0.350000X-0.850000X0*%
%ADD20RoundRect,0.250000X1.125000X-1.275000X1.125000X1.275000X-1.125000X1.275000X-1.125000X-1.275000X0*%
%ADD21RoundRect,0.250000X-0.262500X-0.450000X0.262500X-0.450000X0.262500X0.450000X-0.262500X0.450000X0*%
%ADD22RoundRect,0.250000X1.000000X0.650000X-1.000000X0.650000X-1.000000X-0.650000X1.000000X-0.650000X0*%
%ADD23RoundRect,0.150000X-0.725000X-0.150000X0.725000X-0.150000X0.725000X0.150000X-0.725000X0.150000X0*%
G04 APERTURE END LIST*
D10*
X44864214Y-8264214D03*
X44864214Y-6439214D03*
D11*
X35012500Y-21300000D03*
X33187500Y-21300000D03*
D12*
X23864214Y-1314214D03*
X23864214Y-3214214D03*
D13*
X32614214Y-11614214D03*
X32614214Y-8014214D03*
D14*
X42364214Y-16439214D03*
X42364214Y-18264214D03*
D10*
X16764214Y-7426714D03*
X16764214Y-5601714D03*
D15*
X14001714Y-6814214D03*
X12126714Y-6814214D03*
D10*
X39864214Y-3264214D03*
X39864214Y-1439214D03*
D16*
X46354214Y-14514214D03*
X47374214Y-14514214D03*
D17*
X19314214Y-23200000D03*
X19314214Y-26800000D03*
D10*
X44864214Y-3264214D03*
X44864214Y-1439214D03*
D14*
X42364214Y-21439214D03*
X42364214Y-23264214D03*
D18*
X31314214Y-2814214D03*
X34914214Y-2814214D03*
D10*
X44864214Y-13264214D03*
X44864214Y-11439214D03*
X44864214Y-18264214D03*
X44864214Y-16439214D03*
D19*
X24036714Y-14114214D03*
D20*
X24791714Y-9489214D03*
X27841714Y-9489214D03*
X24791714Y-6139214D03*
X27841714Y-6139214D03*
D19*
X28596714Y-14114214D03*
D14*
X26114214Y-1351714D03*
X26114214Y-3176714D03*
X42364214Y-1439214D03*
X42364214Y-3264214D03*
D16*
X46354214Y-24514214D03*
X47374214Y-24514214D03*
D14*
X42364214Y-11439214D03*
X42364214Y-13264214D03*
D10*
X39864214Y-18264214D03*
X39864214Y-16439214D03*
X39864214Y-23264214D03*
X39864214Y-21439214D03*
D14*
X23164214Y-23339214D03*
X23164214Y-25164214D03*
D21*
X33187500Y-19100000D03*
X35012500Y-19100000D03*
D14*
X42364214Y-26439214D03*
X42364214Y-28264214D03*
D17*
X14264214Y-23200000D03*
X14264214Y-26800000D03*
D10*
X39864214Y-13264214D03*
X39864214Y-11439214D03*
X44864214Y-23264214D03*
X44864214Y-21439214D03*
D14*
X42364214Y-6439214D03*
X42364214Y-8264214D03*
X19414214Y-5551714D03*
X19414214Y-7376714D03*
D22*
X19864214Y-2764214D03*
X15864214Y-2764214D03*
D10*
X39864214Y-8264214D03*
X39864214Y-6439214D03*
D23*
X25539214Y-23359214D03*
X25539214Y-24629214D03*
X25539214Y-25899214D03*
X25539214Y-27169214D03*
X30689214Y-27169214D03*
X30689214Y-25899214D03*
X30689214Y-24629214D03*
X30689214Y-23359214D03*
D10*
X39864214Y-28264214D03*
X39864214Y-26439214D03*
D23*
X25539214Y-17204214D03*
X25539214Y-18474214D03*
X25539214Y-19744214D03*
X25539214Y-21014214D03*
X30689214Y-21014214D03*
X30689214Y-19744214D03*
X30689214Y-18474214D03*
X30689214Y-17204214D03*
D10*
X44864214Y-28264214D03*
X44864214Y-26439214D03*
D16*
X46354214Y-19514214D03*
X47374214Y-19514214D03*
M02*
