G04 #@! TF.GenerationSoftware,KiCad,Pcbnew,7.0.11-7.0.11~ubuntu22.04.1*
G04 #@! TF.CreationDate,2024-12-11T14:00:36+07:00*
G04 #@! TF.ProjectId,seat_golden,73656174-5f67-46f6-9c64-656e2e6b6963,rev?*
G04 #@! TF.SameCoordinates,Original*
G04 #@! TF.FileFunction,Copper,L4,Bot*
G04 #@! TF.FilePolarity,Positive*
%FSLAX46Y46*%
G04 Gerber Fmt 4.6, Leading zero omitted, Abs format (unit mm)*
G04 Created by KiCad (PCBNEW 7.0.11-7.0.11~ubuntu22.04.1) date 2024-12-11 14:00:36*
%MOMM*%
%LPD*%
G01*
G04 APERTURE LIST*
G04 #@! TA.AperFunction,ComponentPad*
%ADD10C,1.520000*%
G04 #@! TD*
G04 #@! TA.AperFunction,ComponentPad*
%ADD11R,1.520000X1.520000*%
G04 #@! TD*
G04 #@! TA.AperFunction,SMDPad,CuDef*
%ADD12R,1.500000X1.500000*%
G04 #@! TD*
G04 #@! TA.AperFunction,ViaPad*
%ADD13C,0.800000*%
G04 #@! TD*
G04 #@! TA.AperFunction,Conductor*
%ADD14C,0.406400*%
G04 #@! TD*
G04 #@! TA.AperFunction,Conductor*
%ADD15C,0.304800*%
G04 #@! TD*
G04 #@! TA.AperFunction,Conductor*
%ADD16C,0.250000*%
G04 #@! TD*
G04 APERTURE END LIST*
D10*
X49814216Y-7524567D03*
X49814216Y-10524566D03*
X49814216Y-13524565D03*
X49814216Y-16524564D03*
X49814216Y-19524563D03*
X49814216Y-22524562D03*
X52814215Y-22524562D03*
X52814215Y-19524563D03*
X52814215Y-16524564D03*
X52814215Y-13524565D03*
X52814215Y-10524566D03*
D11*
X52814215Y-7524567D03*
X7000000Y-16500000D03*
D10*
X7000000Y-13500001D03*
X9999999Y-16500000D03*
X9999999Y-13500001D03*
D12*
X16800000Y-28700000D03*
D13*
X22164214Y-2764214D03*
X28464214Y-2764214D03*
X58364214Y-13514214D03*
X56364214Y-26014214D03*
X6000000Y-20000000D03*
X6000000Y-12000000D03*
X26364214Y-14014214D03*
X22000000Y-29014214D03*
X8000000Y-22000000D03*
X41000000Y-5000000D03*
X14300000Y-29000000D03*
X17564214Y-22414214D03*
X29364214Y-1014214D03*
X58364214Y-6514214D03*
X11864214Y-24014214D03*
X41714214Y-19564214D03*
X20500000Y-29014214D03*
X56364214Y-13514214D03*
X58364214Y-4514214D03*
X10000000Y-24000000D03*
X8000000Y-18000000D03*
X56364214Y-6514214D03*
X58364214Y-24014214D03*
X2000000Y-28000000D03*
X26314214Y-12114214D03*
X27000000Y-29014214D03*
X58364214Y-15514214D03*
X41714214Y-9564214D03*
X2000000Y-18000000D03*
X8000000Y-1000000D03*
X49364214Y-24514214D03*
X2000000Y-10000000D03*
X20914214Y-5564214D03*
X4000000Y-18000000D03*
X11864214Y-20014214D03*
X2000000Y-8000000D03*
X56364214Y-15514214D03*
X58364214Y-17514214D03*
X30864214Y-6014214D03*
X4000000Y-10000000D03*
X2000000Y-1000000D03*
X4000000Y-1000000D03*
X4000000Y-12000000D03*
X2000000Y-20000000D03*
X56364214Y-24014214D03*
X6000000Y-18000000D03*
X11864214Y-22014214D03*
X41714214Y-14564214D03*
X33664214Y-6014214D03*
X32514214Y-27164214D03*
X51364214Y-24514214D03*
X8000000Y-12000000D03*
X10000000Y-26000000D03*
X56364214Y-4514214D03*
X6000000Y-1000000D03*
X23464214Y-19814214D03*
X10000000Y-20000000D03*
X8000000Y-20000000D03*
X58364214Y-26014214D03*
X34914214Y-1114214D03*
X41714214Y-24564214D03*
X2000000Y-12000000D03*
X11864214Y-26014214D03*
X10000000Y-22000000D03*
X21364214Y-17014214D03*
X19000000Y-29014214D03*
X11864214Y-18014214D03*
X8000000Y-10000000D03*
X56364214Y-17514214D03*
X38000000Y-5000000D03*
X11864214Y-10214214D03*
X30864214Y-9014214D03*
X4000000Y-20000000D03*
X2000000Y-22000000D03*
X6000000Y-10000000D03*
X32000000Y-1000000D03*
X27064214Y-25914214D03*
X11864214Y-12014214D03*
X28864214Y-23364214D03*
X46314214Y-13264214D03*
X46314214Y-8264214D03*
X46314214Y-3264214D03*
X28864214Y-17264214D03*
X46314214Y-23264214D03*
X46314214Y-18264214D03*
X46314214Y-28264214D03*
X10100000Y-10700000D03*
X48500000Y-2900000D03*
X41100000Y-1400000D03*
X46314214Y-7264214D03*
X46314214Y-6014214D03*
X46314214Y-12264214D03*
X46314214Y-11014214D03*
X32464214Y-24264214D03*
X33200000Y-17400000D03*
X46314214Y-17264214D03*
X46314214Y-22264214D03*
X46314214Y-27264214D03*
X46314214Y-16014214D03*
X46314214Y-21014214D03*
X46314214Y-26014214D03*
X8600000Y-8600000D03*
D14*
X22164214Y-2764214D02*
X28464214Y-2764214D01*
D15*
X46914214Y-4414214D02*
X46664214Y-4664214D01*
X45114214Y-27814214D02*
X45114214Y-23264214D01*
X46314214Y-13264214D02*
X45164214Y-13264214D01*
X45114214Y-5164214D02*
X45114214Y-8264214D01*
X45164214Y-13264214D02*
X45114214Y-13314214D01*
X45114214Y-23264214D02*
X45114214Y-22664214D01*
X45564214Y-28264214D02*
X46314214Y-28264214D01*
X46314214Y-3264214D02*
X46664214Y-3264214D01*
X28864214Y-23364214D02*
X28864214Y-17264214D01*
X46314214Y-18264214D02*
X45164214Y-18264214D01*
X46914214Y-3514214D02*
X46914214Y-4414214D01*
X45114214Y-13314214D02*
X45114214Y-18314214D01*
X46664214Y-3264214D02*
X46914214Y-3514214D01*
X46314214Y-23264214D02*
X45114214Y-23264214D01*
X29664214Y-3264214D02*
X46314214Y-3264214D01*
X45114214Y-8264214D02*
X45114214Y-13314214D01*
X28864214Y-4064214D02*
X29664214Y-3264214D01*
X28864214Y-17264214D02*
X28864214Y-4064214D01*
X45164214Y-18264214D02*
X45114214Y-18314214D01*
X46314214Y-8264214D02*
X45114214Y-8264214D01*
X45114214Y-18314214D02*
X45114214Y-22664214D01*
X46664214Y-4664214D02*
X45614214Y-4664214D01*
X45114214Y-27814214D02*
X45564214Y-28264214D01*
X45614214Y-4664214D02*
X45114214Y-5164214D01*
D14*
X10100000Y-10700000D02*
X10100000Y-13400000D01*
X10100000Y-13400000D02*
X9999999Y-13500001D01*
D16*
X49414216Y-2900000D02*
X48500000Y-2900000D01*
X49414216Y-2900000D02*
X49814216Y-3300000D01*
X49814216Y-3300000D02*
X49814216Y-7524567D01*
X44800000Y-1400000D02*
X41100000Y-1400000D01*
X45400000Y-2000000D02*
X44800000Y-1400000D01*
X51064214Y-2364214D02*
X50700000Y-2000000D01*
X51364214Y-4014214D02*
X51064214Y-3714214D01*
X52814215Y-4314215D02*
X52514214Y-4014214D01*
X52514214Y-4014214D02*
X51364214Y-4014214D01*
X50700000Y-2000000D02*
X45400000Y-2000000D01*
X51064214Y-3714214D02*
X51064214Y-2364214D01*
X52814215Y-7524567D02*
X52814215Y-4314215D01*
X46314214Y-7264214D02*
X47414214Y-7264214D01*
X47414214Y-7264214D02*
X47864214Y-7714214D01*
X47864214Y-10264214D02*
X48124566Y-10524566D01*
X48124566Y-10524566D02*
X49814216Y-10524566D01*
X47864214Y-7714214D02*
X47864214Y-10264214D01*
X48764214Y-9014214D02*
X51303863Y-9014214D01*
X51303863Y-9014214D02*
X52814215Y-10524566D01*
X48414214Y-6314214D02*
X48414214Y-8664214D01*
X48414214Y-8664214D02*
X48764214Y-9014214D01*
X46314214Y-6014214D02*
X48114214Y-6014214D01*
X48114214Y-6014214D02*
X48414214Y-6314214D01*
X48074565Y-13524565D02*
X49814216Y-13524565D01*
X47414214Y-12264214D02*
X47664214Y-12514214D01*
X47664214Y-12514214D02*
X47664214Y-13114214D01*
X47664214Y-13114214D02*
X48074565Y-13524565D01*
X46314214Y-12264214D02*
X47414214Y-12264214D01*
X48164214Y-11864214D02*
X48464214Y-12164214D01*
X48164214Y-11264214D02*
X48164214Y-11864214D01*
X47914214Y-11014214D02*
X48164214Y-11264214D01*
X51453864Y-12164214D02*
X52814215Y-13524565D01*
X48464214Y-12164214D02*
X51453864Y-12164214D01*
X46314214Y-11014214D02*
X47914214Y-11014214D01*
X33200000Y-17400000D02*
X33201714Y-17401714D01*
X33201714Y-21998286D02*
X32464214Y-22735786D01*
X32464214Y-22735786D02*
X32464214Y-24264214D01*
X33201714Y-17401714D02*
X33201714Y-21998286D01*
X47314214Y-17264214D02*
X48053864Y-16524564D01*
X46314214Y-17264214D02*
X47314214Y-17264214D01*
X48053864Y-16524564D02*
X49814216Y-16524564D01*
X48553865Y-19524563D02*
X49814216Y-19524563D01*
X48364214Y-21964214D02*
X48364214Y-19714214D01*
X48064214Y-22264214D02*
X48364214Y-21964214D01*
X48364214Y-19714214D02*
X48553865Y-19524563D01*
X46314214Y-22264214D02*
X48064214Y-22264214D01*
X55114214Y-21264214D02*
X54864214Y-21014214D01*
X54414214Y-25900000D02*
X55114214Y-25200000D01*
X47800000Y-26900000D02*
X47800000Y-26200000D01*
X48100000Y-25900000D02*
X54414214Y-25900000D01*
X49814216Y-21514212D02*
X49814216Y-22524562D01*
X54864214Y-21014214D02*
X50314214Y-21014214D01*
X50314214Y-21014214D02*
X49814216Y-21514212D01*
X55114214Y-25200000D02*
X55114214Y-21264214D01*
X46314214Y-27264214D02*
X47435786Y-27264214D01*
X47435786Y-27264214D02*
X47800000Y-26900000D01*
X47800000Y-26200000D02*
X48100000Y-25900000D01*
X48164214Y-15014214D02*
X47164214Y-16014214D01*
X51264214Y-15014214D02*
X51303865Y-15014214D01*
X47164214Y-16014214D02*
X46314214Y-16014214D01*
X51264214Y-15014214D02*
X48164214Y-15014214D01*
X51303865Y-15014214D02*
X52814215Y-16524564D01*
X47514214Y-21014214D02*
X47714214Y-20814214D01*
X52814215Y-18564215D02*
X52814215Y-19524563D01*
X47714214Y-20814214D02*
X47714214Y-18364214D01*
X47714214Y-18364214D02*
X48064214Y-18014214D01*
X52264214Y-18014214D02*
X52814215Y-18564215D01*
X46314214Y-21014214D02*
X47514214Y-21014214D01*
X48064214Y-18014214D02*
X52264214Y-18014214D01*
X52814215Y-22524562D02*
X52814215Y-24800000D01*
X47600000Y-25300000D02*
X46885786Y-26014214D01*
X46885786Y-26014214D02*
X46314214Y-26014214D01*
X52814215Y-24800000D02*
X52314215Y-25300000D01*
X52314215Y-25300000D02*
X47600000Y-25300000D01*
X12800000Y-16100000D02*
X12400000Y-16500000D01*
X8600000Y-8600000D02*
X8600000Y-9000000D01*
X12800000Y-9600000D02*
X12800000Y-16100000D01*
X12400000Y-16500000D02*
X9999999Y-16500000D01*
X8900000Y-9300000D02*
X12500000Y-9300000D01*
X8600000Y-9000000D02*
X8900000Y-9300000D01*
X12500000Y-9300000D02*
X12800000Y-9600000D01*
G04 #@! TA.AperFunction,Conductor*
G36*
X8870706Y-16867D02*
G01*
X8901091Y-20709D01*
X8908492Y-22596D01*
X8968590Y-58231D01*
X8999883Y-120701D01*
X9000332Y-123354D01*
X9036446Y-351368D01*
X9109433Y-575996D01*
X9182080Y-718572D01*
X9216657Y-786433D01*
X9355483Y-977510D01*
X9522490Y-1144517D01*
X9713567Y-1283343D01*
X9779833Y-1317107D01*
X9924003Y-1390566D01*
X9924005Y-1390566D01*
X9924008Y-1390568D01*
X9980188Y-1408822D01*
X10148631Y-1463553D01*
X10381903Y-1500500D01*
X10381908Y-1500500D01*
X10618097Y-1500500D01*
X10851368Y-1463553D01*
X10860875Y-1460464D01*
X11075992Y-1390568D01*
X11286433Y-1283343D01*
X11477510Y-1144517D01*
X11644517Y-977510D01*
X11783343Y-786433D01*
X11890568Y-575992D01*
X11963553Y-351368D01*
X11993815Y-160301D01*
X11998806Y-128789D01*
X12028735Y-65654D01*
X12088047Y-28723D01*
X12091028Y-27934D01*
X12095520Y-26804D01*
X12126003Y-23057D01*
X45888945Y-87259D01*
X45955947Y-107071D01*
X46001601Y-159962D01*
X46011182Y-191860D01*
X46036446Y-351365D01*
X46036447Y-351368D01*
X46109432Y-575992D01*
X46216657Y-786433D01*
X46355483Y-977510D01*
X46522490Y-1144517D01*
X46530289Y-1150183D01*
X46572953Y-1205513D01*
X46578932Y-1275126D01*
X46546326Y-1336921D01*
X46485487Y-1371278D01*
X46457402Y-1374500D01*
X45710453Y-1374500D01*
X45643414Y-1354815D01*
X45622772Y-1338181D01*
X45300803Y-1016212D01*
X45290980Y-1003950D01*
X45290759Y-1004134D01*
X45285786Y-998122D01*
X45236776Y-952099D01*
X45233977Y-949386D01*
X45214477Y-929885D01*
X45214471Y-929880D01*
X45211286Y-927409D01*
X45202434Y-919848D01*
X45170582Y-889938D01*
X45170580Y-889936D01*
X45170577Y-889935D01*
X45153029Y-880288D01*
X45136763Y-869604D01*
X45120932Y-857324D01*
X45080849Y-839978D01*
X45070363Y-834841D01*
X45032094Y-813803D01*
X45032092Y-813802D01*
X45012693Y-808822D01*
X44994281Y-802518D01*
X44975898Y-794562D01*
X44975892Y-794560D01*
X44932760Y-787729D01*
X44921322Y-785361D01*
X44879020Y-774500D01*
X44879019Y-774500D01*
X44858984Y-774500D01*
X44839586Y-772973D01*
X44832162Y-771797D01*
X44819805Y-769840D01*
X44819804Y-769840D01*
X44776325Y-773950D01*
X44764656Y-774500D01*
X41803748Y-774500D01*
X41736709Y-754815D01*
X41711600Y-733474D01*
X41705873Y-727114D01*
X41705869Y-727110D01*
X41552734Y-615851D01*
X41552729Y-615848D01*
X41379807Y-538857D01*
X41379802Y-538855D01*
X41234001Y-507865D01*
X41194646Y-499500D01*
X41005354Y-499500D01*
X40972897Y-506398D01*
X40820197Y-538855D01*
X40820192Y-538857D01*
X40647270Y-615848D01*
X40647265Y-615851D01*
X40494129Y-727111D01*
X40367466Y-867785D01*
X40272821Y-1031715D01*
X40272818Y-1031722D01*
X40214327Y-1211740D01*
X40214326Y-1211744D01*
X40194540Y-1400000D01*
X40214326Y-1588256D01*
X40214327Y-1588259D01*
X40272818Y-1768277D01*
X40272821Y-1768284D01*
X40367467Y-1932216D01*
X40482987Y-2060514D01*
X40494129Y-2072888D01*
X40647265Y-2184148D01*
X40647270Y-2184151D01*
X40820192Y-2261142D01*
X40820197Y-2261144D01*
X41005354Y-2300500D01*
X41005355Y-2300500D01*
X41194644Y-2300500D01*
X41194646Y-2300500D01*
X41379803Y-2261144D01*
X41552730Y-2184151D01*
X41705871Y-2072888D01*
X41708788Y-2069647D01*
X41711600Y-2066526D01*
X41771087Y-2029879D01*
X41803748Y-2025500D01*
X44489548Y-2025500D01*
X44556587Y-2045185D01*
X44577228Y-2061818D01*
X44742707Y-2227298D01*
X44899197Y-2383788D01*
X44909022Y-2396051D01*
X44909243Y-2395869D01*
X44919188Y-2407891D01*
X44916626Y-2410010D01*
X44944331Y-2457161D01*
X44941539Y-2526974D01*
X44901447Y-2584196D01*
X44836782Y-2610659D01*
X44824053Y-2611314D01*
X29749982Y-2611314D01*
X29733934Y-2609542D01*
X29733912Y-2609780D01*
X29726145Y-2609045D01*
X29655909Y-2611253D01*
X29652015Y-2611314D01*
X29623137Y-2611314D01*
X29618724Y-2611871D01*
X29607094Y-2612786D01*
X29561265Y-2614226D01*
X29561264Y-2614227D01*
X29540766Y-2620181D01*
X29521728Y-2624123D01*
X29500563Y-2626798D01*
X29500556Y-2626799D01*
X29500554Y-2626800D01*
X29500551Y-2626800D01*
X29493001Y-2628740D01*
X29492389Y-2626360D01*
X29434868Y-2631620D01*
X29372894Y-2599354D01*
X29340893Y-2548274D01*
X29291395Y-2395936D01*
X29291394Y-2395935D01*
X29291393Y-2395930D01*
X29196747Y-2231998D01*
X29070085Y-2091326D01*
X29053267Y-2079107D01*
X28916948Y-1980065D01*
X28916943Y-1980062D01*
X28744021Y-1903071D01*
X28744016Y-1903069D01*
X28598215Y-1872079D01*
X28558860Y-1863714D01*
X28369568Y-1863714D01*
X28337111Y-1870612D01*
X28184411Y-1903069D01*
X28184406Y-1903071D01*
X28011484Y-1980062D01*
X28011479Y-1980065D01*
X27933347Y-2036832D01*
X27867541Y-2060312D01*
X27860462Y-2060514D01*
X22767966Y-2060514D01*
X22700927Y-2040829D01*
X22695081Y-2036832D01*
X22616948Y-1980065D01*
X22616943Y-1980062D01*
X22444021Y-1903071D01*
X22444016Y-1903069D01*
X22298215Y-1872079D01*
X22258860Y-1863714D01*
X22069568Y-1863714D01*
X22037111Y-1870612D01*
X21884411Y-1903069D01*
X21884406Y-1903071D01*
X21711484Y-1980062D01*
X21711479Y-1980065D01*
X21558343Y-2091325D01*
X21431680Y-2231999D01*
X21337035Y-2395929D01*
X21337032Y-2395936D01*
X21293481Y-2529974D01*
X21278540Y-2575958D01*
X21258754Y-2764214D01*
X21278540Y-2952470D01*
X21278541Y-2952473D01*
X21337032Y-3132491D01*
X21337035Y-3132498D01*
X21431681Y-3296430D01*
X21543493Y-3420609D01*
X21558343Y-3437102D01*
X21711479Y-3548362D01*
X21711484Y-3548365D01*
X21884406Y-3625356D01*
X21884411Y-3625358D01*
X22069568Y-3664714D01*
X22069569Y-3664714D01*
X22258858Y-3664714D01*
X22258860Y-3664714D01*
X22444017Y-3625358D01*
X22616944Y-3548365D01*
X22648415Y-3525500D01*
X22695081Y-3491596D01*
X22760887Y-3468116D01*
X22767966Y-3467914D01*
X27860462Y-3467914D01*
X27927501Y-3487599D01*
X27933347Y-3491596D01*
X28011479Y-3548362D01*
X28011484Y-3548365D01*
X28184406Y-3625356D01*
X28184407Y-3625356D01*
X28184411Y-3625358D01*
X28184414Y-3625358D01*
X28190588Y-3627365D01*
X28189701Y-3630093D01*
X28240150Y-3657317D01*
X28273938Y-3718474D01*
X28269299Y-3788189D01*
X28261568Y-3805165D01*
X28252336Y-3821957D01*
X28247028Y-3842630D01*
X28240729Y-3861026D01*
X28232256Y-3880606D01*
X28232254Y-3880614D01*
X28225083Y-3925892D01*
X28222714Y-3937330D01*
X28211314Y-3981726D01*
X28211314Y-4003075D01*
X28209787Y-4022472D01*
X28206450Y-4043543D01*
X28207818Y-4058010D01*
X28210764Y-4089180D01*
X28211314Y-4100849D01*
X28211314Y-16595956D01*
X28191629Y-16662995D01*
X28179464Y-16678928D01*
X28131684Y-16731992D01*
X28131679Y-16731999D01*
X28037035Y-16895929D01*
X28037032Y-16895936D01*
X27986166Y-17052488D01*
X27978540Y-17075958D01*
X27958754Y-17264214D01*
X27978540Y-17452470D01*
X27978541Y-17452473D01*
X28037032Y-17632491D01*
X28037035Y-17632498D01*
X28131681Y-17796430D01*
X28151737Y-17818704D01*
X28179464Y-17849498D01*
X28209694Y-17912489D01*
X28211314Y-17932470D01*
X28211314Y-22695956D01*
X28191629Y-22762995D01*
X28179464Y-22778928D01*
X28131684Y-22831992D01*
X28131679Y-22831999D01*
X28037035Y-22995929D01*
X28037032Y-22995936D01*
X27984628Y-23157220D01*
X27978540Y-23175958D01*
X27958754Y-23364214D01*
X27978540Y-23552470D01*
X27978541Y-23552473D01*
X28037032Y-23732491D01*
X28037035Y-23732498D01*
X28131681Y-23896430D01*
X28206749Y-23979801D01*
X28258343Y-24037102D01*
X28411479Y-24148362D01*
X28411484Y-24148365D01*
X28584406Y-24225356D01*
X28584411Y-24225358D01*
X28769568Y-24264714D01*
X28769569Y-24264714D01*
X28958858Y-24264714D01*
X28958860Y-24264714D01*
X28961212Y-24264214D01*
X31558754Y-24264214D01*
X31578540Y-24452470D01*
X31578541Y-24452473D01*
X31637032Y-24632491D01*
X31637035Y-24632498D01*
X31731681Y-24796430D01*
X31815524Y-24889547D01*
X31858343Y-24937102D01*
X32011479Y-25048362D01*
X32011484Y-25048365D01*
X32184406Y-25125356D01*
X32184411Y-25125358D01*
X32369568Y-25164714D01*
X32369569Y-25164714D01*
X32558858Y-25164714D01*
X32558860Y-25164714D01*
X32744017Y-25125358D01*
X32916944Y-25048365D01*
X33070085Y-24937102D01*
X33196747Y-24796430D01*
X33291393Y-24632498D01*
X33349888Y-24452470D01*
X33369674Y-24264214D01*
X33349888Y-24075958D01*
X33294509Y-23905520D01*
X33291395Y-23895936D01*
X33291394Y-23895935D01*
X33291393Y-23895930D01*
X33196747Y-23731998D01*
X33180155Y-23713571D01*
X33121564Y-23648498D01*
X33091334Y-23585506D01*
X33089714Y-23565526D01*
X33089714Y-23046237D01*
X33109399Y-22979198D01*
X33126029Y-22958560D01*
X33585500Y-22499088D01*
X33597762Y-22489266D01*
X33597579Y-22489045D01*
X33603582Y-22484077D01*
X33603591Y-22484072D01*
X33649648Y-22435025D01*
X33652296Y-22432292D01*
X33671834Y-22412756D01*
X33674284Y-22409596D01*
X33681868Y-22400715D01*
X33711776Y-22368868D01*
X33717324Y-22358775D01*
X33721428Y-22351312D01*
X33732110Y-22335050D01*
X33733424Y-22333356D01*
X33744388Y-22319222D01*
X33761744Y-22279111D01*
X33766875Y-22268640D01*
X33787908Y-22230384D01*
X33787908Y-22230383D01*
X33787911Y-22230378D01*
X33792894Y-22210966D01*
X33799191Y-22192577D01*
X33807152Y-22174181D01*
X33813984Y-22131034D01*
X33816353Y-22119602D01*
X33827213Y-22077308D01*
X33827214Y-22077303D01*
X33827214Y-22057269D01*
X33828741Y-22037868D01*
X33831874Y-22018090D01*
X33827764Y-21974610D01*
X33827214Y-21962941D01*
X33827214Y-18096783D01*
X33846899Y-18029744D01*
X33859064Y-18013811D01*
X33932533Y-17932216D01*
X34027179Y-17768284D01*
X34085674Y-17588256D01*
X34105460Y-17400000D01*
X34085674Y-17211744D01*
X34027179Y-17031716D01*
X33932533Y-16867784D01*
X33805871Y-16727112D01*
X33805870Y-16727111D01*
X33652734Y-16615851D01*
X33652729Y-16615848D01*
X33479807Y-16538857D01*
X33479802Y-16538855D01*
X33334001Y-16507865D01*
X33294646Y-16499500D01*
X33105354Y-16499500D01*
X33091645Y-16502414D01*
X32920197Y-16538855D01*
X32920192Y-16538857D01*
X32747270Y-16615848D01*
X32747265Y-16615851D01*
X32594129Y-16727111D01*
X32467466Y-16867785D01*
X32372821Y-17031715D01*
X32372818Y-17031722D01*
X32332041Y-17157222D01*
X32314326Y-17211744D01*
X32294540Y-17400000D01*
X32314326Y-17588256D01*
X32314327Y-17588259D01*
X32372818Y-17768277D01*
X32372821Y-17768284D01*
X32467464Y-17932212D01*
X32467465Y-17932214D01*
X32467467Y-17932216D01*
X32544365Y-18017619D01*
X32574594Y-18080609D01*
X32576214Y-18100590D01*
X32576214Y-21687832D01*
X32556529Y-21754871D01*
X32539895Y-21775513D01*
X32080422Y-22234985D01*
X32068165Y-22244806D01*
X32068348Y-22245027D01*
X32062336Y-22250000D01*
X32016312Y-22299009D01*
X32013605Y-22301802D01*
X31994103Y-22321303D01*
X31994089Y-22321320D01*
X31991621Y-22324501D01*
X31984057Y-22333356D01*
X31954151Y-22365204D01*
X31954150Y-22365206D01*
X31944498Y-22382762D01*
X31933824Y-22399012D01*
X31921543Y-22414847D01*
X31921538Y-22414854D01*
X31904189Y-22454944D01*
X31899052Y-22465430D01*
X31878017Y-22503692D01*
X31873036Y-22523093D01*
X31866735Y-22541496D01*
X31858776Y-22559888D01*
X31858775Y-22559891D01*
X31851942Y-22603029D01*
X31849574Y-22614460D01*
X31838715Y-22656757D01*
X31838714Y-22656768D01*
X31838714Y-22676802D01*
X31837187Y-22696201D01*
X31834054Y-22715980D01*
X31834054Y-22715981D01*
X31838164Y-22759460D01*
X31838714Y-22771129D01*
X31838714Y-23565526D01*
X31819029Y-23632565D01*
X31806864Y-23648498D01*
X31731680Y-23731998D01*
X31637035Y-23895929D01*
X31637032Y-23895936D01*
X31578996Y-24074554D01*
X31578540Y-24075958D01*
X31558754Y-24264214D01*
X28961212Y-24264214D01*
X29144017Y-24225358D01*
X29316944Y-24148365D01*
X29470085Y-24037102D01*
X29596747Y-23896430D01*
X29691393Y-23732498D01*
X29749888Y-23552470D01*
X29769674Y-23364214D01*
X29749888Y-23175958D01*
X29691393Y-22995930D01*
X29629356Y-22888478D01*
X29596748Y-22831999D01*
X29596743Y-22831992D01*
X29548964Y-22778928D01*
X29518734Y-22715936D01*
X29517114Y-22695956D01*
X29517114Y-17932470D01*
X29536799Y-17865431D01*
X29548964Y-17849498D01*
X29596747Y-17796430D01*
X29691393Y-17632498D01*
X29749888Y-17452470D01*
X29769674Y-17264214D01*
X29749888Y-17075958D01*
X29691393Y-16895930D01*
X29603843Y-16744288D01*
X29596748Y-16731999D01*
X29596743Y-16731992D01*
X29548964Y-16678928D01*
X29518734Y-16615936D01*
X29517114Y-16595956D01*
X29517114Y-4386016D01*
X29536799Y-4318977D01*
X29553433Y-4298335D01*
X29898336Y-3953433D01*
X29959659Y-3919948D01*
X29986017Y-3917114D01*
X45141617Y-3917114D01*
X45208656Y-3936799D01*
X45254411Y-3989603D01*
X45264355Y-4058761D01*
X45235330Y-4122317D01*
X45216155Y-4138323D01*
X45217025Y-4139444D01*
X45210864Y-4144221D01*
X45195774Y-4159312D01*
X45180986Y-4171943D01*
X45163722Y-4184487D01*
X45163717Y-4184491D01*
X45134498Y-4219810D01*
X45126638Y-4228448D01*
X44713190Y-4641896D01*
X44700592Y-4651990D01*
X44700744Y-4652174D01*
X44694732Y-4657147D01*
X44646620Y-4708380D01*
X44643915Y-4711171D01*
X44623501Y-4731585D01*
X44623498Y-4731589D01*
X44620772Y-4735104D01*
X44613193Y-4743977D01*
X44581810Y-4777396D01*
X44581808Y-4777400D01*
X44571527Y-4796099D01*
X44560852Y-4812350D01*
X44547771Y-4829215D01*
X44547766Y-4829223D01*
X44529559Y-4871295D01*
X44524423Y-4881778D01*
X44502337Y-4921954D01*
X44502337Y-4921955D01*
X44497028Y-4942630D01*
X44490729Y-4961026D01*
X44482256Y-4980606D01*
X44482254Y-4980614D01*
X44475083Y-5025892D01*
X44472714Y-5037330D01*
X44461314Y-5081726D01*
X44461314Y-5103075D01*
X44459787Y-5122472D01*
X44456450Y-5143543D01*
X44459617Y-5177044D01*
X44460764Y-5189180D01*
X44461314Y-5200849D01*
X44461314Y-8190776D01*
X44459118Y-8214010D01*
X44457424Y-8222888D01*
X44457424Y-8222892D01*
X44461069Y-8280827D01*
X44461314Y-8288613D01*
X44461314Y-13253075D01*
X44459787Y-13272474D01*
X44456450Y-13293541D01*
X44456450Y-13293542D01*
X44460764Y-13339180D01*
X44461314Y-13350849D01*
X44461314Y-18253075D01*
X44459787Y-18272474D01*
X44456450Y-18293541D01*
X44456450Y-18293542D01*
X44460764Y-18339180D01*
X44461314Y-18350849D01*
X44461314Y-23190776D01*
X44459118Y-23214010D01*
X44457424Y-23222888D01*
X44457424Y-23222892D01*
X44461069Y-23280827D01*
X44461314Y-23288613D01*
X44461314Y-27728446D01*
X44459542Y-27744493D01*
X44459780Y-27744516D01*
X44459046Y-27752281D01*
X44459046Y-27752283D01*
X44460264Y-27791031D01*
X44461253Y-27822517D01*
X44461314Y-27826412D01*
X44461314Y-27855289D01*
X44461871Y-27859702D01*
X44462786Y-27871334D01*
X44464226Y-27917159D01*
X44464227Y-27917165D01*
X44470179Y-27937652D01*
X44474124Y-27956697D01*
X44476799Y-27977871D01*
X44476802Y-27977883D01*
X44493676Y-28020503D01*
X44497459Y-28031551D01*
X44510247Y-28075569D01*
X44510249Y-28075574D01*
X44521114Y-28093945D01*
X44529672Y-28111415D01*
X44537525Y-28131249D01*
X44537529Y-28131255D01*
X44564470Y-28168337D01*
X44570883Y-28178099D01*
X44594223Y-28217564D01*
X44609308Y-28232648D01*
X44621945Y-28247444D01*
X44626236Y-28253350D01*
X44634488Y-28264708D01*
X44669815Y-28293933D01*
X44678455Y-28301795D01*
X45041895Y-28665235D01*
X45051993Y-28677839D01*
X45052177Y-28677688D01*
X45057144Y-28683693D01*
X45108377Y-28731803D01*
X45111175Y-28734515D01*
X45131588Y-28754928D01*
X45135100Y-28757652D01*
X45143979Y-28765236D01*
X45177399Y-28796619D01*
X45177403Y-28796622D01*
X45196089Y-28806894D01*
X45212356Y-28817579D01*
X45225562Y-28827822D01*
X45229219Y-28830659D01*
X45248853Y-28839155D01*
X45271292Y-28848866D01*
X45281782Y-28854005D01*
X45313523Y-28871454D01*
X45321955Y-28876090D01*
X45341650Y-28881146D01*
X45342625Y-28881397D01*
X45361026Y-28887696D01*
X45380613Y-28896173D01*
X45425900Y-28903344D01*
X45437326Y-28905711D01*
X45481734Y-28917114D01*
X45503075Y-28917114D01*
X45522472Y-28918640D01*
X45543543Y-28921978D01*
X45589181Y-28917663D01*
X45600849Y-28917114D01*
X45640542Y-28917114D01*
X45707581Y-28936799D01*
X45713427Y-28940796D01*
X45861479Y-29048362D01*
X45861484Y-29048365D01*
X46034406Y-29125356D01*
X46034407Y-29125356D01*
X46034411Y-29125358D01*
X46069480Y-29132812D01*
X46081330Y-29135331D01*
X46142812Y-29168523D01*
X46176589Y-29229686D01*
X46171937Y-29299400D01*
X46166035Y-29312915D01*
X46109434Y-29424000D01*
X46036446Y-29648631D01*
X45998737Y-29886720D01*
X45997718Y-29886558D01*
X45974614Y-29947170D01*
X45918381Y-29988638D01*
X45906330Y-29992351D01*
X45893092Y-29995704D01*
X45862646Y-29999500D01*
X12137354Y-29999500D01*
X12106910Y-29995705D01*
X12093671Y-29992352D01*
X12033516Y-29956810D01*
X12002126Y-29894389D01*
X12000510Y-29881971D01*
X11963553Y-29648631D01*
X11890566Y-29424003D01*
X11827077Y-29299400D01*
X11783343Y-29213567D01*
X11644517Y-29022490D01*
X11477510Y-28855483D01*
X11286433Y-28716657D01*
X11075996Y-28609433D01*
X10851368Y-28536446D01*
X10618097Y-28499500D01*
X10618092Y-28499500D01*
X10381908Y-28499500D01*
X10381903Y-28499500D01*
X10148631Y-28536446D01*
X9924003Y-28609433D01*
X9713566Y-28716657D01*
X9657142Y-28757652D01*
X9522490Y-28855483D01*
X9522488Y-28855485D01*
X9522487Y-28855485D01*
X9355485Y-29022487D01*
X9355485Y-29022488D01*
X9355483Y-29022490D01*
X9336686Y-29048362D01*
X9216657Y-29213566D01*
X9109433Y-29424003D01*
X9036446Y-29648631D01*
X8998737Y-29886720D01*
X8997718Y-29886558D01*
X8974614Y-29947170D01*
X8918381Y-29988638D01*
X8906330Y-29992351D01*
X8893092Y-29995704D01*
X8862646Y-29999500D01*
X3003246Y-29999500D01*
X2996756Y-29999330D01*
X2866954Y-29992527D01*
X2866491Y-29992502D01*
X2710700Y-29983753D01*
X2707227Y-29983509D01*
X2673272Y-29980644D01*
X2664300Y-29979556D01*
X2525092Y-29957508D01*
X2523720Y-29957283D01*
X2378464Y-29932604D01*
X2375040Y-29931973D01*
X2355491Y-29928084D01*
X2347591Y-29926242D01*
X2204416Y-29887878D01*
X2202183Y-29887257D01*
X2054010Y-29844570D01*
X2050674Y-29843558D01*
X2046019Y-29842074D01*
X2039244Y-29839696D01*
X1895334Y-29784454D01*
X1892319Y-29783251D01*
X1748246Y-29723574D01*
X1739404Y-29719498D01*
X1599922Y-29648428D01*
X1596236Y-29646471D01*
X1460464Y-29571433D01*
X1452921Y-29566907D01*
X1321281Y-29481419D01*
X1317061Y-29478553D01*
X1190836Y-29388991D01*
X1184557Y-29384228D01*
X1062426Y-29285329D01*
X1057834Y-29281422D01*
X942581Y-29178425D01*
X937527Y-29173647D01*
X826351Y-29062471D01*
X821573Y-29057417D01*
X790358Y-29022488D01*
X718572Y-28942159D01*
X714669Y-28937572D01*
X714288Y-28937102D01*
X615770Y-28815441D01*
X611007Y-28809162D01*
X521445Y-28682937D01*
X518593Y-28678739D01*
X433081Y-28547061D01*
X428574Y-28539550D01*
X353520Y-28403750D01*
X351570Y-28400076D01*
X343188Y-28383626D01*
X280497Y-28260589D01*
X276424Y-28251752D01*
X241872Y-28168337D01*
X216740Y-28107663D01*
X215544Y-28104664D01*
X160289Y-27960719D01*
X157931Y-27954001D01*
X156426Y-27949279D01*
X155447Y-27946050D01*
X112736Y-27797798D01*
X112116Y-27795567D01*
X107316Y-27777652D01*
X73747Y-27652372D01*
X71919Y-27644530D01*
X68024Y-27624949D01*
X67401Y-27621570D01*
X42679Y-27476068D01*
X42548Y-27475270D01*
X20437Y-27335663D01*
X19355Y-27326736D01*
X16484Y-27292700D01*
X16250Y-27289376D01*
X7494Y-27133465D01*
X669Y-27003243D01*
X500Y-26996755D01*
X500Y-25131187D01*
X3249500Y-25131187D01*
X3260176Y-25202011D01*
X3288604Y-25390615D01*
X3288605Y-25390617D01*
X3288606Y-25390623D01*
X3365938Y-25641326D01*
X3479767Y-25877696D01*
X3479768Y-25877697D01*
X3479770Y-25877700D01*
X3479772Y-25877704D01*
X3627567Y-26094479D01*
X3806014Y-26286801D01*
X3806018Y-26286804D01*
X3806019Y-26286805D01*
X4011143Y-26450386D01*
X4238357Y-26581568D01*
X4482584Y-26677420D01*
X4738370Y-26735802D01*
X4738376Y-26735802D01*
X4738379Y-26735803D01*
X4934484Y-26750499D01*
X4934503Y-26750499D01*
X4934506Y-26750500D01*
X4934508Y-26750500D01*
X5065492Y-26750500D01*
X5065494Y-26750500D01*
X5065496Y-26750499D01*
X5065515Y-26750499D01*
X5261620Y-26735803D01*
X5261622Y-26735802D01*
X5261630Y-26735802D01*
X5517416Y-26677420D01*
X5761643Y-26581568D01*
X5988857Y-26450386D01*
X6193981Y-26286805D01*
X6372433Y-26094479D01*
X6520228Y-25877704D01*
X6634063Y-25641323D01*
X6711396Y-25390615D01*
X6750500Y-25131182D01*
X6750500Y-24868818D01*
X6711396Y-24609385D01*
X6634063Y-24358677D01*
X6569859Y-24225356D01*
X6520232Y-24122303D01*
X6520231Y-24122302D01*
X6520230Y-24122301D01*
X6520228Y-24122296D01*
X6372433Y-23905521D01*
X6271210Y-23796428D01*
X6193985Y-23713198D01*
X6154533Y-23681736D01*
X5988857Y-23549614D01*
X5761643Y-23418432D01*
X5517416Y-23322580D01*
X5517411Y-23322578D01*
X5517402Y-23322576D01*
X5299818Y-23272914D01*
X5261630Y-23264198D01*
X5261629Y-23264197D01*
X5261625Y-23264197D01*
X5261620Y-23264196D01*
X5065515Y-23249500D01*
X5065494Y-23249500D01*
X4934506Y-23249500D01*
X4934484Y-23249500D01*
X4738379Y-23264196D01*
X4738374Y-23264197D01*
X4482597Y-23322576D01*
X4482578Y-23322582D01*
X4238356Y-23418432D01*
X4011143Y-23549614D01*
X3806014Y-23713198D01*
X3627567Y-23905520D01*
X3479768Y-24122302D01*
X3479767Y-24122303D01*
X3365938Y-24358673D01*
X3288606Y-24609376D01*
X3288605Y-24609381D01*
X3288604Y-24609385D01*
X3278789Y-24674500D01*
X3249500Y-24868812D01*
X3249500Y-25131187D01*
X500Y-25131187D01*
X500Y-15131187D01*
X929501Y-15131187D01*
X939032Y-15194415D01*
X968605Y-15390615D01*
X968606Y-15390617D01*
X968607Y-15390623D01*
X1045939Y-15641326D01*
X1159768Y-15877696D01*
X1159769Y-15877697D01*
X1159771Y-15877700D01*
X1159773Y-15877704D01*
X1291224Y-16070507D01*
X1307568Y-16094479D01*
X1486015Y-16286801D01*
X1486019Y-16286804D01*
X1486020Y-16286805D01*
X1691144Y-16450386D01*
X1918358Y-16581568D01*
X2162585Y-16677420D01*
X2418371Y-16735802D01*
X2418377Y-16735802D01*
X2418380Y-16735803D01*
X2614485Y-16750499D01*
X2614504Y-16750499D01*
X2614507Y-16750500D01*
X2614509Y-16750500D01*
X2745493Y-16750500D01*
X2745495Y-16750500D01*
X2745497Y-16750499D01*
X2745516Y-16750499D01*
X2941621Y-16735803D01*
X2941623Y-16735802D01*
X2941631Y-16735802D01*
X3197417Y-16677420D01*
X3441644Y-16581568D01*
X3668858Y-16450386D01*
X3873982Y-16286805D01*
X3880037Y-16280280D01*
X3929484Y-16226988D01*
X4052434Y-16094479D01*
X4200229Y-15877704D01*
X4207169Y-15863294D01*
X4280396Y-15711235D01*
X4314064Y-15641323D01*
X4391397Y-15390615D01*
X4430501Y-15131182D01*
X4430501Y-14868818D01*
X4391397Y-14609385D01*
X4314064Y-14358677D01*
X4291432Y-14311682D01*
X4200233Y-14122303D01*
X4200232Y-14122302D01*
X4200231Y-14122301D01*
X4200229Y-14122296D01*
X4052434Y-13905521D01*
X3951211Y-13796428D01*
X3873986Y-13713198D01*
X3746814Y-13611782D01*
X3668858Y-13549614D01*
X3441644Y-13418432D01*
X3197417Y-13322580D01*
X3197412Y-13322578D01*
X3197403Y-13322576D01*
X2977890Y-13272474D01*
X2941631Y-13264198D01*
X2941630Y-13264197D01*
X2941626Y-13264197D01*
X2941621Y-13264196D01*
X2745516Y-13249500D01*
X2745495Y-13249500D01*
X2614507Y-13249500D01*
X2614485Y-13249500D01*
X2418380Y-13264196D01*
X2418375Y-13264197D01*
X2162598Y-13322576D01*
X2162579Y-13322582D01*
X1918357Y-13418432D01*
X1691144Y-13549614D01*
X1486015Y-13713198D01*
X1307568Y-13905520D01*
X1219547Y-14034624D01*
X1164242Y-14115742D01*
X1159769Y-14122302D01*
X1159768Y-14122303D01*
X1045939Y-14358673D01*
X968607Y-14609376D01*
X968606Y-14609381D01*
X968605Y-14609385D01*
X956604Y-14689005D01*
X929501Y-14868812D01*
X929501Y-15131187D01*
X500Y-15131187D01*
X500Y-8600000D01*
X7694540Y-8600000D01*
X7714326Y-8788256D01*
X7714327Y-8788259D01*
X7772818Y-8968277D01*
X7772821Y-8968284D01*
X7867467Y-9132216D01*
X7900059Y-9168413D01*
X7994123Y-9272883D01*
X7994128Y-9272887D01*
X7994129Y-9272888D01*
X8001819Y-9278475D01*
X8043848Y-9309012D01*
X8071258Y-9336414D01*
X8073168Y-9339042D01*
X8079594Y-9348822D01*
X8101830Y-9386420D01*
X8101831Y-9386421D01*
X8101833Y-9386424D01*
X8115990Y-9400580D01*
X8128628Y-9415376D01*
X8140405Y-9431586D01*
X8140406Y-9431587D01*
X8174056Y-9459424D01*
X8182697Y-9467287D01*
X8399198Y-9683789D01*
X8409022Y-9696050D01*
X8409243Y-9695868D01*
X8414213Y-9701876D01*
X8463224Y-9747901D01*
X8466022Y-9750613D01*
X8485522Y-9770114D01*
X8485526Y-9770117D01*
X8485529Y-9770120D01*
X8488702Y-9772581D01*
X8497574Y-9780159D01*
X8529418Y-9810062D01*
X8546976Y-9819714D01*
X8563233Y-9830393D01*
X8579064Y-9842673D01*
X8608803Y-9855542D01*
X8619152Y-9860021D01*
X8629641Y-9865160D01*
X8653457Y-9878252D01*
X8667908Y-9886197D01*
X8680523Y-9889435D01*
X8687305Y-9891177D01*
X8705719Y-9897481D01*
X8724104Y-9905438D01*
X8767261Y-9912273D01*
X8778656Y-9914632D01*
X8820981Y-9925500D01*
X8841016Y-9925500D01*
X8860413Y-9927026D01*
X8880196Y-9930160D01*
X8923675Y-9926050D01*
X8935344Y-9925500D01*
X9307112Y-9925500D01*
X9374151Y-9945185D01*
X9419906Y-9997989D01*
X9429850Y-10067147D01*
X9400825Y-10130703D01*
X9399262Y-10132472D01*
X9367466Y-10167785D01*
X9272821Y-10331715D01*
X9272818Y-10331722D01*
X9214327Y-10511740D01*
X9214326Y-10511744D01*
X9194540Y-10700000D01*
X9214326Y-10888256D01*
X9214327Y-10888259D01*
X9272818Y-11068277D01*
X9272821Y-11068284D01*
X9367466Y-11232215D01*
X9371285Y-11237471D01*
X9369278Y-11238929D01*
X9394678Y-11291847D01*
X9396300Y-11311837D01*
X9396300Y-12319378D01*
X9376615Y-12386417D01*
X9343423Y-12420953D01*
X9186668Y-12530713D01*
X9030712Y-12686669D01*
X8904204Y-12867343D01*
X8904203Y-12867345D01*
X8810993Y-13067236D01*
X8810989Y-13067245D01*
X8753908Y-13280276D01*
X8753906Y-13280286D01*
X8734684Y-13499999D01*
X8734684Y-13500002D01*
X8753906Y-13719715D01*
X8753908Y-13719725D01*
X8810989Y-13932754D01*
X8810994Y-13932770D01*
X8904202Y-14132655D01*
X8904206Y-14132663D01*
X9030711Y-14313331D01*
X9186668Y-14469288D01*
X9367336Y-14595793D01*
X9367338Y-14595794D01*
X9367341Y-14595796D01*
X9487602Y-14651874D01*
X9567229Y-14689005D01*
X9567231Y-14689005D01*
X9567236Y-14689008D01*
X9780279Y-14746093D01*
X9937221Y-14759823D01*
X9999997Y-14765316D01*
X9999999Y-14765316D01*
X10000001Y-14765316D01*
X10054929Y-14760510D01*
X10219719Y-14746093D01*
X10432762Y-14689008D01*
X10632657Y-14595796D01*
X10813328Y-14469289D01*
X10969287Y-14313330D01*
X11095794Y-14132659D01*
X11189006Y-13932764D01*
X11192312Y-13920428D01*
X11203659Y-13878077D01*
X11246091Y-13719721D01*
X11265314Y-13500001D01*
X11246091Y-13280281D01*
X11189006Y-13067238D01*
X11095794Y-12867344D01*
X10969287Y-12686672D01*
X10969285Y-12686669D01*
X10840019Y-12557403D01*
X10806534Y-12496080D01*
X10803700Y-12469722D01*
X10803700Y-11311837D01*
X10823385Y-11244798D01*
X10828885Y-11237594D01*
X10828715Y-11237471D01*
X10832529Y-11232220D01*
X10832533Y-11232216D01*
X10927179Y-11068284D01*
X10985674Y-10888256D01*
X11005460Y-10700000D01*
X10985674Y-10511744D01*
X10930302Y-10341328D01*
X10927181Y-10331722D01*
X10927180Y-10331721D01*
X10927179Y-10331716D01*
X10832533Y-10167784D01*
X10800738Y-10132472D01*
X10770508Y-10069480D01*
X10779133Y-10000145D01*
X10823875Y-9946480D01*
X10890527Y-9925522D01*
X10892888Y-9925500D01*
X12050500Y-9925500D01*
X12117539Y-9945185D01*
X12163294Y-9997989D01*
X12174500Y-10049500D01*
X12174500Y-15750500D01*
X12154815Y-15817539D01*
X12102011Y-15863294D01*
X12050500Y-15874500D01*
X11165356Y-15874500D01*
X11098317Y-15854815D01*
X11063781Y-15821623D01*
X10969285Y-15686668D01*
X10813329Y-15530712D01*
X10632661Y-15404207D01*
X10632653Y-15404203D01*
X10432768Y-15310995D01*
X10432754Y-15310990D01*
X10219723Y-15253909D01*
X10219721Y-15253908D01*
X10219719Y-15253908D01*
X10219717Y-15253907D01*
X10219713Y-15253907D01*
X10000001Y-15234685D01*
X9999997Y-15234685D01*
X9780284Y-15253907D01*
X9780274Y-15253909D01*
X9567243Y-15310990D01*
X9567234Y-15310994D01*
X9367343Y-15404204D01*
X9367341Y-15404205D01*
X9186667Y-15530713D01*
X9030712Y-15686668D01*
X8904204Y-15867342D01*
X8904203Y-15867344D01*
X8810993Y-16067235D01*
X8810989Y-16067244D01*
X8753908Y-16280275D01*
X8753906Y-16280285D01*
X8734684Y-16499998D01*
X8734684Y-16500001D01*
X8753906Y-16719714D01*
X8753908Y-16719724D01*
X8810989Y-16932755D01*
X8810994Y-16932769D01*
X8904202Y-17132654D01*
X8904206Y-17132662D01*
X9030711Y-17313330D01*
X9186668Y-17469287D01*
X9367336Y-17595792D01*
X9367338Y-17595793D01*
X9367341Y-17595795D01*
X9487602Y-17651873D01*
X9567229Y-17689004D01*
X9567231Y-17689004D01*
X9567236Y-17689007D01*
X9780279Y-17746092D01*
X9937221Y-17759822D01*
X9999997Y-17765315D01*
X9999999Y-17765315D01*
X10000001Y-17765315D01*
X10054929Y-17760509D01*
X10219719Y-17746092D01*
X10432762Y-17689007D01*
X10632657Y-17595795D01*
X10813328Y-17469288D01*
X10969287Y-17313329D01*
X11063782Y-17178376D01*
X11118359Y-17134752D01*
X11165357Y-17125500D01*
X12317257Y-17125500D01*
X12332877Y-17127224D01*
X12332904Y-17126939D01*
X12340660Y-17127671D01*
X12340667Y-17127673D01*
X12407873Y-17125561D01*
X12411768Y-17125500D01*
X12439346Y-17125500D01*
X12439350Y-17125500D01*
X12443324Y-17124997D01*
X12454963Y-17124080D01*
X12498627Y-17122709D01*
X12517869Y-17117117D01*
X12536912Y-17113174D01*
X12556792Y-17110664D01*
X12597401Y-17094585D01*
X12608444Y-17090803D01*
X12650390Y-17078618D01*
X12667629Y-17068422D01*
X12685103Y-17059862D01*
X12703727Y-17052488D01*
X12703727Y-17052487D01*
X12703732Y-17052486D01*
X12739083Y-17026800D01*
X12748814Y-17020408D01*
X12786420Y-16998170D01*
X12800589Y-16983999D01*
X12815379Y-16971368D01*
X12831587Y-16959594D01*
X12859438Y-16925926D01*
X12867279Y-16917309D01*
X13183785Y-16600803D01*
X13196041Y-16590987D01*
X13195858Y-16590765D01*
X13201870Y-16585790D01*
X13201877Y-16585786D01*
X13247949Y-16536722D01*
X13250566Y-16534023D01*
X13270120Y-16514471D01*
X13272576Y-16511303D01*
X13280156Y-16502427D01*
X13310062Y-16470582D01*
X13319713Y-16453024D01*
X13330396Y-16436761D01*
X13342673Y-16420936D01*
X13360021Y-16380844D01*
X13365151Y-16370371D01*
X13386197Y-16332092D01*
X13391180Y-16312680D01*
X13397481Y-16294280D01*
X13405437Y-16275896D01*
X13412270Y-16232748D01*
X13414633Y-16221338D01*
X13425500Y-16179019D01*
X13425500Y-16158983D01*
X13427027Y-16139582D01*
X13430160Y-16119804D01*
X13426050Y-16076324D01*
X13425500Y-16064655D01*
X13425500Y-9682738D01*
X13427224Y-9667124D01*
X13426938Y-9667097D01*
X13427672Y-9659334D01*
X13425561Y-9592144D01*
X13425500Y-9588250D01*
X13425500Y-9560651D01*
X13425500Y-9560650D01*
X13424997Y-9556670D01*
X13424080Y-9545021D01*
X13423715Y-9533395D01*
X13422709Y-9501373D01*
X13417122Y-9482144D01*
X13413174Y-9463084D01*
X13410663Y-9443204D01*
X13394588Y-9402604D01*
X13390804Y-9391552D01*
X13378618Y-9349609D01*
X13378616Y-9349606D01*
X13368423Y-9332371D01*
X13359861Y-9314894D01*
X13352487Y-9296269D01*
X13342929Y-9283114D01*
X13326811Y-9260930D01*
X13320405Y-9251177D01*
X13298170Y-9213580D01*
X13298168Y-9213578D01*
X13298165Y-9213574D01*
X13284006Y-9199415D01*
X13271368Y-9184619D01*
X13259594Y-9168413D01*
X13225942Y-9140574D01*
X13217301Y-9132711D01*
X13000802Y-8916211D01*
X12990981Y-8903952D01*
X12990760Y-8904135D01*
X12985788Y-8898125D01*
X12936774Y-8852097D01*
X12933976Y-8849385D01*
X12914477Y-8829885D01*
X12914471Y-8829880D01*
X12911286Y-8827409D01*
X12902434Y-8819848D01*
X12870582Y-8789938D01*
X12870580Y-8789936D01*
X12870577Y-8789935D01*
X12853029Y-8780288D01*
X12836763Y-8769604D01*
X12820932Y-8757324D01*
X12780849Y-8739978D01*
X12770363Y-8734841D01*
X12732094Y-8713803D01*
X12732092Y-8713802D01*
X12712693Y-8708822D01*
X12694281Y-8702518D01*
X12675898Y-8694562D01*
X12675892Y-8694560D01*
X12632760Y-8687729D01*
X12621322Y-8685361D01*
X12579020Y-8674500D01*
X12579019Y-8674500D01*
X12558984Y-8674500D01*
X12539586Y-8672973D01*
X12532162Y-8671797D01*
X12519805Y-8669840D01*
X12519804Y-8669840D01*
X12476325Y-8673950D01*
X12464656Y-8674500D01*
X9624940Y-8674500D01*
X9557901Y-8654815D01*
X9512146Y-8602011D01*
X9501620Y-8563465D01*
X9485674Y-8411744D01*
X9427179Y-8231716D01*
X9332533Y-8067784D01*
X9205871Y-7927112D01*
X9205870Y-7927111D01*
X9052734Y-7815851D01*
X9052729Y-7815848D01*
X8879807Y-7738857D01*
X8879802Y-7738855D01*
X8734001Y-7707865D01*
X8694646Y-7699500D01*
X8505354Y-7699500D01*
X8472897Y-7706398D01*
X8320197Y-7738855D01*
X8320192Y-7738857D01*
X8147270Y-7815848D01*
X8147265Y-7815851D01*
X7994129Y-7927111D01*
X7867466Y-8067785D01*
X7772821Y-8231715D01*
X7772818Y-8231722D01*
X7721809Y-8388714D01*
X7714326Y-8411744D01*
X7694540Y-8600000D01*
X500Y-8600000D01*
X500Y-5131187D01*
X3249500Y-5131187D01*
X3261458Y-5210519D01*
X3288604Y-5390615D01*
X3288605Y-5390617D01*
X3288606Y-5390623D01*
X3335186Y-5541630D01*
X3358850Y-5618349D01*
X3365938Y-5641326D01*
X3479767Y-5877696D01*
X3479768Y-5877697D01*
X3479770Y-5877700D01*
X3479772Y-5877704D01*
X3606667Y-6063824D01*
X3627567Y-6094479D01*
X3806014Y-6286801D01*
X3806018Y-6286804D01*
X3806019Y-6286805D01*
X4011143Y-6450386D01*
X4238357Y-6581568D01*
X4482584Y-6677420D01*
X4738370Y-6735802D01*
X4738376Y-6735802D01*
X4738379Y-6735803D01*
X4934484Y-6750499D01*
X4934503Y-6750499D01*
X4934506Y-6750500D01*
X4934508Y-6750500D01*
X5065492Y-6750500D01*
X5065494Y-6750500D01*
X5065496Y-6750499D01*
X5065515Y-6750499D01*
X5261620Y-6735803D01*
X5261622Y-6735802D01*
X5261630Y-6735802D01*
X5517416Y-6677420D01*
X5761643Y-6581568D01*
X5988857Y-6450386D01*
X6193981Y-6286805D01*
X6372433Y-6094479D01*
X6520228Y-5877704D01*
X6634063Y-5641323D01*
X6711396Y-5390615D01*
X6750500Y-5131182D01*
X6750500Y-4868818D01*
X6711396Y-4609385D01*
X6634063Y-4358677D01*
X6593125Y-4273668D01*
X6520232Y-4122303D01*
X6520231Y-4122302D01*
X6520230Y-4122301D01*
X6520228Y-4122296D01*
X6372433Y-3905521D01*
X6362441Y-3894753D01*
X6193985Y-3713198D01*
X6133188Y-3664714D01*
X5988857Y-3549614D01*
X5761643Y-3418432D01*
X5517416Y-3322580D01*
X5517411Y-3322578D01*
X5517402Y-3322576D01*
X5299818Y-3272914D01*
X5261630Y-3264198D01*
X5261629Y-3264197D01*
X5261625Y-3264197D01*
X5261620Y-3264196D01*
X5065515Y-3249500D01*
X5065494Y-3249500D01*
X4934506Y-3249500D01*
X4934484Y-3249500D01*
X4738379Y-3264196D01*
X4738374Y-3264197D01*
X4482597Y-3322576D01*
X4482578Y-3322582D01*
X4238356Y-3418432D01*
X4011143Y-3549614D01*
X3806014Y-3713198D01*
X3627567Y-3905520D01*
X3479768Y-4122302D01*
X3479767Y-4122303D01*
X3365938Y-4358673D01*
X3288606Y-4609376D01*
X3288605Y-4609381D01*
X3288604Y-4609385D01*
X3275452Y-4696640D01*
X3249500Y-4868812D01*
X3249500Y-5131187D01*
X500Y-5131187D01*
X500Y-3003245D01*
X670Y-2996756D01*
X7473Y-2866935D01*
X7498Y-2866472D01*
X16250Y-2710623D01*
X16483Y-2707307D01*
X19356Y-2673247D01*
X20437Y-2664327D01*
X42558Y-2524662D01*
X42653Y-2524086D01*
X67401Y-2378426D01*
X68027Y-2375033D01*
X71921Y-2355457D01*
X73744Y-2347636D01*
X112144Y-2204326D01*
X112699Y-2202329D01*
X155452Y-2053932D01*
X156433Y-2050701D01*
X157933Y-2045994D01*
X160303Y-2039244D01*
X215578Y-1895246D01*
X216711Y-1892407D01*
X276439Y-1748210D01*
X280474Y-1739455D01*
X351616Y-1599831D01*
X353471Y-1596338D01*
X428591Y-1460418D01*
X433080Y-1452938D01*
X518626Y-1321209D01*
X521411Y-1317107D01*
X611014Y-1190824D01*
X615731Y-1184604D01*
X714716Y-1062367D01*
X718514Y-1057903D01*
X821625Y-942522D01*
X826316Y-937561D01*
X937561Y-826316D01*
X942522Y-821625D01*
X1057903Y-718514D01*
X1062367Y-714716D01*
X1184604Y-615731D01*
X1190824Y-611014D01*
X1317107Y-521411D01*
X1321209Y-518626D01*
X1452938Y-433080D01*
X1460418Y-428591D01*
X1596338Y-353471D01*
X1599831Y-351616D01*
X1739455Y-280474D01*
X1748210Y-276439D01*
X1892407Y-216711D01*
X1895246Y-215578D01*
X2039258Y-160297D01*
X2045994Y-157933D01*
X2050701Y-156433D01*
X2053932Y-155452D01*
X2202329Y-112699D01*
X2204326Y-112144D01*
X2347636Y-73744D01*
X2355474Y-71917D01*
X2375066Y-68020D01*
X2378371Y-67410D01*
X2524014Y-42665D01*
X2524654Y-42559D01*
X2664327Y-20437D01*
X2673257Y-19355D01*
X2707226Y-16490D01*
X2710678Y-16247D01*
X2866320Y-7505D01*
X2882400Y-6662D01*
X2883235Y-6623D01*
X2899977Y-5926D01*
X2903549Y-5830D01*
X2919079Y-5634D01*
X2924024Y-5572D01*
X2925719Y-5562D01*
X8870706Y-16867D01*
G37*
G04 #@! TD.AperFunction*
G04 #@! TA.AperFunction,Conductor*
G36*
X57678009Y-109675D02*
G01*
X57686614Y-109991D01*
X57778245Y-116560D01*
X57795316Y-118986D01*
X57885157Y-138215D01*
X57893528Y-140315D01*
X57945988Y-155429D01*
X57949299Y-156433D01*
X57953972Y-157922D01*
X57960731Y-160294D01*
X58104710Y-215562D01*
X58107610Y-216718D01*
X58251759Y-276427D01*
X58260589Y-280497D01*
X58400088Y-351576D01*
X58403750Y-353520D01*
X58539550Y-428574D01*
X58547061Y-433081D01*
X58678727Y-518586D01*
X58682937Y-521445D01*
X58809162Y-611007D01*
X58815441Y-615770D01*
X58815539Y-615849D01*
X58937577Y-714673D01*
X58942159Y-718572D01*
X59043149Y-808822D01*
X59057417Y-821573D01*
X59062471Y-826351D01*
X59173647Y-937527D01*
X59178425Y-942581D01*
X59281422Y-1057834D01*
X59285329Y-1062426D01*
X59384228Y-1184557D01*
X59388991Y-1190836D01*
X59478553Y-1317061D01*
X59481411Y-1321269D01*
X59566907Y-1452921D01*
X59571433Y-1460464D01*
X59646471Y-1596236D01*
X59648428Y-1599922D01*
X59719498Y-1739404D01*
X59723574Y-1748246D01*
X59783251Y-1892319D01*
X59784454Y-1895334D01*
X59839696Y-2039244D01*
X59842074Y-2046019D01*
X59843558Y-2050674D01*
X59844570Y-2054010D01*
X59887257Y-2202183D01*
X59887878Y-2204416D01*
X59926242Y-2347591D01*
X59928084Y-2355491D01*
X59931973Y-2375040D01*
X59932604Y-2378464D01*
X59957283Y-2523720D01*
X59957508Y-2525092D01*
X59979556Y-2664300D01*
X59980644Y-2673272D01*
X59983509Y-2707227D01*
X59983753Y-2710700D01*
X59992502Y-2866491D01*
X59992527Y-2866954D01*
X59999330Y-2996756D01*
X59999500Y-3003246D01*
X59999500Y-26996753D01*
X59999330Y-27003243D01*
X59992527Y-27133044D01*
X59992502Y-27133507D01*
X59983753Y-27289296D01*
X59983509Y-27292768D01*
X59980644Y-27326726D01*
X59979556Y-27335699D01*
X59957508Y-27474906D01*
X59957283Y-27476277D01*
X59932600Y-27621561D01*
X59931974Y-27624954D01*
X59930219Y-27633780D01*
X59928086Y-27644501D01*
X59926245Y-27652395D01*
X59887878Y-27795582D01*
X59887257Y-27797815D01*
X59844573Y-27945978D01*
X59843562Y-27949311D01*
X59842074Y-27953979D01*
X59839695Y-27960757D01*
X59784454Y-28104664D01*
X59783251Y-28107679D01*
X59723574Y-28251752D01*
X59719498Y-28260594D01*
X59648428Y-28400076D01*
X59646471Y-28403762D01*
X59571433Y-28539534D01*
X59566900Y-28547089D01*
X59481419Y-28678717D01*
X59478553Y-28682937D01*
X59388991Y-28809162D01*
X59384228Y-28815441D01*
X59285329Y-28937572D01*
X59281422Y-28942164D01*
X59178425Y-29057417D01*
X59173647Y-29062471D01*
X59062471Y-29173647D01*
X59057417Y-29178425D01*
X58942164Y-29281422D01*
X58937572Y-29285329D01*
X58815441Y-29384228D01*
X58809162Y-29388991D01*
X58682937Y-29478553D01*
X58678717Y-29481419D01*
X58547089Y-29566900D01*
X58539534Y-29571433D01*
X58403762Y-29646471D01*
X58400076Y-29648428D01*
X58260594Y-29719498D01*
X58251752Y-29723574D01*
X58107679Y-29783251D01*
X58104664Y-29784454D01*
X57960757Y-29839695D01*
X57953979Y-29842074D01*
X57949311Y-29843562D01*
X57945978Y-29844573D01*
X57797815Y-29887257D01*
X57795582Y-29887878D01*
X57652395Y-29926245D01*
X57644501Y-29928086D01*
X57633780Y-29930219D01*
X57624954Y-29931974D01*
X57621561Y-29932600D01*
X57476277Y-29957283D01*
X57474906Y-29957508D01*
X57335699Y-29979556D01*
X57326726Y-29980644D01*
X57292768Y-29983509D01*
X57289296Y-29983753D01*
X57133507Y-29992502D01*
X57133044Y-29992527D01*
X57003244Y-29999330D01*
X56996754Y-29999500D01*
X49137354Y-29999500D01*
X49106910Y-29995705D01*
X49093671Y-29992352D01*
X49033516Y-29956810D01*
X49002126Y-29894389D01*
X49000510Y-29881971D01*
X48963553Y-29648631D01*
X48890566Y-29424003D01*
X48827077Y-29299400D01*
X48783343Y-29213567D01*
X48644517Y-29022490D01*
X48477510Y-28855483D01*
X48286433Y-28716657D01*
X48075996Y-28609433D01*
X47851368Y-28536446D01*
X47618097Y-28499500D01*
X47618092Y-28499500D01*
X47381908Y-28499500D01*
X47381905Y-28499500D01*
X47351385Y-28504333D01*
X47282092Y-28495376D01*
X47228642Y-28450378D01*
X47208004Y-28383626D01*
X47208668Y-28368925D01*
X47219674Y-28264214D01*
X47199888Y-28075958D01*
X47192114Y-28052032D01*
X47190119Y-27982191D01*
X47226199Y-27922358D01*
X47288900Y-27891530D01*
X47310045Y-27889714D01*
X47353043Y-27889714D01*
X47368663Y-27891438D01*
X47368690Y-27891153D01*
X47376446Y-27891885D01*
X47376453Y-27891887D01*
X47443659Y-27889775D01*
X47447554Y-27889714D01*
X47475132Y-27889714D01*
X47475136Y-27889714D01*
X47479110Y-27889211D01*
X47490749Y-27888294D01*
X47534413Y-27886923D01*
X47553655Y-27881331D01*
X47572698Y-27877388D01*
X47592578Y-27874878D01*
X47633187Y-27858799D01*
X47644230Y-27855017D01*
X47686176Y-27842832D01*
X47703415Y-27832636D01*
X47720889Y-27824076D01*
X47739513Y-27816702D01*
X47739513Y-27816701D01*
X47739518Y-27816700D01*
X47774869Y-27791014D01*
X47784600Y-27784622D01*
X47822206Y-27762384D01*
X47836372Y-27748217D01*
X47851167Y-27735582D01*
X47867370Y-27723810D01*
X47867369Y-27723810D01*
X47867373Y-27723808D01*
X47895223Y-27690142D01*
X47903065Y-27681524D01*
X48183787Y-27400801D01*
X48196050Y-27390979D01*
X48195866Y-27390757D01*
X48201870Y-27385790D01*
X48201877Y-27385786D01*
X48247934Y-27336738D01*
X48250581Y-27334007D01*
X48270120Y-27314471D01*
X48272583Y-27311294D01*
X48280167Y-27302416D01*
X48289228Y-27292768D01*
X48310062Y-27270582D01*
X48319713Y-27253024D01*
X48330396Y-27236761D01*
X48342673Y-27220936D01*
X48360021Y-27180844D01*
X48365151Y-27170371D01*
X48386197Y-27132092D01*
X48391180Y-27112680D01*
X48397481Y-27094280D01*
X48405437Y-27075896D01*
X48412270Y-27032748D01*
X48414633Y-27021338D01*
X48425500Y-26979019D01*
X48425500Y-26958983D01*
X48427027Y-26939582D01*
X48430160Y-26919804D01*
X48426050Y-26876324D01*
X48425500Y-26864655D01*
X48425500Y-26649500D01*
X48445185Y-26582461D01*
X48497989Y-26536706D01*
X48549500Y-26525500D01*
X54331471Y-26525500D01*
X54347091Y-26527224D01*
X54347118Y-26526939D01*
X54354874Y-26527671D01*
X54354881Y-26527673D01*
X54422087Y-26525561D01*
X54425982Y-26525500D01*
X54453560Y-26525500D01*
X54453564Y-26525500D01*
X54457538Y-26524997D01*
X54469177Y-26524080D01*
X54512841Y-26522709D01*
X54532083Y-26517117D01*
X54551126Y-26513174D01*
X54571006Y-26510664D01*
X54611615Y-26494585D01*
X54622658Y-26490803D01*
X54664604Y-26478618D01*
X54681843Y-26468422D01*
X54699317Y-26459862D01*
X54717941Y-26452488D01*
X54717941Y-26452487D01*
X54717946Y-26452486D01*
X54753297Y-26426800D01*
X54763028Y-26420408D01*
X54800634Y-26398170D01*
X54814803Y-26383999D01*
X54829593Y-26371368D01*
X54845801Y-26359594D01*
X54873652Y-26325926D01*
X54881493Y-26317309D01*
X55498001Y-25700802D01*
X55510256Y-25690986D01*
X55510073Y-25690764D01*
X55516082Y-25685791D01*
X55516091Y-25685786D01*
X55562163Y-25636722D01*
X55564780Y-25634023D01*
X55584334Y-25614471D01*
X55586790Y-25611303D01*
X55594370Y-25602427D01*
X55624276Y-25570582D01*
X55633927Y-25553024D01*
X55644610Y-25536761D01*
X55656887Y-25520936D01*
X55674235Y-25480844D01*
X55679365Y-25470371D01*
X55700411Y-25432092D01*
X55705394Y-25412680D01*
X55711695Y-25394280D01*
X55719651Y-25375896D01*
X55726484Y-25332748D01*
X55728847Y-25321338D01*
X55739714Y-25279019D01*
X55739714Y-25258983D01*
X55741241Y-25239582D01*
X55741463Y-25238181D01*
X55744374Y-25219804D01*
X55740263Y-25176327D01*
X55739714Y-25164658D01*
X55739714Y-21748946D01*
X55759399Y-21681907D01*
X55812203Y-21636152D01*
X55881361Y-21626208D01*
X55941023Y-21651997D01*
X56145357Y-21814948D01*
X56372571Y-21946130D01*
X56616798Y-22041982D01*
X56872584Y-22100364D01*
X56872590Y-22100364D01*
X56872593Y-22100365D01*
X57068698Y-22115061D01*
X57068717Y-22115061D01*
X57068720Y-22115062D01*
X57068722Y-22115062D01*
X57199706Y-22115062D01*
X57199708Y-22115062D01*
X57199710Y-22115061D01*
X57199729Y-22115061D01*
X57395834Y-22100365D01*
X57395836Y-22100364D01*
X57395844Y-22100364D01*
X57651630Y-22041982D01*
X57895857Y-21946130D01*
X58123071Y-21814948D01*
X58328195Y-21651367D01*
X58339008Y-21639714D01*
X58417356Y-21555274D01*
X58506647Y-21459041D01*
X58654442Y-21242266D01*
X58768277Y-21005885D01*
X58845610Y-20755177D01*
X58884714Y-20495744D01*
X58884714Y-20233380D01*
X58845610Y-19973947D01*
X58768277Y-19723239D01*
X58756335Y-19698442D01*
X58654446Y-19486865D01*
X58654445Y-19486864D01*
X58654444Y-19486863D01*
X58654442Y-19486858D01*
X58506647Y-19270083D01*
X58439107Y-19197292D01*
X58328199Y-19077760D01*
X58288747Y-19046298D01*
X58123071Y-18914176D01*
X57895857Y-18782994D01*
X57651630Y-18687142D01*
X57651625Y-18687140D01*
X57651616Y-18687138D01*
X57434032Y-18637476D01*
X57395844Y-18628760D01*
X57395843Y-18628759D01*
X57395839Y-18628759D01*
X57395834Y-18628758D01*
X57199729Y-18614062D01*
X57199708Y-18614062D01*
X57068720Y-18614062D01*
X57068698Y-18614062D01*
X56872593Y-18628758D01*
X56872588Y-18628759D01*
X56616811Y-18687138D01*
X56616792Y-18687144D01*
X56372570Y-18782994D01*
X56145357Y-18914176D01*
X55940228Y-19077760D01*
X55761781Y-19270082D01*
X55613982Y-19486864D01*
X55613981Y-19486865D01*
X55500152Y-19723235D01*
X55422820Y-19973938D01*
X55422819Y-19973943D01*
X55422818Y-19973947D01*
X55408067Y-20071809D01*
X55383714Y-20233374D01*
X55383714Y-20372447D01*
X55364029Y-20439486D01*
X55311225Y-20485241D01*
X55242067Y-20495185D01*
X55192630Y-20474212D01*
X55191863Y-20475511D01*
X55185147Y-20471539D01*
X55145063Y-20454192D01*
X55134577Y-20449055D01*
X55096308Y-20428017D01*
X55096306Y-20428016D01*
X55076907Y-20423036D01*
X55058495Y-20416732D01*
X55040112Y-20408776D01*
X55040106Y-20408774D01*
X54996974Y-20401943D01*
X54985536Y-20399575D01*
X54943234Y-20388714D01*
X54943233Y-20388714D01*
X54923198Y-20388714D01*
X54903800Y-20387187D01*
X54896376Y-20386011D01*
X54884019Y-20384054D01*
X54884018Y-20384054D01*
X54840539Y-20388164D01*
X54828870Y-20388714D01*
X53986119Y-20388714D01*
X53919080Y-20369029D01*
X53873325Y-20316225D01*
X53863381Y-20247067D01*
X53884544Y-20193591D01*
X53910007Y-20157225D01*
X53910006Y-20157225D01*
X53910010Y-20157221D01*
X54003222Y-19957326D01*
X54060307Y-19744283D01*
X54079530Y-19524563D01*
X54060307Y-19304843D01*
X54003222Y-19091800D01*
X53910010Y-18891906D01*
X53792260Y-18723740D01*
X53783501Y-18711231D01*
X53627545Y-18555275D01*
X53458610Y-18436986D01*
X53414985Y-18382409D01*
X53414441Y-18381058D01*
X53408803Y-18366818D01*
X53405019Y-18355767D01*
X53392833Y-18313824D01*
X53392831Y-18313821D01*
X53382638Y-18296586D01*
X53374076Y-18279109D01*
X53366702Y-18260484D01*
X53357144Y-18247329D01*
X53341026Y-18225145D01*
X53334620Y-18215392D01*
X53312385Y-18177795D01*
X53312383Y-18177793D01*
X53312380Y-18177789D01*
X53298221Y-18163630D01*
X53285583Y-18148834D01*
X53273809Y-18132628D01*
X53240155Y-18104787D01*
X53231514Y-18096924D01*
X53084309Y-17949719D01*
X53050824Y-17888396D01*
X53055808Y-17818704D01*
X53097680Y-17762771D01*
X53139895Y-17742263D01*
X53246978Y-17713571D01*
X53446873Y-17620359D01*
X53627544Y-17493852D01*
X53783503Y-17337893D01*
X53910010Y-17157222D01*
X54003222Y-16957327D01*
X54060307Y-16744284D01*
X54079530Y-16524564D01*
X54060307Y-16304844D01*
X54003222Y-16091801D01*
X53910010Y-15891907D01*
X53783503Y-15711235D01*
X53783501Y-15711232D01*
X53627545Y-15555276D01*
X53446877Y-15428771D01*
X53446869Y-15428767D01*
X53246984Y-15335559D01*
X53246970Y-15335554D01*
X53033939Y-15278473D01*
X53033937Y-15278472D01*
X53033935Y-15278472D01*
X53033933Y-15278471D01*
X53033929Y-15278471D01*
X52814217Y-15259249D01*
X52814213Y-15259249D01*
X52594501Y-15278471D01*
X52594496Y-15278471D01*
X52594495Y-15278472D01*
X52594492Y-15278472D01*
X52594491Y-15278473D01*
X52551823Y-15289905D01*
X52481973Y-15288240D01*
X52432052Y-15257810D01*
X51893014Y-14718772D01*
X51859529Y-14657449D01*
X51864513Y-14587757D01*
X51906385Y-14531824D01*
X51971849Y-14507407D01*
X52040122Y-14522259D01*
X52051811Y-14529511D01*
X52181557Y-14620360D01*
X52261095Y-14657449D01*
X52381445Y-14713569D01*
X52381447Y-14713569D01*
X52381452Y-14713572D01*
X52381457Y-14713573D01*
X52381459Y-14713574D01*
X52415221Y-14722620D01*
X52594495Y-14770657D01*
X52751437Y-14784387D01*
X52814213Y-14789880D01*
X52814215Y-14789880D01*
X52814217Y-14789880D01*
X52869145Y-14785074D01*
X53033935Y-14770657D01*
X53246978Y-14713572D01*
X53446873Y-14620360D01*
X53627544Y-14493853D01*
X53783503Y-14337894D01*
X53910010Y-14157223D01*
X54003222Y-13957328D01*
X54060307Y-13744285D01*
X54076783Y-13555953D01*
X54079530Y-13524566D01*
X54079530Y-13524563D01*
X54074037Y-13461787D01*
X54060307Y-13304845D01*
X54003222Y-13091802D01*
X53910010Y-12891908D01*
X53783503Y-12711236D01*
X53783501Y-12711233D01*
X53627545Y-12555277D01*
X53446877Y-12428772D01*
X53446869Y-12428768D01*
X53246984Y-12335560D01*
X53246970Y-12335555D01*
X53033939Y-12278474D01*
X53033937Y-12278473D01*
X53033935Y-12278473D01*
X53033933Y-12278472D01*
X53033929Y-12278472D01*
X52814217Y-12259250D01*
X52814213Y-12259250D01*
X52594500Y-12278472D01*
X52594489Y-12278474D01*
X52551826Y-12289906D01*
X52481976Y-12288243D01*
X52432052Y-12257812D01*
X51954667Y-11780426D01*
X51944844Y-11768164D01*
X51944623Y-11768348D01*
X51939650Y-11762336D01*
X51897131Y-11722408D01*
X51861736Y-11662166D01*
X51861933Y-11657226D01*
X51809155Y-11645745D01*
X51808854Y-11645580D01*
X51806900Y-11644506D01*
X51790627Y-11633818D01*
X51774796Y-11621538D01*
X51734713Y-11604192D01*
X51724227Y-11599055D01*
X51685958Y-11578017D01*
X51685956Y-11578016D01*
X51666557Y-11573036D01*
X51648145Y-11566732D01*
X51629762Y-11558776D01*
X51629756Y-11558774D01*
X51586624Y-11551943D01*
X51575186Y-11549575D01*
X51532884Y-11538714D01*
X51532883Y-11538714D01*
X51512848Y-11538714D01*
X51493450Y-11537187D01*
X51486026Y-11536011D01*
X51473669Y-11534054D01*
X51473668Y-11534054D01*
X51430189Y-11538164D01*
X51418520Y-11538714D01*
X50880916Y-11538714D01*
X50813877Y-11519029D01*
X50768122Y-11466225D01*
X50758178Y-11397067D01*
X50782114Y-11343531D01*
X50780399Y-11342330D01*
X50910008Y-11157228D01*
X50910007Y-11157228D01*
X50910011Y-11157224D01*
X51003223Y-10957329D01*
X51060308Y-10744286D01*
X51079531Y-10524566D01*
X51060308Y-10304846D01*
X51003223Y-10091803D01*
X50910011Y-9891909D01*
X50870048Y-9834836D01*
X50847722Y-9768630D01*
X50864733Y-9700863D01*
X50915681Y-9653051D01*
X50971624Y-9639714D01*
X50993411Y-9639714D01*
X51060450Y-9659399D01*
X51081092Y-9676033D01*
X51547462Y-10142403D01*
X51580947Y-10203726D01*
X51579556Y-10262177D01*
X51568124Y-10304840D01*
X51568122Y-10304851D01*
X51548900Y-10524564D01*
X51548900Y-10524567D01*
X51568122Y-10744280D01*
X51568124Y-10744290D01*
X51625205Y-10957321D01*
X51625210Y-10957335D01*
X51718418Y-11157220D01*
X51718422Y-11157228D01*
X51844927Y-11337896D01*
X51956263Y-11449232D01*
X51989748Y-11510555D01*
X51989614Y-11512427D01*
X52037995Y-11521371D01*
X52053130Y-11530435D01*
X52181557Y-11620361D01*
X52260615Y-11657226D01*
X52381445Y-11713570D01*
X52381447Y-11713570D01*
X52381452Y-11713573D01*
X52594495Y-11770658D01*
X52751437Y-11784388D01*
X52814213Y-11789881D01*
X52814215Y-11789881D01*
X52814217Y-11789881D01*
X52869145Y-11785075D01*
X53033935Y-11770658D01*
X53246978Y-11713573D01*
X53446873Y-11620361D01*
X53627544Y-11493854D01*
X53783503Y-11337895D01*
X53910010Y-11157224D01*
X54003222Y-10957329D01*
X54060307Y-10744286D01*
X54079530Y-10524566D01*
X54060307Y-10304846D01*
X54003222Y-10091803D01*
X53910010Y-9891909D01*
X53842693Y-9795770D01*
X55383714Y-9795770D01*
X55403269Y-9925499D01*
X55422818Y-10055198D01*
X55422819Y-10055200D01*
X55422820Y-10055206D01*
X55476757Y-10230065D01*
X55499822Y-10304841D01*
X55500152Y-10305909D01*
X55613981Y-10542279D01*
X55613982Y-10542280D01*
X55613984Y-10542283D01*
X55613986Y-10542287D01*
X55721513Y-10700000D01*
X55761781Y-10759062D01*
X55940228Y-10951384D01*
X55940232Y-10951387D01*
X55940233Y-10951388D01*
X56145357Y-11114969D01*
X56372571Y-11246151D01*
X56616798Y-11342003D01*
X56872584Y-11400385D01*
X56872590Y-11400385D01*
X56872593Y-11400386D01*
X57068698Y-11415082D01*
X57068717Y-11415082D01*
X57068720Y-11415083D01*
X57068722Y-11415083D01*
X57199706Y-11415083D01*
X57199708Y-11415083D01*
X57199710Y-11415082D01*
X57199729Y-11415082D01*
X57395834Y-11400386D01*
X57395836Y-11400385D01*
X57395844Y-11400385D01*
X57651630Y-11342003D01*
X57895857Y-11246151D01*
X58123071Y-11114969D01*
X58328195Y-10951388D01*
X58506647Y-10759062D01*
X58654442Y-10542287D01*
X58662976Y-10524567D01*
X58678324Y-10492694D01*
X58768277Y-10305906D01*
X58845610Y-10055198D01*
X58884714Y-9795765D01*
X58884714Y-9533401D01*
X58845610Y-9273968D01*
X58768277Y-9023260D01*
X58726786Y-8937102D01*
X58654446Y-8786886D01*
X58654445Y-8786885D01*
X58654444Y-8786884D01*
X58654442Y-8786879D01*
X58506647Y-8570104D01*
X58466555Y-8526895D01*
X58328199Y-8377781D01*
X58278185Y-8337896D01*
X58123071Y-8214197D01*
X57895857Y-8083015D01*
X57651630Y-7987163D01*
X57651625Y-7987161D01*
X57651616Y-7987159D01*
X57434032Y-7937497D01*
X57395844Y-7928781D01*
X57395843Y-7928780D01*
X57395839Y-7928780D01*
X57395834Y-7928779D01*
X57199729Y-7914083D01*
X57199708Y-7914083D01*
X57068720Y-7914083D01*
X57068698Y-7914083D01*
X56872593Y-7928779D01*
X56872588Y-7928780D01*
X56616811Y-7987159D01*
X56616792Y-7987165D01*
X56372570Y-8083015D01*
X56145357Y-8214197D01*
X55940228Y-8377781D01*
X55761781Y-8570103D01*
X55613982Y-8786885D01*
X55613981Y-8786886D01*
X55500152Y-9023256D01*
X55422820Y-9273959D01*
X55422819Y-9273964D01*
X55422818Y-9273968D01*
X55413534Y-9335561D01*
X55383714Y-9533395D01*
X55383714Y-9795770D01*
X53842693Y-9795770D01*
X53783503Y-9711237D01*
X53783501Y-9711234D01*
X53627545Y-9555278D01*
X53446877Y-9428773D01*
X53446869Y-9428769D01*
X53246984Y-9335561D01*
X53246970Y-9335556D01*
X53033939Y-9278475D01*
X53033937Y-9278474D01*
X53033935Y-9278474D01*
X53033933Y-9278473D01*
X53033929Y-9278473D01*
X52814217Y-9259251D01*
X52814213Y-9259251D01*
X52594501Y-9278473D01*
X52594496Y-9278473D01*
X52594495Y-9278474D01*
X52594492Y-9278474D01*
X52594491Y-9278475D01*
X52551823Y-9289907D01*
X52481973Y-9288242D01*
X52432052Y-9257812D01*
X52170987Y-8996747D01*
X52137502Y-8935424D01*
X52142486Y-8865732D01*
X52184358Y-8809799D01*
X52249822Y-8785382D01*
X52258644Y-8785066D01*
X53622087Y-8785066D01*
X53681698Y-8778658D01*
X53816546Y-8728363D01*
X53931761Y-8642113D01*
X54018011Y-8526898D01*
X54068306Y-8392050D01*
X54074715Y-8332440D01*
X54074714Y-6716695D01*
X54068306Y-6657084D01*
X54066047Y-6651028D01*
X54018012Y-6522238D01*
X54018008Y-6522231D01*
X53931762Y-6407022D01*
X53931759Y-6407019D01*
X53816550Y-6320773D01*
X53816543Y-6320769D01*
X53681697Y-6270475D01*
X53681698Y-6270475D01*
X53622098Y-6264068D01*
X53622096Y-6264067D01*
X53622088Y-6264067D01*
X53622080Y-6264067D01*
X53563715Y-6264067D01*
X53496676Y-6244382D01*
X53450921Y-6191578D01*
X53439715Y-6140067D01*
X53439715Y-4396952D01*
X53441439Y-4381338D01*
X53441153Y-4381311D01*
X53441887Y-4373548D01*
X53439776Y-4306358D01*
X53439715Y-4302464D01*
X53439715Y-4274866D01*
X53439715Y-4274865D01*
X53439212Y-4270885D01*
X53438295Y-4259236D01*
X53436924Y-4215589D01*
X53436924Y-4215587D01*
X53431335Y-4196352D01*
X53427389Y-4177299D01*
X53424879Y-4157423D01*
X53408793Y-4116796D01*
X53405018Y-4105769D01*
X53392832Y-4063825D01*
X53382636Y-4046584D01*
X53374075Y-4029108D01*
X53366701Y-4010484D01*
X53366700Y-4010482D01*
X53365656Y-4009045D01*
X53341024Y-3975141D01*
X53334627Y-3965405D01*
X53312385Y-3927794D01*
X53312382Y-3927791D01*
X53312380Y-3927788D01*
X53298220Y-3913628D01*
X53285585Y-3898835D01*
X53273808Y-3882627D01*
X53240160Y-3854791D01*
X53231519Y-3846928D01*
X53015017Y-3630426D01*
X53005194Y-3618164D01*
X53004973Y-3618348D01*
X53000000Y-3612336D01*
X52950990Y-3566313D01*
X52948191Y-3563600D01*
X52928691Y-3544099D01*
X52928685Y-3544094D01*
X52925500Y-3541623D01*
X52916648Y-3534062D01*
X52884796Y-3504152D01*
X52884794Y-3504150D01*
X52884791Y-3504149D01*
X52867243Y-3494502D01*
X52850977Y-3483818D01*
X52835146Y-3471538D01*
X52795063Y-3454192D01*
X52784577Y-3449055D01*
X52746308Y-3428017D01*
X52746306Y-3428016D01*
X52726907Y-3423036D01*
X52708495Y-3416732D01*
X52690112Y-3408776D01*
X52690106Y-3408774D01*
X52646974Y-3401943D01*
X52635536Y-3399575D01*
X52593234Y-3388714D01*
X52593233Y-3388714D01*
X52573198Y-3388714D01*
X52553800Y-3387187D01*
X52546376Y-3386011D01*
X52534019Y-3384054D01*
X52534018Y-3384054D01*
X52490539Y-3388164D01*
X52478870Y-3388714D01*
X51813714Y-3388714D01*
X51746675Y-3369029D01*
X51700920Y-3316225D01*
X51689714Y-3264714D01*
X51689714Y-2446951D01*
X51691438Y-2431337D01*
X51691152Y-2431310D01*
X51691886Y-2423547D01*
X51689775Y-2356357D01*
X51689714Y-2352463D01*
X51689714Y-2324865D01*
X51689714Y-2324864D01*
X51689211Y-2320884D01*
X51688294Y-2309235D01*
X51686923Y-2265588D01*
X51686923Y-2265586D01*
X51681334Y-2246351D01*
X51677388Y-2227298D01*
X51676763Y-2222348D01*
X51674878Y-2207422D01*
X51658792Y-2166795D01*
X51655017Y-2155768D01*
X51642831Y-2113824D01*
X51632635Y-2096583D01*
X51624074Y-2079107D01*
X51621612Y-2072888D01*
X51616700Y-2060482D01*
X51591023Y-2025140D01*
X51584626Y-2015404D01*
X51562384Y-1977793D01*
X51562381Y-1977790D01*
X51562379Y-1977787D01*
X51548219Y-1963627D01*
X51535584Y-1948834D01*
X51523807Y-1932626D01*
X51490159Y-1904790D01*
X51481518Y-1896927D01*
X51200803Y-1616212D01*
X51190980Y-1603950D01*
X51190759Y-1604134D01*
X51185786Y-1598122D01*
X51136776Y-1552099D01*
X51133977Y-1549386D01*
X51114477Y-1529885D01*
X51114471Y-1529880D01*
X51111286Y-1527409D01*
X51102434Y-1519848D01*
X51070582Y-1489938D01*
X51070580Y-1489936D01*
X51070577Y-1489935D01*
X51053029Y-1480288D01*
X51036763Y-1469604D01*
X51020932Y-1457324D01*
X50980849Y-1439978D01*
X50970363Y-1434841D01*
X50932094Y-1413803D01*
X50932092Y-1413802D01*
X50912693Y-1408822D01*
X50894281Y-1402518D01*
X50875898Y-1394562D01*
X50875892Y-1394560D01*
X50832760Y-1387729D01*
X50821322Y-1385361D01*
X50779020Y-1374500D01*
X50779019Y-1374500D01*
X50758984Y-1374500D01*
X50739586Y-1372973D01*
X50732162Y-1371797D01*
X50719805Y-1369840D01*
X50719804Y-1369840D01*
X50676325Y-1373950D01*
X50664656Y-1374500D01*
X48542598Y-1374500D01*
X48475559Y-1354815D01*
X48429804Y-1302011D01*
X48419860Y-1232853D01*
X48448885Y-1169297D01*
X48469708Y-1150184D01*
X48477510Y-1144517D01*
X48644517Y-977510D01*
X48783343Y-786433D01*
X48890568Y-575992D01*
X48963553Y-351368D01*
X48987846Y-197985D01*
X49017774Y-134853D01*
X49077085Y-97921D01*
X49110552Y-93385D01*
X57678009Y-109675D01*
G37*
G04 #@! TD.AperFunction*
G04 #@! TA.AperFunction,Conductor*
G36*
X51723843Y-21659399D02*
G01*
X51769598Y-21712203D01*
X51779542Y-21781361D01*
X51758381Y-21834834D01*
X51718420Y-21891905D01*
X51718418Y-21891908D01*
X51718418Y-21891909D01*
X51625209Y-22091797D01*
X51625205Y-22091806D01*
X51568124Y-22304837D01*
X51568122Y-22304847D01*
X51548900Y-22524560D01*
X51548900Y-22524563D01*
X51568122Y-22744276D01*
X51568124Y-22744286D01*
X51625205Y-22957317D01*
X51625210Y-22957331D01*
X51718418Y-23157216D01*
X51718422Y-23157224D01*
X51844927Y-23337892D01*
X52000883Y-23493848D01*
X52000886Y-23493850D01*
X52084608Y-23552473D01*
X52135838Y-23588344D01*
X52179463Y-23642921D01*
X52188715Y-23689919D01*
X52188715Y-24489547D01*
X52169030Y-24556586D01*
X52152396Y-24577228D01*
X52091443Y-24638181D01*
X52030120Y-24671666D01*
X52003762Y-24674500D01*
X47682738Y-24674500D01*
X47667121Y-24672776D01*
X47667094Y-24673062D01*
X47659332Y-24672327D01*
X47592145Y-24674439D01*
X47588251Y-24674500D01*
X47560650Y-24674500D01*
X47556962Y-24674965D01*
X47556649Y-24675005D01*
X47545031Y-24675918D01*
X47501373Y-24677290D01*
X47501372Y-24677290D01*
X47482129Y-24682881D01*
X47463079Y-24686825D01*
X47443211Y-24689334D01*
X47443210Y-24689335D01*
X47402600Y-24705413D01*
X47391553Y-24709195D01*
X47349610Y-24721381D01*
X47349609Y-24721382D01*
X47332367Y-24731579D01*
X47314899Y-24740137D01*
X47296269Y-24747513D01*
X47296266Y-24747515D01*
X47260939Y-24773181D01*
X47251180Y-24779592D01*
X47213579Y-24801830D01*
X47199408Y-24816000D01*
X47184623Y-24828628D01*
X47168412Y-24840407D01*
X47140571Y-24874059D01*
X47132711Y-24882696D01*
X46839938Y-25175469D01*
X46778615Y-25208954D01*
X46708923Y-25203970D01*
X46701821Y-25201068D01*
X46686878Y-25194415D01*
X46594017Y-25153070D01*
X46594015Y-25153069D01*
X46594014Y-25153069D01*
X46442837Y-25120936D01*
X46408860Y-25113714D01*
X46219568Y-25113714D01*
X46185591Y-25120936D01*
X46034413Y-25153069D01*
X45941550Y-25194415D01*
X45872300Y-25203699D01*
X45809023Y-25174071D01*
X45771810Y-25114936D01*
X45767114Y-25081135D01*
X45767114Y-24197292D01*
X45786799Y-24130253D01*
X45839603Y-24084498D01*
X45908761Y-24074554D01*
X45941547Y-24084011D01*
X46034411Y-24125358D01*
X46219568Y-24164714D01*
X46219569Y-24164714D01*
X46408858Y-24164714D01*
X46408860Y-24164714D01*
X46594017Y-24125358D01*
X46766944Y-24048365D01*
X46920085Y-23937102D01*
X47046747Y-23796430D01*
X47141393Y-23632498D01*
X47199888Y-23452470D01*
X47219674Y-23264214D01*
X47199888Y-23075958D01*
X47192114Y-23052032D01*
X47190119Y-22982191D01*
X47226199Y-22922358D01*
X47288900Y-22891530D01*
X47310045Y-22889714D01*
X47981471Y-22889714D01*
X47997091Y-22891438D01*
X47997118Y-22891153D01*
X48004874Y-22891885D01*
X48004881Y-22891887D01*
X48072087Y-22889775D01*
X48075982Y-22889714D01*
X48103560Y-22889714D01*
X48103564Y-22889714D01*
X48107538Y-22889211D01*
X48119177Y-22888294D01*
X48162841Y-22886923D01*
X48182083Y-22881331D01*
X48201126Y-22877388D01*
X48221006Y-22874878D01*
X48261615Y-22858799D01*
X48272658Y-22855017D01*
X48314604Y-22842832D01*
X48331843Y-22832636D01*
X48349317Y-22824076D01*
X48367941Y-22816702D01*
X48367941Y-22816701D01*
X48367946Y-22816700D01*
X48403297Y-22791014D01*
X48413033Y-22784620D01*
X48415632Y-22783083D01*
X48483355Y-22765905D01*
X48549616Y-22788067D01*
X48593377Y-22842536D01*
X48598521Y-22857725D01*
X48625207Y-22957320D01*
X48625211Y-22957331D01*
X48718419Y-23157216D01*
X48718423Y-23157224D01*
X48844928Y-23337892D01*
X49000885Y-23493849D01*
X49181553Y-23620354D01*
X49181555Y-23620355D01*
X49181558Y-23620357D01*
X49229947Y-23642921D01*
X49381446Y-23713566D01*
X49381448Y-23713566D01*
X49381453Y-23713569D01*
X49594496Y-23770654D01*
X49751438Y-23784384D01*
X49814214Y-23789877D01*
X49814216Y-23789877D01*
X49814218Y-23789877D01*
X49869146Y-23785071D01*
X50033936Y-23770654D01*
X50246979Y-23713569D01*
X50446874Y-23620357D01*
X50627545Y-23493850D01*
X50783504Y-23337891D01*
X50910011Y-23157220D01*
X51003223Y-22957325D01*
X51060308Y-22744282D01*
X51076784Y-22555950D01*
X51079531Y-22524563D01*
X51079531Y-22524560D01*
X51067125Y-22382762D01*
X51060308Y-22304842D01*
X51003223Y-22091799D01*
X50910011Y-21891905D01*
X50870050Y-21834834D01*
X50847724Y-21768630D01*
X50864736Y-21700863D01*
X50915684Y-21653051D01*
X50971627Y-21639714D01*
X51656804Y-21639714D01*
X51723843Y-21659399D01*
G37*
G04 #@! TD.AperFunction*
M02*
