G04 #@! TF.GenerationSoftware,KiCad,Pcbnew,7.0.11-7.0.11~ubuntu22.04.1*
G04 #@! TF.CreationDate,2024-12-11T14:00:36+07:00*
G04 #@! TF.ProjectId,seat_golden,73656174-5f67-46f6-9c64-656e2e6b6963,rev?*
G04 #@! TF.SameCoordinates,Original*
G04 #@! TF.FileFunction,Copper,L3,Inr*
G04 #@! TF.FilePolarity,Positive*
%FSLAX46Y46*%
G04 Gerber Fmt 4.6, Leading zero omitted, Abs format (unit mm)*
G04 Created by KiCad (PCBNEW 7.0.11-7.0.11~ubuntu22.04.1) date 2024-12-11 14:00:36*
%MOMM*%
%LPD*%
G01*
G04 APERTURE LIST*
G04 #@! TA.AperFunction,ComponentPad*
%ADD10C,1.520000*%
G04 #@! TD*
G04 #@! TA.AperFunction,ComponentPad*
%ADD11R,1.520000X1.520000*%
G04 #@! TD*
G04 #@! TA.AperFunction,ViaPad*
%ADD12C,0.800000*%
G04 #@! TD*
G04 APERTURE END LIST*
D10*
X49814216Y-7524567D03*
X49814216Y-10524566D03*
X49814216Y-13524565D03*
X49814216Y-16524564D03*
X49814216Y-19524563D03*
X49814216Y-22524562D03*
X52814215Y-22524562D03*
X52814215Y-19524563D03*
X52814215Y-16524564D03*
X52814215Y-13524565D03*
X52814215Y-10524566D03*
D11*
X52814215Y-7524567D03*
X7000000Y-16500000D03*
D10*
X7000000Y-13500001D03*
X9999999Y-16500000D03*
X9999999Y-13500001D03*
D12*
X22164214Y-2764214D03*
X28464214Y-2764214D03*
X58364214Y-13514214D03*
X56364214Y-26014214D03*
X6000000Y-20000000D03*
X6000000Y-12000000D03*
X26364214Y-14014214D03*
X22000000Y-29014214D03*
X8000000Y-22000000D03*
X41000000Y-5000000D03*
X14300000Y-29000000D03*
X17564214Y-22414214D03*
X29364214Y-1014214D03*
X58364214Y-6514214D03*
X11864214Y-24014214D03*
X41714214Y-19564214D03*
X20500000Y-29014214D03*
X56364214Y-13514214D03*
X58364214Y-4514214D03*
X10000000Y-24000000D03*
X8000000Y-18000000D03*
X56364214Y-6514214D03*
X58364214Y-24014214D03*
X2000000Y-28000000D03*
X26314214Y-12114214D03*
X27000000Y-29014214D03*
X58364214Y-15514214D03*
X41714214Y-9564214D03*
X2000000Y-18000000D03*
X8000000Y-1000000D03*
X49364214Y-24514214D03*
X2000000Y-10000000D03*
X20914214Y-5564214D03*
X4000000Y-18000000D03*
X11864214Y-20014214D03*
X2000000Y-8000000D03*
X56364214Y-15514214D03*
X58364214Y-17514214D03*
X30864214Y-6014214D03*
X4000000Y-10000000D03*
X2000000Y-1000000D03*
X4000000Y-1000000D03*
X4000000Y-12000000D03*
X2000000Y-20000000D03*
X56364214Y-24014214D03*
X6000000Y-18000000D03*
X11864214Y-22014214D03*
X41714214Y-14564214D03*
X33664214Y-6014214D03*
X32514214Y-27164214D03*
X51364214Y-24514214D03*
X8000000Y-12000000D03*
X10000000Y-26000000D03*
X56364214Y-4514214D03*
X6000000Y-1000000D03*
X23464214Y-19814214D03*
X10000000Y-20000000D03*
X8000000Y-20000000D03*
X58364214Y-26014214D03*
X34914214Y-1114214D03*
X41714214Y-24564214D03*
X2000000Y-12000000D03*
X11864214Y-26014214D03*
X10000000Y-22000000D03*
X21364214Y-17014214D03*
X19000000Y-29014214D03*
X11864214Y-18014214D03*
X8000000Y-10000000D03*
X56364214Y-17514214D03*
X38000000Y-5000000D03*
X11864214Y-10214214D03*
X30864214Y-9014214D03*
X4000000Y-20000000D03*
X2000000Y-22000000D03*
X6000000Y-10000000D03*
X32000000Y-1000000D03*
X27064214Y-25914214D03*
X11864214Y-12014214D03*
X28864214Y-23364214D03*
X46314214Y-13264214D03*
X46314214Y-8264214D03*
X46314214Y-3264214D03*
X28864214Y-17264214D03*
X46314214Y-23264214D03*
X46314214Y-18264214D03*
X46314214Y-28264214D03*
X10100000Y-10700000D03*
X48500000Y-2900000D03*
X41100000Y-1400000D03*
X46314214Y-7264214D03*
X46314214Y-6014214D03*
X46314214Y-12264214D03*
X46314214Y-11014214D03*
X32464214Y-24264214D03*
X33200000Y-17400000D03*
X46314214Y-17264214D03*
X46314214Y-22264214D03*
X46314214Y-27264214D03*
X46314214Y-16014214D03*
X46314214Y-21014214D03*
X46314214Y-26014214D03*
X8600000Y-8600000D03*
M02*
